<svg width="16" height="17" viewBox="0 0 16 17" fill="none" xmlns="http://www.w3.org/2000/svg">
<path fill-rule="evenodd" clip-rule="evenodd" d="M5.62757 3.24903C5.74759 3.12905 5.91035 3.06165 6.08005 3.06165C6.24975 3.06165 6.41251 3.12905 6.53253 3.24903L11.0125 7.72906C11.1325 7.84906 11.1999 8.01182 11.1999 8.18148C11.1999 8.35121 11.1325 8.51396 11.0125 8.63396L6.53253 13.114C6.41183 13.2306 6.25016 13.2951 6.08235 13.2936C5.91455 13.2921 5.75403 13.2249 5.63537 13.1062C5.5167 12.9876 5.4494 12.827 5.44794 12.6592C5.44648 12.4914 5.51099 12.3298 5.62757 12.209L9.65507 8.18148L5.62757 4.15399C5.50759 4.03397 5.44019 3.87121 5.44019 3.70151C5.44019 3.53181 5.50759 3.36905 5.62757 3.24903Z" fill="white"/>
</svg>
