<svg width="26" height="26" viewBox="0 0 26 26" fill="none" xmlns="http://www.w3.org/2000/svg">
<g clip-path="url(#clip0_44_661)">
<path d="M25.4702 11.2127C25.0161 7.90266 23.2657 4.90863 20.604 2.88923C17.9423 0.869821 14.5875 -0.00953332 11.2775 0.444609C7.96748 0.89875 4.97345 2.64919 2.95404 5.31084C0.934641 7.9725 0.0552861 11.3273 0.509428 14.6374C0.883581 17.377 2.14254 19.9193 4.09471 21.8775C6.04688 23.8357 8.58536 25.1025 11.3238 25.485C11.8841 25.5584 12.4487 25.5954 13.0138 25.5955C15.2971 25.5993 17.5375 24.9762 19.4911 23.7942C19.6282 23.7117 19.7477 23.6029 19.8427 23.4741C19.9378 23.3453 20.0066 23.1991 20.0451 23.0438C20.0837 22.8884 20.0913 22.727 20.0674 22.5687C20.0436 22.4104 19.9888 22.2584 19.9062 22.1213C19.8237 21.9842 19.7149 21.8647 19.5861 21.7696C19.4573 21.6746 19.3111 21.6058 19.1558 21.5672C18.842 21.4894 18.5102 21.5393 18.2333 21.7061C16.8428 22.5407 15.2727 23.0302 13.6543 23.1336C12.0359 23.2371 10.4162 22.9515 8.93081 22.3007C7.4454 21.6499 6.13743 20.6528 5.11632 19.393C4.0952 18.1331 3.39063 16.647 3.06155 15.059C2.73246 13.471 2.78843 11.8273 3.22477 10.2654C3.66111 8.70351 4.46514 7.2688 5.56959 6.08129C6.67404 4.89379 8.0468 3.98803 9.57304 3.43979C11.0993 2.89155 12.7346 2.71676 14.3422 2.93005C15.8355 3.12859 17.2658 3.6568 18.5297 4.47642C19.7936 5.29605 20.8593 6.38655 21.6497 7.66892C22.44 8.9513 22.9352 10.3934 23.0994 11.8908C23.2636 13.3882 23.0926 14.9034 22.5989 16.3265C22.4707 16.6688 22.2393 16.9626 21.9366 17.1673C21.6339 17.372 21.275 17.4774 20.9097 17.4689C20.4283 17.4683 19.9667 17.2767 19.6263 16.9363C19.2859 16.5959 19.0944 16.1344 19.0937 15.653V8.12517C19.0937 7.80194 18.9653 7.49194 18.7368 7.26338C18.5082 7.03482 18.1982 6.90642 17.875 6.90642C17.5518 6.90642 17.2418 7.03482 17.0132 7.26338C16.7846 7.49194 16.6562 7.80194 16.6562 8.12517V8.13655C15.7323 7.43921 14.6289 7.01946 13.4751 6.92641C12.3213 6.83336 11.1648 7.07086 10.1411 7.61112C9.11735 8.15138 8.26867 8.97206 7.69437 9.97709C7.12006 10.9821 6.84389 12.1299 6.89818 13.2862C6.95247 14.4425 7.33496 15.5594 8.00091 16.5062C8.66685 17.453 9.58869 18.1905 10.6585 18.6325C11.7284 19.0745 12.902 19.2026 14.042 19.0019C15.182 18.8011 16.2413 18.2798 17.0958 17.499C17.4411 18.2181 17.982 18.8254 18.6565 19.2512C19.3311 19.677 20.112 19.9041 20.9097 19.9064C21.7817 19.9148 22.6347 19.6515 23.3502 19.1529C24.0657 18.6544 24.6082 17.9454 24.9023 17.1244C25.5591 15.2271 25.7538 13.2004 25.4702 11.2127ZM13 16.6564C12.2769 16.6564 11.57 16.442 10.9687 16.0402C10.3674 15.6385 9.89879 15.0675 9.62206 14.3994C9.34532 13.7313 9.27292 12.9961 9.41399 12.2869C9.55507 11.5776 9.9033 10.9261 10.4146 10.4148C10.926 9.90348 11.5774 9.55525 12.2867 9.41418C12.9959 9.2731 13.7311 9.3455 14.3992 9.62224C15.0673 9.89897 15.6383 10.3676 16.0401 10.9689C16.4418 11.5701 16.6562 12.277 16.6562 13.0002C16.6552 13.9695 16.2696 14.8989 15.5842 15.5843C14.8987 16.2698 13.9694 16.6553 13 16.6564Z" fill="#363470"/>
</g>
<defs>
<clipPath id="clip0_44_661">
<rect width="26" height="26" fill="white"/>
</clipPath>
</defs>
</svg>
