<svg width="36" height="36" viewBox="0 0 36 36" fill="none" xmlns="http://www.w3.org/2000/svg">
<rect width="36" height="36" rx="18" fill="white"/>
<path d="M24.0186 20.3125C23.2288 19.4798 22.2799 18.8741 21.2805 18.5442C22.2762 17.6461 22.9032 16.3466 22.9032 14.9032C22.9032 12.1996 20.7036 10 18 10C15.2964 10 13.0968 12.1996 13.0968 14.9032C13.0968 16.3466 13.7238 17.6461 14.7195 18.5442C13.72 18.8741 12.7712 19.4798 11.9814 20.3125C10.7037 21.6596 10 23.4045 10 25.2258V26H26V25.2258C26 23.4045 25.2963 21.6596 24.0186 20.3125ZM14.6452 14.9032C14.6452 13.0534 16.1501 11.5484 18 11.5484C19.8498 11.5484 21.3548 13.0533 21.3548 14.9032C21.3548 16.7531 19.8499 18.2581 18 18.2581C16.1502 18.2581 14.6452 16.7531 14.6452 14.9032ZM11.6029 24.4516C11.9872 21.7463 14.3341 19.8065 16.4516 19.8065H19.5484C21.6658 19.8065 24.0128 21.7463 24.3971 24.4516H11.6029Z" fill="black" fill-opacity="0.6"/>
</svg>
