<svg width="142" height="44" viewBox="0 0 142 44" fill="none" xmlns="http://www.w3.org/2000/svg">
<g filter="url(#filter0_d_2008_2439)">
<path d="M0 5.00718C0 2.24179 2.24179 0 5.00718 0H136.237C139.002 0 141.244 2.24179 141.244 5.00718V33.2977C141.244 36.0631 139.002 38.3049 136.237 38.3049H5.00717C2.24178 38.3049 0 36.0631 0 33.2977V5.00718Z" fill="white" shape-rendering="crispEdges"/>
<rect x="10.0143" y="7.51074" width="23.2834" height="23.2834" rx="1.48309" fill="url(#paint0_linear_2008_2439)"/>
<path d="M18.9862 16.5761C20.3885 15.1287 21.1099 13.5785 21.6255 10.905C21.685 10.5964 21.6895 10.5924 21.7158 10.8239C21.8898 12.3562 22.5899 14.2359 23.4696 15.5323C23.9434 16.2306 25.0088 17.2763 25.7007 17.7221C26.7866 18.4217 27.9976 18.8663 29.3758 19.0715L30.0581 19.173L29.3275 19.279C27.3896 19.5598 25.7427 20.3631 24.433 21.6664C23.1251 22.9679 22.1291 24.991 21.7835 27.0483C21.7224 27.4118 21.6688 27.6786 21.6642 27.6409C21.6597 27.6033 21.5833 27.216 21.4945 26.7801C21.0312 24.5067 19.882 22.4171 18.4325 21.2124C17.1491 20.1458 15.4051 19.4036 13.822 19.2504L13.2538 19.1954L14.0656 19.0572C16.1627 18.7003 17.659 17.9458 18.9862 16.5761Z" fill="url(#paint1_linear_2008_2439)"/>
<rect x="39.5567" y="9.8667" width="86.6659" height="7.42851" rx="1.41953" fill="url(#paint2_linear_2008_2439)"/>
<rect x="39.5568" y="21.0098" width="43.333" height="7.42851" rx="1.41953" fill="#FFE5C4"/>
</g>
<defs>
<filter id="filter0_d_2008_2439" x="0" y="0" width="141.244" height="43.3121" filterUnits="userSpaceOnUse" color-interpolation-filters="sRGB">
<feFlood flood-opacity="0" result="BackgroundImageFix"/>
<feColorMatrix in="SourceAlpha" type="matrix" values="0 0 0 0 0 0 0 0 0 0 0 0 0 0 0 0 0 0 127 0" result="hardAlpha"/>
<feOffset dy="5.00718"/>
<feComposite in2="hardAlpha" operator="out"/>
<feColorMatrix type="matrix" values="0 0 0 0 0.971154 0 0 0 0 0.527754 0 0 0 0 0.252126 0 0 0 0.38 0"/>
<feBlend mode="normal" in2="BackgroundImageFix" result="effect1_dropShadow_2008_2439"/>
<feBlend mode="normal" in="SourceGraphic" in2="effect1_dropShadow_2008_2439" result="shape"/>
</filter>
<linearGradient id="paint0_linear_2008_2439" x1="21.656" y1="7.51074" x2="21.656" y2="30.7941" gradientUnits="userSpaceOnUse">
<stop stop-color="#FFE4C2"/>
<stop offset="1" stop-color="#F7EFE5"/>
</linearGradient>
<linearGradient id="paint1_linear_2008_2439" x1="21.656" y1="10.6606" x2="21.656" y2="27.6445" gradientUnits="userSpaceOnUse">
<stop stop-color="#CF9DFA"/>
<stop offset="1" stop-color="#674188"/>
</linearGradient>
<linearGradient id="paint2_linear_2008_2439" x1="126.223" y1="13.5809" x2="39.5567" y2="13.5809" gradientUnits="userSpaceOnUse">
<stop stop-color="#FFE4C2"/>
<stop offset="1" stop-color="#F7EFE5"/>
</linearGradient>
</defs>
</svg>
