<svg width="21" height="20" viewBox="0 0 21 20" fill="none" xmlns="http://www.w3.org/2000/svg">
<path fill-rule="evenodd" clip-rule="evenodd" d="M10.7343 3.43626C10.5843 3.58628 10.5001 3.78973 10.5001 4.00186C10.5001 4.21399 10.5843 4.41743 10.7343 4.56746L14.9687 8.80182H4.0999C3.88774 8.80182 3.68422 8.88614 3.53422 9.03614C3.38414 9.18622 3.2999 9.38966 3.2999 9.60182C3.2999 9.81406 3.38414 10.0175 3.53422 10.1676C3.68422 10.3176 3.88774 10.4018 4.0999 10.4018H14.9687L10.7343 14.6362C10.5885 14.7872 10.5079 14.9893 10.5097 15.199C10.5116 15.4087 10.5957 15.6094 10.7441 15.7577C10.8924 15.9061 11.093 15.9901 11.3028 15.992C11.5125 15.9938 11.7146 15.9132 11.8655 15.7675L17.4655 10.1674C17.6155 10.0174 17.6997 9.81398 17.6997 9.60182C17.6997 9.38974 17.6155 9.1863 17.4655 9.0363L11.8655 3.43626C11.7154 3.28628 11.512 3.20203 11.2999 3.20203C11.0877 3.20203 10.8843 3.28628 10.7343 3.43626Z" fill="white"/>
</svg>
