<svg width="151" height="36" viewBox="0 0 151 36" fill="none" xmlns="http://www.w3.org/2000/svg">
<path d="M23.2119 2.05176C29.6885 4.50154 34.2939 10.7601 34.2939 18.0947C34.2937 27.5644 26.6171 35.2409 17.1475 35.2412C16.5655 35.2412 15.9899 35.2109 15.4229 35.1543L31.4062 14.749C31.4999 14.6441 31.5498 14.5081 31.5498 14.3477C31.5498 14.0269 31.3294 13.7803 31.043 13.7803H19.9189L23.2119 2.05176ZM17.1475 0.947266C17.9307 0.947287 18.7016 1.00081 19.457 1.10254L3.57227 20.5537C3.47869 20.6585 3.42978 20.8007 3.42969 20.9609C3.42969 21.2755 3.64973 21.5224 3.93066 21.5225H14.2998L11.3867 34.248C4.7506 31.8815 0.000207578 25.5435 0 18.0947C0 8.62471 7.67745 0.947266 17.1475 0.947266Z" fill="url(#paint0_linear_44_195)"/>
<path d="M41.5355 28.538V25.5404L53.2466 11.1325H41.6322V7.31836H58.9733V10.316L47.2729 24.7131H59.0914V28.538H41.5355Z" fill="#0F0E1A"/>
<path d="M74.1275 26.5719C73.1605 27.3616 72.164 27.9364 71.1406 28.3017C70.1226 28.659 68.9864 28.8389 67.7347 28.8389C66.5367 28.8389 65.4193 28.6267 64.3825 28.205C63.343 27.7833 62.4432 27.2112 61.6857 26.4859C60.9256 25.7553 60.3266 24.8904 59.8915 23.8859C59.4617 22.884 59.2468 21.8069 59.2468 20.6519C59.2468 19.5211 59.451 18.4574 59.8592 17.4609C60.2729 16.459 60.8477 15.5887 61.5783 14.85C62.3089 14.1141 63.1711 13.5339 64.1676 13.1095C65.1695 12.6797 66.2359 12.4648 67.3694 12.4648C68.4787 12.4648 69.5129 12.6851 70.4745 13.1202C71.4334 13.5581 72.2607 14.1517 72.9563 14.9038C73.6574 15.6505 74.2054 16.5422 74.6002 17.5791C74.9924 18.6186 75.1911 19.744 75.1911 20.9527V22.0486H63.4263C63.711 23.0371 64.2563 23.8375 65.0594 24.4446C65.8679 25.0543 66.8214 25.3578 67.9173 25.3578C68.605 25.3578 69.2496 25.2477 69.8513 25.0247C70.4583 24.8045 70.9741 24.4875 71.3984 24.0793L74.1275 26.5719ZM67.2727 15.8922C66.3272 15.8922 65.5107 16.1823 64.823 16.7625C64.1354 17.3373 63.6573 18.1109 63.3941 19.0832H71.1298C70.8639 18.1539 70.3804 17.391 69.6794 16.7947C68.9837 16.1931 68.1806 15.8922 67.2727 15.8922Z" fill="#0F0E1A"/>
<path d="M76.4585 28.5381V12.7442H80.6165V13.9798C81.2235 13.4802 81.8977 13.0988 82.6364 12.8409C83.3724 12.5777 84.1755 12.4434 85.0431 12.4434C86.8615 12.4434 88.3549 13.0316 89.5234 14.2054C90.6972 15.3738 91.2854 16.878 91.2854 18.7179V28.5381H87.1382V19.3196C87.1382 18.3311 86.8373 17.5361 86.2357 16.9344C85.6394 16.3274 84.8497 16.0212 83.8612 16.0212C83.1736 16.0212 82.5504 16.1581 81.9917 16.4294C81.4384 16.7034 80.9818 17.0902 80.6165 17.5898V28.5381H76.4585Z" fill="#0F0E1A"/>
<path d="M94.5935 23.8105L96.2052 16.2252H93.0142L93.7448 12.7441H96.925L97.7738 8.70427L102.05 7.76953L100.986 12.7441H105.391L104.661 16.2252H100.266L98.773 23.1444C98.6145 23.9126 98.6871 24.4632 98.9879 24.799C99.2941 25.1294 99.8824 25.2932 100.75 25.2932C101.072 25.2932 101.384 25.2771 101.685 25.2395C101.991 25.1965 102.324 25.1321 102.684 25.0461L101.964 28.4198C101.599 28.5004 101.142 28.5729 100.6 28.6454C100.054 28.7152 99.5493 28.7528 99.0846 28.7528C97.3226 28.7528 96.0494 28.3231 95.2704 27.4635C94.4969 26.604 94.2712 25.3872 94.5935 23.8105Z" fill="#0F0E1A"/>
<path d="M102.783 28.5381L106.146 12.7442H110.208L109.875 14.2914C110.46 13.6843 111.105 13.225 111.809 12.9161C112.518 12.6018 113.264 12.4434 114.054 12.4434C114.462 12.4434 114.841 12.481 115.193 12.5508C115.55 12.6153 115.83 12.72 116.031 12.8624L115.268 16.5046C115.067 16.3623 114.736 16.236 114.28 16.1286C113.828 16.0158 113.409 15.9567 113.023 15.9567C112.276 15.9567 111.561 16.1393 110.874 16.5046C110.186 16.8646 109.59 17.3857 109.09 18.0733L106.877 28.5381H102.783Z" fill="#0F0E1A"/>
<path d="M128.551 26.905C127.576 27.5926 126.612 28.0949 125.661 28.4091C124.715 28.7154 123.676 28.8711 122.545 28.8711C121.39 28.8711 120.321 28.6831 119.333 28.3124C118.344 27.9418 117.495 27.4207 116.786 26.7545C116.077 26.083 115.524 25.2826 115.132 24.3586C114.737 23.4292 114.541 22.4139 114.541 21.318C114.541 20.1308 114.766 18.9946 115.218 17.9121C115.674 16.8323 116.287 15.8922 117.055 15.0972C117.82 14.2967 118.723 13.6628 119.762 13.1954C120.807 12.7308 121.917 12.4971 123.093 12.4971C124.125 12.4971 125.083 12.6905 125.973 13.0773C126.859 13.4587 127.616 13.9851 128.24 14.6566C128.868 15.3228 129.36 16.1259 129.711 17.0633C130.069 18.0034 130.249 19.0161 130.249 20.1039C130.249 20.3349 130.238 20.574 130.216 20.8238C130.195 21.0763 130.155 21.4738 130.098 22.0164H118.57C118.755 23.0263 119.236 23.8483 120.01 24.4768C120.788 25.0999 121.734 25.4115 122.846 25.4115C123.512 25.4115 124.138 25.3121 124.726 25.1107C125.312 24.9119 125.827 24.6272 126.273 24.2619L128.551 26.905ZM122.878 15.9567C121.968 15.9567 121.148 16.2468 120.418 16.827C119.693 17.4018 119.171 18.1539 118.849 19.0832H126.424C126.244 18.1539 125.836 17.4018 125.199 16.827C124.56 16.2468 123.786 15.9567 122.878 15.9567Z" fill="#0F0E1A"/>
<path d="M144.74 26.905C143.765 27.5926 142.801 28.0949 141.85 28.4091C140.904 28.7154 139.865 28.8711 138.734 28.8711C137.579 28.8711 136.51 28.6831 135.521 28.3124C134.533 27.9418 133.684 27.4207 132.975 26.7545C132.266 26.083 131.713 25.2826 131.32 24.3586C130.926 23.4292 130.729 22.4139 130.729 21.318C130.729 20.1308 130.955 18.9946 131.406 17.9121C131.863 16.8323 132.475 15.8922 133.244 15.0972C134.009 14.2967 134.912 13.6628 135.951 13.1954C136.996 12.7308 138.105 12.4971 139.282 12.4971C140.313 12.4971 141.272 12.6905 142.161 13.0773C143.048 13.4587 143.805 13.9851 144.428 14.6566C145.057 15.3228 145.548 16.1259 145.9 17.0633C146.257 18.0034 146.437 19.0161 146.437 20.1039C146.437 20.3349 146.427 20.574 146.405 20.8238C146.384 21.0763 146.343 21.4738 146.287 22.0164H134.759C134.944 23.0263 135.425 23.8483 136.198 24.4768C136.977 25.0999 137.923 25.4115 139.035 25.4115C139.701 25.4115 140.327 25.3121 140.915 25.1107C141.5 24.9119 142.016 24.6272 142.462 24.2619L144.74 26.905ZM139.067 15.9567C138.156 15.9567 137.337 16.2468 136.607 16.827C135.881 17.4018 135.36 18.1539 135.038 19.0832H142.613C142.433 18.1539 142.024 17.4018 141.388 16.827C140.748 16.2468 139.975 15.9567 139.067 15.9567Z" fill="#0F0E1A"/>
<path d="M148.734 23.9287C149.341 23.9287 149.844 24.1382 150.238 24.5519C150.631 24.9682 150.829 25.4759 150.829 26.0775C150.829 26.8081 150.555 27.4528 150.013 28.0115C149.468 28.5621 148.842 28.8388 148.133 28.8388C147.523 28.8388 147.01 28.6346 146.596 28.2264C146.188 27.8127 145.984 27.2997 145.984 26.69C145.984 25.9379 146.255 25.2905 146.8 24.7453C147.343 24.2027 147.988 23.9287 148.734 23.9287Z" fill="#0F0E1A"/>
<defs>
<linearGradient id="paint0_linear_44_195" x1="30.8646" y1="-2.48213" x2="1.7147" y2="39.2422" gradientUnits="userSpaceOnUse">
<stop stop-color="#DDD24C"/>
<stop offset="0.25" stop-color="#EE704A"/>
<stop offset="0.5" stop-color="#F53A8B"/>
<stop offset="0.75" stop-color="#7B40E4"/>
<stop offset="1" stop-color="#3D9BFC"/>
</linearGradient>
</defs>
</svg>
