<svg width="14" height="12" viewBox="0 0 14 12" fill="none" xmlns="http://www.w3.org/2000/svg">
<path d="M8.56884 0.509555C9.51619 0.772247 10.1667 1.57811 10.2774 2.49716C10.6459 2.41276 11.0401 2.41614 11.43 2.52424C12.6827 2.87162 13.4167 4.16883 13.0693 5.42158L11.9372 9.50455C11.5898 10.7573 10.2926 11.4913 9.03981 11.1439C8.64992 11.0358 8.31033 10.8356 8.0379 10.5734C7.46971 11.3043 6.49712 11.6602 5.54973 11.3975C4.60232 11.1348 3.95177 10.3288 3.84111 9.40972C3.47261 9.49411 3.07846 9.49088 2.6886 9.38279C1.43584 9.03541 0.701863 7.7382 1.04924 6.48544L2.18141 2.40247C2.52878 1.14972 3.82599 0.415735 5.07875 0.763112C5.46859 0.871217 5.80817 1.07134 6.08058 1.33343C6.64878 0.60262 7.62146 0.246858 8.56884 0.509555Z" fill="#C2FF1B"/>
</svg>
