<svg width="36" height="36" viewBox="0 0 36 36" fill="none" xmlns="http://www.w3.org/2000/svg">
<path d="M0 18C0 8.05888 8.05888 0 18 0C27.9411 0 36 8.05888 36 18C36 27.9411 27.9411 36 18 36C8.05888 36 0 27.9411 0 18Z" fill="white"/>
<path d="M18 14.129C15.8656 14.129 14.129 15.8656 14.129 18C14.129 20.1344 15.8656 21.871 18 21.871C19.3617 21.871 20.5605 21.1636 21.2507 20.0977C21.7555 20.5578 22.4262 20.8387 23.1613 20.8387C24.7266 20.8387 26 19.5653 26 18C26 13.5888 22.4113 10 18 10C13.5887 10 10 13.5888 10 18C10 22.4112 13.5887 26 18 26C20.1369 26 22.1458 25.1678 23.6569 23.6569L22.562 22.562C21.3434 23.7805 19.7233 24.4516 18 24.4516C14.4426 24.4516 11.5484 21.5574 11.5484 18C11.5484 14.4426 14.4426 11.5484 18 11.5484C21.5574 11.5484 24.4516 14.4426 24.4516 18C24.4516 18.7115 23.8728 19.2903 23.1613 19.2903C22.4498 19.2903 21.871 18.7115 21.871 18V18C21.871 15.8656 20.1344 14.129 18 14.129ZM18 20.3226C16.7193 20.3226 15.6774 19.2807 15.6774 18C15.6774 16.7193 16.7192 15.6774 18 15.6774C19.2808 15.6774 20.3226 16.7193 20.3226 18C20.3226 19.2807 19.2807 20.3226 18 20.3226Z" fill="black" fill-opacity="0.6"/>
</svg>
