<svg width="87" height="22" viewBox="0 0 87 22" fill="none" xmlns="http://www.w3.org/2000/svg">
<path d="M1.57528 18.2701C3.24011 21.0201 7.24631 21.0872 8.90893 18.3317C9.43531 17.4589 9.73118 16.4679 9.76898 15.4508L9.82204 14.0417C9.82204 14.0417 7.29605 16.3352 6.25471 16.1944C5.90317 16.1471 6.17069 15.4981 6.29782 15.1769C6.78091 13.9669 9.71591 10.9903 9.71591 10.9903C9.71591 10.9903 9.94917 6.77397 10.3637 5.61787C10.5782 5.01947 10.8269 4.74557 11.0546 4.63667C11.2824 4.74667 11.5311 5.01947 11.7455 5.61787C12.1601 6.77397 12.3933 10.9903 12.3933 10.9903C12.3933 10.9903 15.3284 13.9603 15.8114 15.1769C15.9386 15.4981 16.2061 16.1471 15.8546 16.1944C14.8121 16.3352 12.2872 14.0417 12.2872 14.0417L12.3403 15.4508C12.3802 16.5253 12.7081 17.5697 13.2899 18.4758C14.9591 21.074 18.8338 21.0058 20.4643 18.3845C21.5277 16.675 22.0969 14.7068 22.1093 12.6964C22.1546 6.72557 17.3204 1.75467 11.3199 1.61497C9.34193 1.56784 7.38743 2.04982 5.66045 3.01064C3.93347 3.97145 2.49728 5.37586 1.50178 7.07733C0.506281 8.77879 -0.0120513 10.7149 0.000876924 12.6837C0.0138052 14.6525 0.557521 16.5817 1.57528 18.2701Z" fill="#0F0E1A"/>
<mask id="mask0_2047_253" style="mask-type:luminance" maskUnits="userSpaceOnUse" x="0" y="1" width="23" height="20">
<path d="M1.57528 18.2701C3.24011 21.0201 7.24631 21.0872 8.90893 18.3317C9.43531 17.4589 9.73118 16.4679 9.76898 15.4508L9.82204 14.0417C9.82204 14.0417 7.29605 16.3352 6.25471 16.1944C5.90317 16.1471 6.17069 15.4981 6.29782 15.1769C6.78091 13.9669 9.71591 10.9903 9.71591 10.9903C9.71591 10.9903 9.94917 6.77397 10.3637 5.61787C10.5782 5.01947 10.8269 4.74557 11.0546 4.63667C11.2824 4.74667 11.5311 5.01947 11.7455 5.61787C12.1601 6.77397 12.3933 10.9903 12.3933 10.9903C12.3933 10.9903 15.3284 13.9603 15.8114 15.1769C15.9386 15.4981 16.2061 16.1471 15.8546 16.1944C14.8121 16.3352 12.2872 14.0417 12.2872 14.0417L12.3403 15.4508C12.3802 16.5253 12.7081 17.5697 13.2899 18.4758C14.9591 21.074 18.8338 21.0058 20.4643 18.3845C21.5277 16.675 22.0969 14.7068 22.1093 12.6964C22.1546 6.72557 17.3204 1.75467 11.3199 1.61497C9.34193 1.56784 7.38743 2.04982 5.66045 3.01064C3.93347 3.97145 2.49728 5.37586 1.50178 7.07733C0.506281 8.77879 -0.0120513 10.7149 0.000876924 12.6837C0.0138052 14.6525 0.557521 16.5817 1.57528 18.2701Z" fill="white"/>
</mask>
<g mask="url(#mask0_2047_253)">
<path d="M1.57528 18.2701C3.24011 21.0201 7.24631 21.0872 8.90893 18.3317C9.43531 17.4589 9.73118 16.4679 9.76898 15.4508L9.82204 14.0417C9.82204 14.0417 7.29605 16.3352 6.25471 16.1944C5.90317 16.1471 6.17069 15.4981 6.29782 15.1769C6.78091 13.9669 9.71591 10.9903 9.71591 10.9903C9.71591 10.9903 9.94917 6.77397 10.3637 5.61787C10.5782 5.01947 10.8269 4.74557 11.0546 4.63667C11.2824 4.74667 11.5311 5.01947 11.7455 5.61787C12.1601 6.77397 12.3933 10.9903 12.3933 10.9903C12.3933 10.9903 15.3284 13.9603 15.8114 15.1769C15.9386 15.4981 16.2061 16.1471 15.8546 16.1944C14.8121 16.3352 12.2872 14.0417 12.2872 14.0417L12.3403 15.4508C12.3802 16.5253 12.7081 17.5697 13.2899 18.4758C14.9591 21.074 18.8338 21.0058 20.4643 18.3845C21.5277 16.675 22.0969 14.7068 22.1093 12.6964C22.1546 6.72557 17.3204 1.75467 11.3199 1.61497C9.34193 1.56784 7.38743 2.04982 5.66045 3.01064C3.93347 3.97145 2.49728 5.37586 1.50178 7.07733C0.506281 8.77879 -0.0120513 10.7149 0.000876924 12.6837C0.0138052 14.6525 0.557521 16.5817 1.57528 18.2701Z" fill="#0F0E1A"/>
</g>
<path d="M32.0054 9.60071H34.7536V6.59991H32.0054V3.21191L28.8681 4.15571V6.59991H26.7522V9.60071H28.8681V14.6343C28.8681 17.9013 30.3516 19.1839 34.7536 18.6999V15.8685C32.9539 15.9653 32.0054 15.9411 32.0054 14.6343V9.60071Z" fill="#0F0E1A"/>
<path fill-rule="evenodd" clip-rule="evenodd" d="M49.9939 16.2074C48.3402 16.2074 47.0025 15.5298 46.5648 13.9326H55.7335C55.8065 13.5212 55.8551 13.1098 55.8551 12.65C55.8551 9.09263 53.3015 6.26123 49.7021 6.26123C45.8838 6.26123 43.2816 9.04423 43.2816 12.65C43.2816 16.2558 45.8595 19.0388 49.9453 19.0388C52.28 19.0388 54.104 18.095 55.2471 16.4494L52.7178 14.9974C52.1828 15.6992 51.2099 16.2074 49.9939 16.2074ZM52.7178 11.5126H46.5161C46.8809 9.96383 48.024 9.06843 49.7021 9.06843C51.0154 9.06843 52.3287 9.77023 52.7178 11.5126Z" fill="#0F0E1A"/>
<path fill-rule="evenodd" clip-rule="evenodd" d="M80.9827 6.60003H77.8454V8.02783C76.9699 6.93883 75.6566 6.26123 73.8812 6.26123C70.6467 6.26123 67.9714 9.04423 67.9714 12.65C67.9714 16.2558 70.6467 19.0388 73.8812 19.0388C75.6566 19.0388 76.9699 18.3612 77.8454 17.2722V18.7H80.9827V6.60003ZM77.8454 12.65C77.8454 14.6828 76.4105 16.0622 74.4649 16.0622C72.5436 16.0622 71.1087 14.6828 71.1087 12.65C71.1087 10.6172 72.5436 9.23783 74.4649 9.23783C76.4105 9.23783 77.8454 10.6172 77.8454 12.65Z" fill="#0F0E1A"/>
<path d="M82.8549 16.9574C82.8549 18.0948 83.779 19.0144 84.9221 19.0144C86.0651 19.0144 86.9893 18.0948 86.9893 16.9574C86.9893 15.82 86.0651 14.9004 84.9221 14.9004C83.779 14.9004 82.8549 15.82 82.8549 16.9574Z" fill="#0F0E1A"/>
<path d="M64.8421 6.6001H68.2956L63.6747 18.7001H60.0996L55.4788 6.6001H58.9323L61.875 15.0701L64.8421 6.6001Z" fill="#0F0E1A"/>
<path d="M39.5633 8.68111C40.1957 7.03551 41.7278 6.35791 43.26 6.35791V9.84271C41.6305 9.64911 39.5633 10.3751 39.5633 12.9161V18.6999H36.426V6.59991H39.5633V8.68111Z" fill="#0F0E1A"/>
</svg>
