<svg width="87" height="22" viewBox="0 0 87 22" fill="none" xmlns="http://www.w3.org/2000/svg">
<g clip-path="url(#clip0_2047_168)">
<path d="M10.0257 6.6651C10.3614 6.52645 10.7218 6.45792 11.0848 6.46372C11.4505 6.4614 11.813 6.53149 12.1515 6.66997C12.4899 6.80844 12.7977 7.01256 13.0572 7.27059C13.3165 7.52862 13.5225 7.83546 13.663 8.17347C13.8036 8.51148 13.876 8.87397 13.8761 9.24012C13.8727 9.9758 13.5778 10.6801 13.0564 11.1983C12.5349 11.7165 11.8294 12.0065 11.0947 12.0044C10.7272 12.0054 10.3632 11.9334 10.0238 11.7923C9.68436 11.6513 9.3763 11.4441 9.11752 11.1828C8.85873 10.9215 8.65438 10.6113 8.51634 10.2703C8.37829 9.92921 8.3093 9.56409 8.31338 9.19612C8.31094 8.83598 8.38242 8.47918 8.52339 8.14786C8.66435 7.81653 8.87179 7.51774 9.13285 7.27002C9.38624 7.00959 9.69008 6.80375 10.0257 6.6651Z" fill="#0F0E1A"/>
<path fill-rule="evenodd" clip-rule="evenodd" d="M3.32726 3.22182C5.38732 1.15893 8.18135 0 11.0947 0C14.0081 0 16.8021 1.15893 18.8622 3.22182C20.9222 5.28473 22.0796 8.08261 22.0796 11C22.0796 13.9174 20.9222 16.7153 18.8622 18.7782C16.8021 20.841 14.0081 22 11.0947 22H2.74623C2.04703 22 1.37646 21.7218 0.882044 21.2268C0.387629 20.7317 0.109871 20.0601 0.109871 19.36V11C0.109871 8.08261 1.2672 5.28473 3.32726 3.22182ZM9.45688 19.8616L14.5901 12.9151C15.5553 11.5937 16.0379 10.3635 16.0379 9.2246C16.0379 7.94126 15.5425 6.8277 14.5517 5.8839C14.092 5.42691 13.5464 5.06585 12.9464 4.8217C12.3463 4.57754 11.7039 4.45514 11.0563 4.4616C10.4108 4.45311 9.77044 4.57662 9.17433 4.82459C8.57821 5.07255 8.03892 5.43975 7.58945 5.9037C7.12605 6.3499 6.75926 6.88679 6.51188 7.481C6.26452 8.0752 6.14186 8.714 6.15154 9.3577C6.14099 9.95662 6.24969 10.5517 6.4713 11.108C6.69292 11.6644 7.02299 12.1711 7.44226 12.5983C8.31152 13.5025 9.34008 13.9546 10.5279 13.9546C10.6169 13.9546 10.7234 13.948 10.8574 13.9359C10.9915 13.9238 11.1529 13.904 11.343 13.8787L7.82783 18.6516L9.45688 19.8616Z" fill="#0F0E1A"/>
<path d="M46.3302 16.2802V1.43018H44.5344V16.2802H46.3302Z" fill="#0F0E1A"/>
<path d="M70.9851 5.81934V16.2801H69.1893V5.81934H70.9851Z" fill="#0F0E1A"/>
<path d="M69.0542 3.04473C69.0542 2.75469 69.1411 2.50977 69.3149 2.30996C69.4951 2.11016 69.759 2.01025 70.1065 2.01025C70.4476 2.01025 70.7083 2.11016 70.8886 2.30996C71.0752 2.50977 71.1686 2.75469 71.1686 3.04473C71.1686 3.32188 71.0752 3.56035 70.8886 3.76016C70.7083 3.95352 70.4476 4.0502 70.1065 4.0502C69.759 4.0502 69.4951 3.95352 69.3149 3.76016C69.1411 3.56035 69.0542 3.32188 69.0542 3.04473Z" fill="#0F0E1A"/>
<path d="M77.6329 7.19189V5.81904H75.6827V3.27637H73.8965V5.81904H71.9849V7.19189H73.8965V13.6791C73.8965 14.3752 74.0028 14.9295 74.2151 15.342C74.4339 15.748 74.7268 16.0381 75.0937 16.2121C75.4606 16.3862 75.8628 16.4732 76.3006 16.4732C76.6223 16.4732 76.8959 16.4506 77.1211 16.4055C77.3529 16.3668 77.5395 16.3249 77.6811 16.2798L77.6715 14.82C77.5878 14.8392 77.4623 14.8651 77.2949 14.8973C77.1341 14.923 76.9795 14.9359 76.8316 14.9359C76.632 14.9359 76.4453 14.907 76.2716 14.8489C76.0978 14.7909 75.9562 14.6717 75.8468 14.4912C75.7374 14.3108 75.6827 14.0433 75.6827 13.6887V7.19189H77.6329Z" fill="#0F0E1A"/>
<path d="M81.7146 16.1672L77.9858 5.81934H79.936L82.5505 13.6457L84.9757 5.81934H86.8874L82.6973 17.8947C82.6007 18.1524 82.472 18.4296 82.311 18.726C82.1566 19.029 81.9571 19.3159 81.7125 19.5866C81.4679 19.8573 81.1718 20.0764 80.8242 20.2439C80.4832 20.418 80.0744 20.505 79.5981 20.505C79.4565 20.505 79.2764 20.4856 79.0574 20.447C78.8386 20.4083 78.6842 20.376 78.5941 20.3503L78.5844 18.9001C78.6358 18.9066 78.7164 18.913 78.8258 18.9194C78.9417 18.9323 79.0221 18.9388 79.0671 18.9388C79.4727 18.9388 79.8169 18.884 80.1002 18.7744C80.3834 18.6713 80.6216 18.4941 80.8146 18.2427C81.0142 17.9977 81.1848 17.6594 81.3264 17.2275L81.7146 16.1672Z" fill="#0F0E1A"/>
<path d="M64.6462 14.7428C64.2858 14.9169 63.8931 15.0039 63.4683 15.0039C62.9147 15.0039 62.4513 14.8976 62.078 14.6849C61.7111 14.4657 61.4183 14.1757 61.1995 13.8148C60.987 13.4539 60.8358 13.051 60.7457 12.6063C60.6556 12.1616 60.6106 11.7104 60.6106 11.2528V10.8467C60.6106 10.3891 60.6556 9.94111 60.7457 9.50284C60.8422 9.05811 60.9967 8.65528 61.2091 8.29433C61.4279 7.92696 61.7208 7.63692 62.0877 7.42422C62.461 7.20508 62.9212 7.09551 63.4683 7.09551C63.9446 7.09551 64.3598 7.20186 64.7137 7.41455C65.0741 7.6208 65.3574 7.89795 65.5634 8.246C65.7758 8.59405 65.898 8.98399 65.9302 9.41583H67.6294C67.5973 8.69395 67.4041 8.04942 67.0502 7.48223C66.7027 6.9086 66.2231 6.45742 65.6116 6.12871C65.0002 5.79356 64.2858 5.62598 63.4683 5.62598C62.6831 5.62598 61.9976 5.76455 61.4119 6.0417C60.8326 6.31886 60.3499 6.69913 59.9637 7.18252C59.5839 7.66593 59.2975 8.22344 59.1044 8.85508C58.9177 9.48028 58.8244 10.1441 58.8244 10.8467V11.2528C58.8244 11.9553 58.9177 12.6224 59.1044 13.254C59.2975 13.8792 59.5839 14.4335 59.9637 14.9169C60.3499 15.4003 60.8326 15.7806 61.4119 16.0578C61.9976 16.3349 62.6831 16.4735 63.4683 16.4735C64.2085 16.4735 64.8875 16.3123 65.5054 15.99C66.1233 15.6613 66.6221 15.2328 67.0019 14.7042C67.3881 14.1693 67.5973 13.5923 67.6294 12.9736H65.9302C65.898 13.3668 65.7661 13.7181 65.5344 14.0274C65.3026 14.3303 65.0066 14.5688 64.6462 14.7428Z" fill="#0F0E1A"/>
<path fill-rule="evenodd" clip-rule="evenodd" d="M48.1314 11.1657V10.9434C48.1314 10.1893 48.2408 9.48995 48.4596 8.84541C48.6785 8.19443 48.9939 7.63047 49.4058 7.15351C49.8177 6.67012 50.3166 6.29629 50.9023 6.03203C51.488 5.76133 52.1444 5.62598 52.8718 5.62598C53.6055 5.62598 54.2653 5.76133 54.851 6.03203C55.4432 6.29629 55.9452 6.67012 56.3571 7.15351C56.7755 7.63047 57.0941 8.19443 57.3129 8.84541C57.5317 9.48995 57.6411 10.1893 57.6411 10.9434V11.1657C57.6411 11.9198 57.5317 12.6192 57.3129 13.2637C57.0941 13.9083 56.7755 14.4721 56.3571 14.9556C55.9452 15.4325 55.4464 15.8063 54.8607 16.077C54.2813 16.3414 53.6249 16.4735 52.8911 16.4735C52.1574 16.4735 51.4977 16.3414 50.9119 16.077C50.3262 15.8063 49.8241 15.4325 49.4058 14.9556C48.9939 14.4721 48.6785 13.9083 48.4596 13.2637C48.2408 12.6192 48.1314 11.9198 48.1314 11.1657ZM49.9175 10.9434V11.1657C49.9175 11.6878 49.9787 12.1808 50.1009 12.6449C50.2232 13.1025 50.4066 13.5086 50.6513 13.8631C50.9023 14.2176 51.2145 14.498 51.5877 14.7042C51.961 14.904 52.3956 15.0039 52.8911 15.0039C53.3802 15.0039 53.8083 14.904 54.1752 14.7042C54.5485 14.498 54.8575 14.2176 55.102 13.8631C55.3466 13.5086 55.5301 13.1025 55.6523 12.6449C55.7811 12.1808 55.8455 11.6878 55.8455 11.1657V10.9434C55.8455 10.4277 55.7811 9.94111 55.6523 9.4835C55.5301 9.01943 55.3433 8.61016 55.0923 8.25567C54.8478 7.89473 54.5388 7.61114 54.1655 7.40489C53.7987 7.19864 53.3674 7.09551 52.8718 7.09551C52.3826 7.09551 51.9514 7.19864 51.5781 7.40489C51.2112 7.61114 50.9023 7.89473 50.6513 8.25567C50.4066 8.61016 50.2232 9.01943 50.1009 9.4835C49.9787 9.94111 49.9175 10.4277 49.9175 10.9434Z" fill="#0F0E1A"/>
<path fill-rule="evenodd" clip-rule="evenodd" d="M38.8328 16.4735C38.1055 16.4735 37.4457 16.351 36.8535 16.1061C36.2678 15.8547 35.7625 15.5034 35.3377 15.0523C34.9194 14.601 34.5976 14.0661 34.3723 13.4474C34.147 12.8286 34.0344 12.1519 34.0344 11.4171V11.0111C34.0344 10.1603 34.1599 9.40294 34.4109 8.73906C34.6619 8.06876 35.003 7.50156 35.4343 7.03751C35.8655 6.57344 36.3547 6.22218 36.9018 5.9837C37.4489 5.74522 38.0153 5.62598 38.601 5.62598C39.3476 5.62598 39.9913 5.75489 40.5319 6.0127C41.0791 6.27051 41.5264 6.63145 41.8739 7.09551C42.2215 7.55313 42.479 8.09453 42.6464 8.71973C42.8137 9.33848 42.8974 10.0152 42.8974 10.75V11.5524H35.8318C35.843 11.9986 35.91 12.4207 36.0328 12.8189C36.1744 13.2508 36.3772 13.6311 36.6412 13.9597C36.9114 14.2885 37.2364 14.5463 37.6163 14.7333C38.0024 14.9202 38.4402 15.0135 38.9293 15.0135C39.5601 15.0135 40.0943 14.8846 40.5319 14.6269C40.9697 14.3691 41.3526 14.0242 41.6808 13.5923L42.7622 14.4529C42.5369 14.7944 42.2505 15.1199 41.9029 15.4293C41.5554 15.7387 41.1273 15.99 40.6188 16.1834C40.1168 16.3768 39.5214 16.4735 38.8328 16.4735ZM35.8841 10.0926H41.1112V9.95723C41.0855 9.49317 40.989 9.04199 40.8216 8.60371C40.6606 8.16544 40.4033 7.80449 40.0492 7.5209C39.6952 7.23731 39.2125 7.09551 38.601 7.09551C38.1955 7.09551 37.8222 7.18252 37.4811 7.35655C37.14 7.52413 36.8471 7.77549 36.6025 8.11065C36.3579 8.4458 36.1681 8.85508 36.0328 9.33848C35.9675 9.57248 35.9178 9.82384 35.8841 10.0926Z" fill="#0F0E1A"/>
<path d="M28.3907 16.2801L24.6061 5.81934H26.4404L29.0938 13.8339L31.683 5.81934H33.5076L29.752 16.2801H28.3907Z" fill="#0F0E1A"/>
</g>
<defs>
<clipPath id="clip0_2047_168">
<rect width="87" height="22" fill="white"/>
</clipPath>
</defs>
</svg>
