<svg width="18" height="19" viewBox="0 0 18 19" fill="none" xmlns="http://www.w3.org/2000/svg">
<path d="M9 0.625C4.02948 0.625 0 4.65448 0 9.625C0 13.8456 2.90592 17.3873 6.82596 18.36V12.3754H4.97016V9.625H6.82596V8.43988C6.82596 5.37664 8.21232 3.9568 11.2198 3.9568C11.79 3.9568 12.7739 4.06876 13.1764 4.18036V6.67336C12.964 6.65104 12.595 6.63988 12.1367 6.63988C10.661 6.63988 10.0908 7.19896 10.0908 8.65228V9.625H13.0306L12.5255 12.3754H10.0908V18.5591C14.5472 18.0209 18.0004 14.2265 18.0004 9.625C18 4.65448 13.9705 0.625 9 0.625Z" fill="white"/>
</svg>
