<svg width="110" height="30" viewBox="0 0 110 30" fill="none" xmlns="http://www.w3.org/2000/svg">
<path d="M20.3047 0.96582C25.9708 3.10863 30 8.58344 30 15C30 23.2843 23.2843 30 15 30C14.4907 30 13.9874 29.9744 13.4912 29.9248L27.4746 12.0732C27.5564 11.9815 27.5996 11.8628 27.5996 11.7227C27.5996 11.442 27.4068 11.2266 27.1562 11.2266H17.4248L20.3047 0.96582ZM15 0C15.6852 0 16.3596 0.046758 17.0205 0.135742L3.125 17.1523C3.04335 17.244 3.00007 17.3678 3 17.5078C3 17.783 3.19273 17.999 3.43848 17.999H12.5088L9.96094 29.1309C4.15568 27.0605 0 21.5163 0 15C0 6.71573 6.71573 0 15 0Z" fill="white"/>
<path d="M38 21.875V19.9016L45.7096 10.4167H38.0637V7.90576H49.4795V9.87913L41.777 19.357H49.5573V21.875H38Z" fill="white"/>
<path d="M59.4558 20.5808C58.8192 21.1007 58.1632 21.4791 57.4895 21.7196C56.8193 21.9547 56.0713 22.0732 55.2473 22.0732C54.4587 22.0732 53.7231 21.9335 53.0406 21.6559C52.3563 21.3783 51.7639 21.0016 51.2652 20.5242C50.7648 20.0433 50.3705 19.4739 50.084 18.8126C49.8011 18.153 49.6597 17.4439 49.6597 16.6836C49.6597 15.9391 49.7941 15.2389 50.0628 14.5829C50.3351 13.9233 50.7135 13.3504 51.1945 12.8642C51.6755 12.3797 52.2431 11.9977 52.8991 11.7183C53.5587 11.4354 54.2607 11.2939 55.0069 11.2939C55.7371 11.2939 56.4179 11.4389 57.051 11.7254C57.6822 12.0136 58.2268 12.4044 58.6848 12.8995C59.1463 13.3911 59.5071 13.9782 59.767 14.6607C60.0252 15.345 60.156 16.0859 60.156 16.8816V17.6031H52.4111C52.5985 18.2538 52.9575 18.7807 53.4862 19.1803C54.0184 19.5817 54.6461 19.7816 55.3676 19.7816C55.8203 19.7816 56.2446 19.7091 56.6407 19.5623C57.0403 19.4173 57.3799 19.2086 57.6592 18.9399L59.4558 20.5808ZM54.9432 13.5502C54.3208 13.5502 53.7832 13.7412 53.3306 14.1231C52.8779 14.5016 52.5631 15.0108 52.3898 15.6509H57.4824C57.3074 15.0391 56.9891 14.5369 56.5276 14.1444C56.0696 13.7483 55.5409 13.5502 54.9432 13.5502Z" fill="white"/>
<path d="M60.9902 21.8751V11.4778H63.7275V12.2912C64.1271 11.9623 64.5709 11.7112 65.0572 11.5415C65.5417 11.3682 66.0704 11.2798 66.6416 11.2798C67.8387 11.2798 68.8218 11.667 69.591 12.4398C70.3637 13.2089 70.751 14.1992 70.751 15.4104V21.8751H68.0208V15.8065C68.0208 15.1558 67.8228 14.6324 67.4267 14.2363C67.0341 13.8367 66.5143 13.6351 65.8635 13.6351C65.4109 13.6351 65.0006 13.7253 64.6328 13.9039C64.2686 14.0842 63.968 14.3389 63.7275 14.6678V21.8751H60.9902Z" fill="white"/>
<path d="M72.9288 18.7631L73.9897 13.7696H71.889L72.37 11.4779H74.4636L75.0224 8.81848L77.8374 8.20312L77.1372 11.4779H80.0371L79.5562 13.7696H76.6633L75.6802 18.3246C75.5758 18.8303 75.6236 19.1928 75.8216 19.4138C76.0232 19.6313 76.4105 19.7392 76.9816 19.7392C77.1938 19.7392 77.3989 19.7286 77.597 19.7038C77.7985 19.6755 78.0178 19.6331 78.2547 19.5765L77.7809 21.7974C77.5404 21.8505 77.2398 21.8982 76.8826 21.946C76.5236 21.992 76.1912 22.0167 75.8853 22.0167C74.7253 22.0167 73.8872 21.7338 73.3744 21.1679C72.8651 20.6021 72.7166 19.8011 72.9288 18.7631Z" fill="white"/>
<path d="M78.3203 21.8751L80.5342 11.4778H83.2078L82.9885 12.4963C83.374 12.0967 83.7984 11.7943 84.2616 11.591C84.7285 11.3841 85.22 11.2798 85.7399 11.2798C86.0087 11.2798 86.258 11.3045 86.4896 11.3505C86.7248 11.393 86.9087 11.4619 87.0413 11.5556L86.5391 13.9534C86.4065 13.8597 86.189 13.7766 85.8884 13.7058C85.5914 13.6316 85.3155 13.5927 85.0609 13.5927C84.5693 13.5927 84.099 13.7129 83.6463 13.9534C83.1936 14.1903 82.8011 14.5334 82.4722 14.986L81.0151 21.8751H78.3203Z" fill="white"/>
<path d="M95.2835 20.7998C94.6416 21.2525 94.0068 21.5832 93.3809 21.7901C92.7584 21.9916 92.0741 22.0942 91.3297 22.0942C90.5693 22.0942 89.8656 21.9704 89.2149 21.7264C88.5641 21.4824 88.0054 21.1393 87.5386 20.7008C87.0717 20.2588 86.7075 19.7318 86.4493 19.1235C86.1894 18.5117 86.0603 17.8433 86.0603 17.1219C86.0603 16.3403 86.2088 15.5923 86.5059 14.8797C86.8065 14.1689 87.2097 13.55 87.7154 13.0266C88.2193 12.4997 88.8135 12.0824 89.4978 11.7747C90.1856 11.4688 90.9159 11.3149 91.6904 11.3149C92.3694 11.3149 93.0007 11.4423 93.586 11.6969C94.1695 11.948 94.6682 12.2946 95.0784 12.7366C95.4922 13.1751 95.8157 13.7038 96.0474 14.321C96.2826 14.9399 96.401 15.6065 96.401 16.3226C96.401 16.4747 96.394 16.6321 96.3798 16.7965C96.3657 16.9627 96.3391 17.2244 96.302 17.5816H88.7127C88.8347 18.2465 89.1512 18.7876 89.6605 19.2013C90.1733 19.6116 90.7957 19.8167 91.5277 19.8167C91.9663 19.8167 92.3783 19.7513 92.7655 19.6187C93.151 19.4878 93.4905 19.3004 93.784 19.0599L95.2835 20.7998ZM91.549 13.5924C90.9495 13.5924 90.4102 13.7834 89.9292 14.1654C89.4518 14.5438 89.1088 15.0389 88.8966 15.6507H93.883C93.7646 15.0389 93.4958 14.5438 93.0767 14.1654C92.6559 13.7834 92.1466 13.5924 91.549 13.5924Z" fill="white"/>
<path d="M105.941 20.7998C105.299 21.2525 104.664 21.5832 104.038 21.7901C103.416 21.9916 102.731 22.0942 101.987 22.0942C101.227 22.0942 100.523 21.9704 99.8721 21.7264C99.2214 21.4824 98.6626 21.1393 98.1958 20.7008C97.729 20.2588 97.3647 19.7318 97.1065 19.1235C96.8466 18.5117 96.7175 17.8433 96.7175 17.1219C96.7175 16.3403 96.8661 15.5923 97.1631 14.8797C97.4637 14.1689 97.8669 13.55 98.3726 13.0266C98.8766 12.4997 99.4707 12.0824 100.155 11.7747C100.843 11.4688 101.573 11.3149 102.348 11.3149C103.027 11.3149 103.658 11.4423 104.243 11.6969C104.827 11.948 105.325 12.2946 105.736 12.7366C106.149 13.1751 106.473 13.7038 106.705 14.321C106.94 14.9399 107.058 15.6065 107.058 16.3226C107.058 16.4747 107.051 16.6321 107.037 16.7965C107.023 16.9627 106.996 17.2244 106.959 17.5816H99.3699C99.4919 18.2465 99.8084 18.7876 100.318 19.2013C100.83 19.6116 101.453 19.8167 102.185 19.8167C102.623 19.8167 103.035 19.7513 103.423 19.6187C103.808 19.4878 104.148 19.3004 104.441 19.0599L105.941 20.7998ZM102.206 13.5924C101.607 13.5924 101.067 13.7834 100.586 14.1654C100.109 14.5438 99.766 15.0389 99.5538 15.6507H104.54C104.422 15.0389 104.153 14.5438 103.734 14.1654C103.313 13.7834 102.804 13.5924 102.206 13.5924Z" fill="white"/>
<path d="M108.57 18.8408C108.97 18.8408 109.301 18.9787 109.561 19.2511C109.819 19.5251 109.95 19.8593 109.95 20.2554C109.95 20.7364 109.769 21.1608 109.412 21.5286C109.053 21.8911 108.641 22.0732 108.174 22.0732C107.773 22.0732 107.435 21.9388 107.163 21.67C106.894 21.3977 106.76 21.06 106.76 20.6586C106.76 20.1635 106.938 19.7373 107.297 19.3784C107.654 19.0212 108.079 18.8408 108.57 18.8408Z" fill="white"/>
</svg>
