<svg width="15" height="15" viewBox="0 0 15 15" fill="none" xmlns="http://www.w3.org/2000/svg">
<path d="M14.6761 6.06824L9.96809 5.38416L7.86808 1.11719C7.83854 1.06723 7.79649 1.02583 7.74607 0.99707C7.69566 0.968312 7.63865 0.953125 7.58061 0.953125C7.52257 0.953125 7.46552 0.968312 7.41511 0.99707C7.36469 1.02583 7.32264 1.06723 7.2931 1.11719L5.18708 5.38318L0.47709 6.06824C0.417916 6.07691 0.362339 6.10194 0.316629 6.1405C0.27092 6.17907 0.236899 6.22963 0.218393 6.2865C0.199887 6.34337 0.197634 6.4042 0.211893 6.46228C0.226152 6.52036 0.256343 6.5734 0.299081 6.61523L3.7071 9.93616L2.90708 14.6251C2.89715 14.684 2.90386 14.7446 2.92643 14.7999C2.94901 14.8552 2.98657 14.9031 3.03489 14.9382C3.08321 14.9734 3.14036 14.9943 3.19993 14.9987C3.2595 15.0031 3.31912 14.9908 3.37208 14.9631L7.58408 12.7491L11.7961 14.9622C11.8491 14.9898 11.9087 15.0021 11.9683 14.9977C12.0278 14.9933 12.085 14.9724 12.1333 14.9373C12.1816 14.9021 12.2192 14.8543 12.2418 14.799C12.2643 14.7436 12.2711 14.683 12.2611 14.6241L11.4611 9.93518L14.8691 6.61414C14.9118 6.5723 14.942 6.51939 14.9563 6.4613C14.9706 6.40322 14.9683 6.34227 14.9498 6.2854C14.9313 6.22853 14.8973 6.17797 14.8516 6.1394C14.8059 6.10084 14.7503 6.07581 14.6911 6.06714L14.6761 6.06824Z" fill="#0044EB"/>
</svg>
