<svg width="70" height="22" viewBox="0 0 70 22" fill="none" xmlns="http://www.w3.org/2000/svg">
<path d="M22.0126 0.0346973C15.9592 6.11262 15.9707 15.9365 22.0472 22C15.9707 15.9365 6.12565 15.9248 0.0346641 21.9653C6.08797 15.8875 6.07655 6.06353 0 0C6.07655 6.06353 15.9216 6.07524 22.0126 0.0346973Z" fill="#0F0E1A"/>
<path d="M68.8718 3.63868H66.7862V0.879883H68.8718V3.63868Z" fill="#0F0E1A"/>
<path d="M68.8718 18.6187H66.7862V5.98633H68.8718V18.6187Z" fill="#0F0E1A"/>
<path d="M61.1893 5.98633H64.4765V7.72873H61.3833V18.6187H59.2733V7.84973C59.2733 6.61553 59.9039 5.98633 61.1893 5.98633Z" fill="#0F0E1A"/>
<path fill-rule="evenodd" clip-rule="evenodd" d="M50.7439 11.0924C47.8579 11.0924 46.136 12.496 46.136 14.9886C46.136 17.336 47.6639 18.8606 50.2104 18.8606C52.2718 18.8606 53.9694 17.9652 54.5272 16.5374H54.6727L54.697 17.1908C54.7697 18.1346 55.182 18.6186 56.3461 18.6186H57.5124V17.0698H56.6372V10.1727C56.6372 9.59194 56.6129 9.05954 56.2249 8.16414C56.0309 7.70434 55.7641 7.31714 55.4488 6.97834C54.794 6.30074 53.4844 5.74414 51.811 5.74414C48.731 5.74414 46.7909 7.24454 46.6696 9.76134H48.731C48.8038 8.30934 49.8223 7.41394 51.6897 7.41394C53.6057 7.41394 54.5515 8.30934 54.5515 10.1243V11.0924H50.7439ZM48.2945 15.2306V14.4562C48.2945 13.3672 49.2646 12.617 50.9379 12.617H54.5515V13.2946C54.5515 15.6178 53.0479 17.1666 50.6954 17.1666C49.2403 17.1666 48.2945 16.489 48.2945 15.2306Z" fill="#0F0E1A"/>
<path d="M41.6802 7.72881V16.8764H44.3479V18.6188H41.4377C40.2008 18.6188 39.5945 18.038 39.5945 16.8522V7.72881H37.2906V5.9864H39.5945V1.7998H41.6802V5.9864H44.3237V7.72881H41.6802Z" fill="#0F0E1A"/>
<path d="M28.1014 14.795H26.0157C26.0157 17.2392 27.9802 18.8606 31.1814 18.8606C34.2614 18.8606 36.2258 17.4086 36.2258 14.9886C36.2258 13.101 35.1102 11.9636 32.9033 11.5764L30.4054 11.1166C29.8961 11.0198 29.6778 10.9471 29.1685 10.7293C28.6592 10.4631 28.3682 9.97914 28.3682 9.30154C28.3682 8.11574 29.314 7.36554 31.0359 7.36554C32.8306 7.36554 33.7521 8.11574 33.8006 9.59194H35.8863C35.862 7.26874 34.0431 5.74414 31.0359 5.74414C28.1257 5.74414 26.2583 7.17194 26.2583 9.51934C26.2583 11.3344 27.3739 12.4476 29.6293 12.859L32.3455 13.3672C33.4611 13.585 34.0189 14.1658 34.0189 15.1096C34.0189 16.4406 32.9518 17.215 31.1814 17.215C29.314 17.215 28.1014 16.2712 28.1014 14.795Z" fill="#0F0E1A"/>
</svg>
