<svg width="93" height="22" viewBox="0 0 93 22" fill="none" xmlns="http://www.w3.org/2000/svg">
<g clip-path="url(#clip0_2047_209)">
<mask id="mask0_2047_209" style="mask-type:luminance" maskUnits="userSpaceOnUse" x="0" y="0" width="93" height="22">
<path d="M93 0H0V22H93V0Z" fill="white"/>
</mask>
<g mask="url(#mask0_2047_209)">
<path d="M11.0262 0C4.47782 0 0 4.18 0 11.0594C0 17.6275 4.47782 22 11.0262 22C17.5746 22 21.934 17.6275 21.934 11.0594C21.934 4.18 17.5746 0 11.0262 0ZM17.5395 17.5923C17.1127 18.0187 16.6366 18.3923 16.1215 18.7055V9.68L14.1474 8.58V19.58C13.433 19.7935 12.6976 19.9281 11.954 19.9815V5.5165L9.97995 4.4165V19.9749C9.27399 19.9165 8.57581 19.7859 7.89623 19.5855V9.24L5.92217 10.34V18.7209C3.43157 17.2326 1.97406 14.5409 1.97406 11.055C1.97406 8.2577 2.82619 5.9422 4.43943 4.3582C6.02526 2.8039 8.3031 1.98 11.0262 1.98C13.7493 1.98 15.9888 2.8006 17.5472 4.3516C19.1275 5.929 19.9599 8.2489 19.9599 11.0616C19.9599 13.75 19.1231 16.005 17.5395 17.5923Z" fill="#0F0E1A"/>
<path d="M68.6478 6.16016H70.839L70.8193 16.0601H68.6281L68.6478 6.16016Z" fill="#0F0E1A"/>
<path d="M69.7335 4.27886C69.3782 4.27886 69.069 4.15346 68.8057 3.90266C68.5557 3.63866 68.4307 3.32846 68.4307 2.97206C68.4307 2.61566 68.5557 2.31206 68.8057 2.06126C69.069 1.81046 69.3782 1.68506 69.7335 1.68506C70.0889 1.68506 70.3916 1.81046 70.6416 2.06126C70.9048 2.31206 71.0364 2.61566 71.0364 2.97206C71.0364 3.32846 70.9048 3.63866 70.6416 3.90266C70.3916 4.15346 70.0889 4.27886 69.7335 4.27886Z" fill="#0F0E1A"/>
<path d="M73.0302 16.06H75.2412V10.8922C75.2412 9.95496 75.4451 9.23556 75.8531 8.73396C76.2611 8.23236 76.8336 7.98816 77.5705 8.00136C78.0048 8.00136 78.3799 8.08716 78.6958 8.25876C79.0248 8.43036 79.2748 8.73396 79.4459 9.16956C79.6301 9.59196 79.7223 10.1992 79.7223 10.9912V16.06H81.9332V10.3972C81.9332 8.87916 81.6042 7.75716 80.9462 7.03116C80.3013 6.29196 79.3801 5.92236 78.1825 5.92236C77.406 5.92236 76.7349 6.12036 76.169 6.51636C75.7892 6.77327 75.4687 7.11342 75.2075 7.5368L75.103 6.15996H73.0302V16.06Z" fill="#0F0E1A"/>
<path fill-rule="evenodd" clip-rule="evenodd" d="M85.6138 15.6442C86.364 16.0798 87.2194 16.2976 88.1801 16.2976C88.9303 16.2976 89.5949 16.192 90.1739 15.9808C90.7661 15.7696 91.2728 15.466 91.6939 15.07C92.1282 14.674 92.4836 14.212 92.7599 13.684L90.7267 12.8128C90.5161 13.2352 90.22 13.585 89.8383 13.8622C89.4567 14.1262 88.9697 14.2582 88.3775 14.2582C87.838 14.2582 87.3444 14.1394 86.897 13.9018C86.4627 13.651 86.1139 13.2946 85.8507 12.8326C85.6642 12.4879 85.5473 12.0919 85.4999 11.6446H92.9573C92.9573 10.4566 92.7468 9.43356 92.3256 8.57556C91.9045 7.71756 91.3386 7.06416 90.6279 6.61536C89.9304 6.15336 89.1408 5.92236 88.2591 5.92236C87.2852 5.92236 86.4166 6.14676 85.6533 6.59556C84.9032 7.03116 84.311 7.63836 83.8767 8.41716C83.4424 9.19596 83.2252 10.0936 83.2252 11.11C83.2252 12.1264 83.4358 13.024 83.8569 13.8028C84.2912 14.5816 84.8769 15.1954 85.6138 15.6442ZM90.5261 9.88236C90.492 9.7573 90.4536 9.6385 90.4108 9.52596C90.2134 8.97156 89.9239 8.56236 89.5422 8.29836C89.1737 8.02116 88.7197 7.88256 88.1801 7.88256C87.6142 7.88256 87.1273 8.00796 86.7193 8.25876C86.3113 8.50956 86.0021 8.87916 85.7915 9.36756C85.7217 9.52534 85.6633 9.69694 85.6166 9.88236H90.5261Z" fill="#0F0E1A"/>
<path d="M64.2195 2.2002V16.0602H66.4304V2.2002H64.2195Z" fill="#0F0E1A"/>
<path fill-rule="evenodd" clip-rule="evenodd" d="M60.0774 16.0602L59.9983 14.5822C59.7253 15.0171 59.3898 15.3778 58.9917 15.6642C58.3995 16.0866 57.6888 16.2978 56.8597 16.2978C55.9648 16.2978 55.1818 16.0866 54.5106 15.6642C53.8526 15.2286 53.3328 14.6214 52.9511 13.8426C52.5826 13.0638 52.3984 12.153 52.3984 11.1102C52.3984 10.0542 52.5826 9.1434 52.9511 8.3778C53.3328 7.599 53.8526 6.9984 54.5106 6.576C55.1818 6.1404 55.9648 5.9226 56.8597 5.9226C57.6888 5.9226 58.3995 6.1404 58.9917 6.576C59.3804 6.8472 59.7094 7.19186 59.9787 7.60998V2.2002H62.1699V16.0602H60.0774ZM59.6432 12.7536C59.8669 12.2784 59.9787 11.7306 59.9787 11.1102C59.9787 10.4898 59.8669 9.942 59.6432 9.4668C59.4326 8.99159 59.1299 8.622 58.7351 8.358C58.3534 8.094 57.906 7.96199 57.3927 7.96199C56.8663 7.96199 56.3991 8.094 55.9912 8.358C55.5832 8.622 55.2608 8.99159 55.0239 9.4668C54.8001 9.942 54.6817 10.4898 54.6685 11.1102C54.6817 11.7306 54.8001 12.2784 55.0239 12.7536C55.2608 13.2288 55.5832 13.605 55.9912 13.8822C56.4123 14.1462 56.8861 14.2782 57.4125 14.2782C57.9126 14.2782 58.3534 14.1462 58.7351 13.8822C59.1299 13.605 59.4326 13.2288 59.6432 12.7536Z" fill="#0F0E1A"/>
<path d="M48.6807 2.2002V16.0602H50.8916V2.2002H48.6807Z" fill="#0F0E1A"/>
<path fill-rule="evenodd" clip-rule="evenodd" d="M42.1454 16.2976C41.1584 16.2976 40.2767 16.0798 39.5002 15.6442C38.7369 15.1954 38.1381 14.5816 37.7038 13.8028C37.2695 13.024 37.0524 12.1264 37.0524 11.11C37.0524 10.0936 37.263 9.19596 37.6841 8.41716C38.1184 7.63836 38.7172 7.03116 39.4805 6.59556C40.2438 6.14676 41.1189 5.92236 42.106 5.92236C43.093 5.92236 43.9682 6.14676 44.7315 6.59556C45.4949 7.03116 46.087 7.63836 46.5081 8.41716C46.9424 9.19596 47.1596 10.0936 47.1596 11.11C47.1596 12.1264 46.949 13.024 46.5279 13.8028C46.1067 14.5816 45.5145 15.1954 44.7512 15.6442C43.9879 16.0798 43.1193 16.2976 42.1454 16.2976ZM42.1454 14.2582C42.685 14.2582 43.1654 14.1262 43.5865 13.8622C44.0076 13.585 44.3367 13.2154 44.5735 12.7534C44.8104 12.2782 44.9289 11.7304 44.9289 11.11C44.9289 10.4896 44.804 9.94836 44.5539 9.48636C44.3169 9.01116 43.9879 8.64156 43.5668 8.37756C43.1456 8.10036 42.6587 7.96176 42.106 7.96176C41.5532 7.96176 41.0663 8.09376 40.6452 8.35776C40.224 8.62176 39.895 8.99136 39.6581 9.46656C39.4213 9.94176 39.3028 10.4896 39.3028 11.11C39.3028 11.7304 39.4213 12.2782 39.6581 12.7534C39.9082 13.2154 40.2438 13.585 40.6649 13.8622C41.0992 14.1262 41.5927 14.2582 42.1454 14.2582Z" fill="#0F0E1A"/>
<path fill-rule="evenodd" clip-rule="evenodd" d="M28.5896 20.0992C29.1555 20.218 29.7872 20.2774 30.4847 20.2774C31.498 20.2774 32.3864 20.0728 33.1497 19.6636C33.913 19.2676 34.5052 18.6736 34.9263 17.8816C35.3475 17.1028 35.558 16.1524 35.558 15.0304V6.15996H33.3471V7.75637C33.0523 7.26466 32.6838 6.86452 32.2416 6.55596C31.6494 6.13356 30.9519 5.92236 30.1491 5.92236C29.2542 5.92236 28.4712 6.13356 27.8 6.55596C27.142 6.97836 26.6221 7.56576 26.2405 8.31816C25.872 9.07056 25.6877 9.96156 25.6877 10.9912C25.6877 11.9548 25.872 12.8062 26.2405 13.5454C26.6221 14.2714 27.142 14.839 27.8 15.2482C28.4712 15.6574 29.2542 15.862 30.1491 15.862C30.9519 15.862 31.6494 15.664 32.2416 15.268C32.6838 14.9691 33.0523 14.5856 33.3471 14.1176V15.0898C33.3471 15.829 33.2221 16.4362 32.972 16.9114C32.722 17.3866 32.3732 17.7364 31.9258 17.9608C31.4783 18.1984 30.9716 18.3172 30.4057 18.3172C29.8793 18.3172 29.4056 18.2644 28.9844 18.1588C28.5633 18.0532 28.1948 17.9278 27.8789 17.7826C27.5763 17.6506 27.3328 17.5384 27.1485 17.446L26.2997 19.228C26.5103 19.3732 26.8064 19.525 27.188 19.6834C27.5697 19.8418 28.0369 19.9804 28.5896 20.0992ZM32.0639 13.585C31.6955 13.849 31.2612 13.981 30.7611 13.981C30.2347 13.981 29.7675 13.849 29.3595 13.585C28.9515 13.321 28.6291 12.9646 28.3922 12.5158C28.1685 12.0538 28.0566 11.5258 28.0566 10.9318C28.0566 10.3246 28.1685 9.79656 28.3922 9.34776C28.6291 8.88576 28.9449 8.52936 29.3398 8.27856C29.7477 8.01456 30.2149 7.88256 30.7413 7.88256C31.2414 7.88256 31.6823 8.01456 32.0639 8.27856C32.4456 8.52936 32.7417 8.88576 32.9523 9.34776C33.1628 9.79656 33.2681 10.3246 33.2681 10.9318C33.2681 11.5258 33.1628 12.0538 32.9523 12.5158C32.7417 12.9646 32.4456 13.321 32.0639 13.585Z" fill="#0F0E1A"/>
</g>
</g>
<defs>
<clipPath id="clip0_2047_209">
<rect width="93" height="22" fill="white"/>
</clipPath>
</defs>
</svg>
