<svg width="78" height="22" viewBox="0 0 78 22" fill="none" xmlns="http://www.w3.org/2000/svg">
<mask id="mask0_2047_126" style="mask-type:luminance" maskUnits="userSpaceOnUse" x="0" y="0" width="78" height="22">
<path d="M78 0H0V22H78V0Z" fill="white"/>
</mask>
<g mask="url(#mask0_2047_126)">
<path d="M11.5296 18.6722C12.9365 18.552 14.2825 18.0399 15.4181 17.1929L17.5293 19.7229C15.9161 20.9739 13.9883 21.7439 11.9641 21.9458C9.93982 22.1476 7.90008 21.7731 6.07575 20.8648C4.25142 19.9564 2.71539 18.5505 1.64157 16.8062C0.567742 15.0618 -0.000982495 13.0488 -0.000212843 10.9949C0.000556809 8.94098 0.570789 6.92834 1.64592 5.18482C2.72106 3.4413 4.25815 2.03653 6.08315 1.12958C7.90815 0.222631 9.94818 -0.150277 11.9722 0.0530786C13.9963 0.256434 15.9235 1.02793 17.5358 2.28022L15.4235 4.81022C14.2887 3.96218 12.9431 3.44889 11.5364 3.3275C10.1298 3.20611 8.71737 3.48139 7.45652 4.12268C6.19567 4.76397 5.13589 5.7461 4.39519 6.95966C3.65448 8.17322 3.26197 9.57059 3.26134 10.9961C3.26072 12.4217 3.652 13.8193 4.39164 15.0336C5.13127 16.2478 6.19019 17.2309 7.45047 17.8733C8.71076 18.5158 10.1229 18.7923 11.5296 18.6722Z" fill="#0F0E1A"/>
<path d="M18.2788 19.0836L16.1676 16.5536H16.1708C16.9146 15.8364 17.5066 14.9743 17.9111 14.0195C18.3155 13.0647 18.5241 12.0371 18.5241 10.9986C18.5241 9.96011 18.3155 8.93242 17.9111 7.97763C17.5066 7.02286 16.9146 6.1608 16.1708 5.44357L18.2842 2.91357C19.3896 3.94402 20.2717 5.19449 20.8749 6.5862C21.478 7.9779 21.7891 9.48066 21.7886 10.9998C21.7881 12.5189 21.476 14.0215 20.872 15.4128C20.2679 16.804 19.385 18.0539 18.2788 19.0836Z" fill="#0F0E1A"/>
<path d="M61.7101 0.660156V18.3262H63.7952V0.660156H61.7101Z" fill="#0F0E1A"/>
<path fill-rule="evenodd" clip-rule="evenodd" d="M72.0571 16.6559C69.8282 16.6559 68.1266 15.4217 67.7191 13.2437H77.7611C77.809 12.9291 77.833 12.6145 77.833 12.2999C77.833 8.91193 75.4843 5.91113 71.8653 5.91113C68.1266 5.91113 65.5861 8.69413 65.5861 12.2757C65.5861 15.9057 68.1505 18.6403 72.0091 18.6403C74.4058 18.6403 76.2272 17.5513 77.2818 15.9057L75.5082 14.8893C74.9091 15.8815 73.7108 16.6559 72.0571 16.6559ZM67.7191 11.4045C68.0547 9.29913 69.6125 7.89553 71.8653 7.89553C73.6628 7.89553 75.3644 9.00873 75.7239 11.4045H67.7191Z" fill="#0F0E1A"/>
<path d="M54.9779 18.6403C51.359 18.6403 48.6747 15.8573 48.6747 12.2757C48.6747 8.69413 51.359 5.91113 54.9779 5.91113C57.3506 5.91113 59.3638 7.16953 60.2745 9.08133L58.5249 10.0977C57.9258 8.81513 56.5837 7.96813 54.9779 7.96813C52.5813 7.96813 50.7598 9.83153 50.7598 12.2757C50.7598 14.6957 52.5813 16.5591 54.9779 16.5591C56.6076 16.5591 57.9258 15.7121 58.5968 14.4537L60.3704 15.4943C59.3638 17.3819 57.3266 18.6403 54.9779 18.6403Z" fill="#0F0E1A"/>
<path d="M48.6799 6.0083C47.1701 6.0083 45.7081 6.5649 44.9412 8.2589V6.2261H42.8561V18.3261H44.9412V11.9131C44.9412 9.0575 46.8825 8.1379 48.6799 8.2105V6.0083Z" fill="#0F0E1A"/>
<path d="M39.3635 4.02378C38.5726 4.02378 37.9495 3.39458 37.9495 2.62018C37.9495 1.84578 38.5726 1.19238 39.3635 1.19238C40.1305 1.19238 40.7536 1.84578 40.7536 2.62018C40.7536 3.39458 40.1305 4.02378 39.3635 4.02378Z" fill="#0F0E1A"/>
<path d="M38.309 18.3261V6.22607H40.3941V18.3261H38.309Z" fill="#0F0E1A"/>
<path d="M25.2737 12.2757C25.2737 15.8573 27.958 18.6403 31.5769 18.6403C33.9256 18.6403 35.9628 17.3819 36.9694 15.4943L35.1959 14.4537C34.5248 15.7121 33.2066 16.5591 31.5769 16.5591C29.1803 16.5591 27.3588 14.6957 27.3588 12.2757C27.3588 9.83153 29.1803 7.96813 31.5769 7.96813C33.1827 7.96813 34.5248 8.81513 35.124 10.0977L36.8735 9.08133C35.9628 7.16953 33.9496 5.91113 31.5769 5.91113C27.958 5.91113 25.2737 8.69413 25.2737 12.2757Z" fill="#0F0E1A"/>
</g>
</svg>
