<svg width="21" height="20" viewBox="0 0 21 20" fill="none" xmlns="http://www.w3.org/2000/svg">
<path fill-rule="evenodd" clip-rule="evenodd" d="M10.7344 3.43638C10.5844 3.5864 10.5002 3.78985 10.5002 4.00198C10.5002 4.21411 10.5844 4.41756 10.7344 4.56758L14.9688 8.80194H4.10002C3.88786 8.80194 3.68434 8.88626 3.53434 9.03626C3.38426 9.18634 3.30002 9.38978 3.30002 9.60194C3.30002 9.81418 3.38426 10.0176 3.53434 10.1677C3.68434 10.3177 3.88786 10.4019 4.10002 10.4019H14.9688L10.7344 14.6363C10.5887 14.7873 10.508 14.9894 10.5099 15.1991C10.5117 15.4088 10.5958 15.6095 10.7442 15.7579C10.8925 15.9062 11.0931 15.9903 11.3029 15.9921C11.5127 15.9939 11.7147 15.9133 11.8656 15.7676L17.4656 10.1675C17.6156 10.0175 17.6998 9.8141 17.6998 9.60194C17.6998 9.38986 17.6156 9.18642 17.4656 9.03642L11.8656 3.43638C11.7155 3.2864 11.5121 3.20215 11.3 3.20215C11.0879 3.20215 10.8844 3.2864 10.7344 3.43638Z" fill="#0044EB"/>
</svg>
