<svg width="904" height="552" viewBox="0 0 904 552" fill="none" xmlns="http://www.w3.org/2000/svg">
<rect x="13.5" y="13.5" width="877" height="537" rx="30.5" fill="white" fill-opacity="0.2"/>
<rect x="13.5" y="13.5" width="877" height="537" rx="30.5" stroke="url(#paint0_linear_2092_83)" stroke-width="3"/>
<rect x="32" y="32" width="840" height="500" rx="24" fill="white"/>
<g opacity="0.34" filter="url(#filter1_f_2092_83)">
<rect width="840" height="41" transform="translate(32 32)" fill="url(#paint1_linear_2092_83)"/>
</g>
<rect x="137" y="48" width="65" height="8" rx="2" fill="black" fill-opacity="0.1"/>
<rect x="206" y="48" width="39" height="8" rx="2" fill="#CCCCCC"/>
<rect x="347" y="44" width="195" height="16" rx="2" fill="black" fill-opacity="0.05"/>
<path d="M780 64.5239C786.627 64.5239 792 59.1513 792 52.5239C792 45.8965 786.627 40.5239 780 40.5239C773.373 40.5239 768 45.8965 768 52.5239C768 59.1513 773.373 64.5239 780 64.5239Z" fill="#DEFFDF"/>
<path d="M785.347 52.0125C782.394 49.0596 777.606 49.0596 774.653 52.0125" stroke="#75C675" stroke-width="3" stroke-miterlimit="10"/>
<path d="M788.212 61.3439C785.999 59.5256 783.166 58.4341 780.078 58.4341C776.99 58.4341 774.157 59.5258 771.943 61.3444C771.943 61.3444 774.848 64.524 780.078 64.524C785.307 64.524 788.212 61.3439 788.212 61.3439Z" fill="#007203"/>
<path d="M796.476 64.9999C803.366 64.9999 808.952 59.4142 808.952 52.5239C808.952 45.6336 803.366 40.0479 796.476 40.0479C789.586 40.0479 784 45.6336 784 52.5239C784 59.4142 789.586 64.9999 796.476 64.9999Z" fill="#EAD7FF"/>
<path d="M804.933 61.6937C802.632 59.8033 799.687 58.6685 796.476 58.6685C793.266 58.6685 790.32 59.8035 788.019 61.6943C788.019 61.6943 791.04 64.9999 796.476 64.9999C801.913 64.9999 804.933 61.6937 804.933 61.6937Z" fill="#53288C"/>
<path d="M796.476 55.0981C798.843 55.0981 800.762 53.1794 800.762 50.8126C800.762 48.4458 798.843 46.5271 796.476 46.5271C794.109 46.5271 792.191 48.4458 792.191 50.8126C792.191 53.1794 794.109 55.0981 796.476 55.0981Z" stroke="#AF61F2" stroke-width="3" stroke-miterlimit="10"/>
<path d="M813.476 65.0479C820.393 65.0479 826 59.4407 826 52.5239C826 45.6072 820.393 40 813.476 40C806.559 40 800.952 45.6072 800.952 52.5239C800.952 59.4407 806.559 65.0479 813.476 65.0479Z" fill="#E6F9FF"/>
<path d="M821.965 61.729C819.655 59.8314 816.699 58.6921 813.476 58.6921C810.253 58.6921 807.296 59.8316 804.986 61.7296C804.986 61.7296 808.018 65.0479 813.476 65.0479C818.934 65.0479 821.965 61.729 821.965 61.729Z" fill="#061E4F"/>
<path d="M817.894 48.2048V50.7903C817.894 53.2203 815.906 55.2084 813.475 55.2084C811.045 55.2084 809.057 53.2203 809.057 50.7903V48.2048" stroke="#76A7FF" stroke-width="3.11419" stroke-miterlimit="10"/>
<path d="M830.024 64.5478C836.664 64.5478 842.048 59.1646 842.048 52.5239C842.048 45.8833 836.664 40.5 830.024 40.5C823.383 40.5 818 45.8833 818 52.5239C818 59.1646 823.383 64.5478 830.024 64.5478Z" fill="#FFF1E6"/>
<path d="M838.174 61.3614C835.957 59.5395 833.118 58.4458 830.024 58.4458C826.93 58.4458 824.091 59.5397 821.874 61.362C821.874 61.362 824.784 64.5478 830.024 64.5478C835.264 64.5478 838.174 61.3614 838.174 61.3614Z" fill="#CC6111"/>
<path d="M821.72 53.1124H825.816C825.816 51.403 827.202 50.0173 828.911 50.0173H831.679C833.389 50.0173 834.774 51.403 834.774 53.1124H838.328" stroke="#FFAA64" stroke-width="2.98986" stroke-miterlimit="10"/>
<rect x="834.048" y="40.5239" width="24" height="24" rx="12" fill="#0044EB"/>
<g clip-path="url(#clip0_2092_83)">
<path fill-rule="evenodd" clip-rule="evenodd" d="M845.25 52.25H841.125C840.711 52.25 840.375 52.586 840.375 53C840.375 53.414 840.711 53.75 841.125 53.75H845.25V57.875C845.25 58.289 845.586 58.625 846 58.625C846.414 58.625 846.75 58.289 846.75 57.875V53.75H850.875C851.289 53.75 851.625 53.414 851.625 53C851.625 52.586 851.289 52.25 850.875 52.25H846.75V48.125C846.75 47.711 846.414 47.375 846 47.375C845.586 47.375 845.25 47.711 845.25 48.125V52.25Z" fill="white"/>
</g>
<rect x="351" y="48" width="8" height="8" rx="2" fill="black" fill-opacity="0.2"/>
<rect x="362" y="48" width="103" height="8" rx="2" fill="black" fill-opacity="0.1"/>
<line x1="202.5" y1="72" x2="202.5" y2="532" stroke="black" stroke-opacity="0.1"/>
<line x1="243.5" y1="186" x2="243.5" y2="200" stroke="black" stroke-opacity="0.1"/>
<line x1="243.5" y1="258" x2="243.5" y2="279" stroke="black" stroke-opacity="0.1"/>
<line x1="259.5" y1="287" x2="259.5" y2="309" stroke="black" stroke-opacity="0.1"/>
<line x1="243" y1="278.5" x2="250" y2="278.5" stroke="black" stroke-opacity="0.1"/>
<line x1="260" y1="308.5" x2="267" y2="308.5" stroke="black" stroke-opacity="0.1"/>
<line x1="872" y1="72.5" x2="32" y2="72.5" stroke="black" stroke-opacity="0.1"/>
<g filter="url(#filter2_d_2092_83)">
<rect x="103" y="39" width="26" height="26" rx="13" fill="white" shape-rendering="crispEdges"/>
<path d="M119.049 43.9355C122.305 45.1673 124.621 48.3124 124.621 52C124.621 56.7612 120.761 60.6211 116 60.6211C115.708 60.6211 115.419 60.6056 115.134 60.5771L123.169 50.3184C123.216 50.2656 123.241 50.1969 123.241 50.1162C123.241 49.955 123.13 49.8311 122.986 49.8311H117.394L119.049 43.9355ZM116 43.3789C116.393 43.3789 116.78 43.408 117.159 43.459L109.175 53.2363C109.128 53.289 109.104 53.3608 109.104 53.4414C109.104 53.5996 109.214 53.7236 109.356 53.7236H114.568L113.104 60.1201C109.767 58.93 107.379 55.7449 107.379 52C107.379 47.2387 111.239 43.3789 116 43.3789Z" fill="url(#paint2_linear_2092_83)"/>
</g>
<circle cx="55" cy="53" r="5.75" fill="#FF5E5D" stroke="#E14942" stroke-width="0.5"/>
<circle cx="72" cy="53" r="5.75" fill="#FFBC4F" stroke="#E1A325" stroke-width="0.5"/>
<circle cx="89" cy="53" r="5.75" fill="#22CB58" stroke="#3EAF3F" stroke-width="0.5"/>
<rect x="755" y="72" width="117" height="36" fill="url(#paint3_linear_2092_83)"/>
<line x1="202" y1="141.5" x2="32" y2="141.5" stroke="black" stroke-opacity="0.1"/>
<line x1="872" y1="108.5" x2="202" y2="108.5" stroke="black" stroke-opacity="0.1"/>
<line x1="318" y1="98" x2="318" y2="84" stroke="black" stroke-opacity="0.1" stroke-width="2"/>
<line x1="440" y1="98" x2="440" y2="84" stroke="black" stroke-opacity="0.1" stroke-width="2"/>
<rect x="212" y="82" width="18" height="18" rx="1.14656" fill="url(#paint4_linear_2092_83)"/>
<path d="M218.936 89.0082C220.02 87.8892 220.578 86.6908 220.976 84.624C221.022 84.3854 221.026 84.3823 221.046 84.5612C221.181 85.7459 221.722 87.199 222.402 88.2013C222.768 88.7411 223.592 89.5495 224.127 89.8941C224.966 90.435 225.903 90.7787 226.968 90.9373L227.496 91.0158L226.931 91.0977C225.433 91.3149 224.159 91.9359 223.147 92.9434C222.136 93.9496 221.366 95.5136 221.099 97.1041C221.051 97.3851 221.01 97.5914 221.006 97.5622C221.003 97.5331 220.944 97.2337 220.875 96.8967C220.517 95.1392 219.629 93.5238 218.508 92.5925C217.516 91.7679 216.168 91.1941 214.944 91.0756L214.504 91.0332L215.132 90.9263C216.753 90.6504 217.91 90.0671 218.936 89.0082Z" fill="url(#paint5_linear_2092_83)"/>
<rect x="334" y="82" width="18" height="18" rx="1.14656" fill="#E2E2E2"/>
<rect x="765" y="83" width="18" height="18" rx="1.14656" fill="#CAD9FF"/>
<rect x="454" y="82" width="18" height="18" rx="1.14656" fill="#F2F2F2"/>
<line x1="872" y1="141.5" x2="202" y2="141.5" stroke="black" stroke-opacity="0.1"/>
<line x1="872" y1="341.5" x2="202" y2="341.5" stroke="black" stroke-opacity="0.1"/>
<path d="M67.5 192C76.6127 192 84 184.613 84 175.5C84 166.387 76.6127 159 67.5 159C58.3873 159 51 166.387 51 175.5C51 184.613 58.3873 192 67.5 192Z" fill="#EAD7FF"/>
<path d="M78.6845 187.627C75.6415 185.127 71.7463 183.626 67.5005 183.626C63.2543 183.626 59.3588 185.128 56.3156 187.628C56.3156 187.628 60.3102 192 67.5005 192C74.6908 192 78.6845 187.627 78.6845 187.627Z" fill="#53288C"/>
<path d="M74.1287 174.401H60.8713" stroke="#AF61F2" stroke-width="3.4055" stroke-miterlimit="10"/>
<rect x="91" y="165.291" width="64" height="10.4186" rx="2.97674" fill="#D5B6F8"/>
<rect x="91" y="178.709" width="79" height="7" rx="2" fill="#EAD7FF"/>
<g opacity="0.85">
<path d="M67.5 237C76.6127 237 84 229.613 84 220.5C84 211.387 76.6127 204 67.5 204C58.3873 204 51 211.387 51 220.5C51 229.613 58.3873 237 67.5 237Z" fill="#FFF1E6"/>
<path d="M78.6846 232.627C75.6416 230.127 71.7464 228.626 67.5006 228.626C63.2544 228.626 59.3589 230.127 56.3157 232.628C56.3157 232.628 60.3103 237 67.5006 237C74.691 237 78.6846 232.627 78.6846 232.627Z" fill="#CC6111"/>
<path d="M63.4596 214.595C61.3982 216.656 61.3982 219.998 63.4596 222.06C65.521 224.121 68.8631 224.121 70.9245 222.06C72.9858 219.998 72.9858 216.656 70.9245 214.595" stroke="#FFAA64" stroke-width="3.4055" stroke-miterlimit="10"/>
<rect x="91" y="215.291" width="64" height="10.4186" rx="2.97674" fill="black" fill-opacity="0.2"/>
</g>
<g opacity="0.65">
<path d="M67.5 282C76.6127 282 84 274.613 84 265.5C84 256.387 76.6127 249 67.5 249C58.3873 249 51 256.387 51 265.5C51 274.613 58.3873 282 67.5 282Z" fill="#FFE3E3"/>
<path d="M78.684 277.627C75.6409 275.127 71.7457 273.626 67.5 273.626C63.2538 273.626 59.3582 275.127 56.3151 277.628C56.3151 277.628 60.3096 282 67.5 282C74.6903 282 78.684 277.627 78.684 277.627Z" fill="#5B0000"/>
<path d="M73.3203 259.935V263.341C73.3203 266.543 70.701 269.162 67.4991 269.162C67.299 269.162 67.1012 269.152 66.9062 269.132C63.0226 268.735 61.146 264.107 63.3746 260.902L66.6255 256.226" stroke="#FF7373" stroke-width="4.10288" stroke-miterlimit="10"/>
<rect x="91" y="255.291" width="64" height="10.4186" rx="2.97674" fill="black" fill-opacity="0.2"/>
<rect x="91" y="268.709" width="79" height="7" rx="2" fill="black" fill-opacity="0.1"/>
</g>
<g opacity="0.45">
<path d="M67.5 327C76.6127 327 84 319.613 84 310.5C84 301.387 76.6127 294 67.5 294C58.3873 294 51 301.387 51 310.5C51 319.613 58.3873 327 67.5 327Z" fill="#D7DFFF"/>
<path d="M78.6845 322.627C75.6415 320.127 71.7463 318.626 67.5005 318.626C63.2543 318.626 59.3588 320.127 56.3156 322.628C56.3156 322.628 60.3102 327 67.5005 327C74.6909 327 78.6845 322.627 78.6845 322.627Z" fill="#192866"/>
<path d="M56.1049 311.308H61.726C61.726 308.962 63.6276 307.06 65.9732 307.06H69.7716C72.1173 307.06 74.0189 308.962 74.0189 311.308H78.8951" stroke="#525FA3" stroke-width="4.10288" stroke-miterlimit="10"/>
<rect x="91" y="305.291" width="64" height="10.4186" rx="2.97674" fill="black" fill-opacity="0.2"/>
</g>
<g opacity="0.35">
<path d="M67.5 372C76.6127 372 84 364.613 84 355.5C84 346.387 76.6127 339 67.5 339C58.3873 339 51 346.387 51 355.5C51 364.613 58.3873 372 67.5 372Z" fill="#DEFFDF"/>
<path d="M78.6841 367.627C75.641 365.127 71.7458 363.626 67.5001 363.626C63.2539 363.626 59.3583 365.127 56.3152 367.628C56.3152 367.628 60.3097 372 67.5001 372C74.6904 372 78.6841 367.627 78.6841 367.627Z" fill="#007203"/>
<path d="M61.6784 360.114V356.707C61.6784 353.506 64.2978 350.886 67.4996 350.886C70.701 350.886 73.3204 353.506 73.3204 356.707V360.114" stroke="#75C675" stroke-width="4.10288" stroke-miterlimit="10"/>
<rect x="91" y="345.291" width="64" height="10.4186" rx="2.97674" fill="black" fill-opacity="0.2"/>
<rect x="91" y="358.709" width="79" height="7" rx="2" fill="black" fill-opacity="0.1"/>
</g>
<path d="M227.846 166.087C228.208 165.487 227.911 165 227.184 165L221.817 165C221.089 165 220.793 165.487 221.154 166.087L223.845 170.55C224.207 171.15 224.793 171.15 225.155 170.55L227.846 166.087Z" fill="#B5B5B5"/>
<path d="M227.846 366.087C228.208 365.487 227.911 365 227.184 365L221.817 365C221.089 365 220.793 365.487 221.154 366.087L223.845 370.55C224.207 371.15 224.793 371.15 225.155 370.55L227.846 366.087Z" fill="#B5B5B5"/>
<path d="M241.587 245.655C240.987 245.293 240.5 245.589 240.5 246.316V251.684C240.5 252.412 240.987 252.708 241.587 252.346L246.05 249.656C246.65 249.294 246.65 248.707 246.05 248.345L241.587 245.655Z" fill="#B5B5B5"/>
<path opacity="0.4" d="M262.846 277.087C263.208 276.486 262.911 276 262.184 276L256.817 276C256.089 276 255.793 276.486 256.154 277.087L258.845 281.549C259.207 282.15 259.793 282.15 260.155 281.549L262.846 277.087Z" fill="#B5B5B5"/>
<path opacity="0.2" d="M278.846 307.087C279.208 306.486 278.911 306 278.184 306L272.817 306C272.089 306 271.793 306.486 272.154 307.087L274.845 311.549C275.207 312.15 275.793 312.15 276.155 311.549L278.846 307.087Z" fill="#B5B5B5"/>
<path d="M243.322 233.644C250.68 233.644 256.644 227.68 256.644 220.322C256.644 212.965 250.68 207 243.322 207C235.965 207 230 212.965 230 220.322C230 227.68 235.965 233.644 243.322 233.644Z" fill="#DEFFDF"/>
<path d="M252.352 230.114C249.895 228.096 246.75 226.884 243.322 226.884C239.894 226.884 236.749 228.096 234.292 230.115C234.292 230.115 237.517 233.645 243.322 233.645C249.128 233.645 252.352 230.114 252.352 230.114Z" fill="#007203"/>
<path d="M238.622 224.047V221.297C238.622 218.712 240.737 216.597 243.322 216.597C245.907 216.597 248.022 218.712 248.022 221.297V224.047" stroke="#75C675" stroke-width="3.3127" stroke-miterlimit="10"/>
<path d="M260.5 234C267.956 234 274 227.956 274 220.5C274 213.044 267.956 207 260.5 207C253.044 207 247 213.044 247 220.5C247 227.956 253.044 234 260.5 234Z" fill="#FFE3E3"/>
<path d="M269.651 230.422C267.161 228.377 263.974 227.149 260.5 227.149C257.026 227.149 253.839 228.377 251.349 230.423C251.349 230.423 254.617 234 260.5 234C266.383 234 269.651 230.422 269.651 230.422Z" fill="#5B0000"/>
<path d="M265.262 215.947V218.734C265.262 221.353 263.119 223.496 260.499 223.496C260.336 223.496 260.174 223.488 260.014 223.472C256.837 223.146 255.301 219.36 257.125 216.738L259.785 212.912" stroke="#FF7373" stroke-width="4.10288" stroke-miterlimit="10"/>
<path d="M243.322 411.644C250.68 411.644 256.644 405.68 256.644 398.322C256.644 390.965 250.68 385 243.322 385C235.965 385 230 390.965 230 398.322C230 405.68 235.965 411.644 243.322 411.644Z" fill="#E3DEFF"/>
<path d="M252.352 408.114C249.895 406.096 246.75 404.884 243.322 404.884C239.894 404.884 236.749 406.096 234.292 408.115C234.292 408.115 237.517 411.645 243.322 411.645C249.128 411.645 252.352 408.114 252.352 408.114Z" fill="#040072"/>
<path d="M238.622 402.048V399.297C238.622 396.713 240.737 394.598 243.322 394.598C245.907 394.598 248.022 396.713 248.022 399.297V402.048" stroke="#7579C6" stroke-width="3.3127" stroke-miterlimit="10"/>
<path d="M260.5 412C267.956 412 274 405.956 274 398.5C274 391.044 267.956 385 260.5 385C253.044 385 247 391.044 247 398.5C247 405.956 253.044 412 260.5 412Z" fill="#FCFFE3"/>
<path d="M269.651 408.422C267.161 406.377 263.974 405.149 260.5 405.149C257.026 405.149 253.839 406.377 251.349 408.423C251.349 408.423 254.617 412 260.5 412C266.383 412 269.651 408.422 269.651 408.422Z" fill="#5B3B00"/>
<path d="M265.262 393.947V396.734C265.262 399.353 263.119 401.496 260.499 401.496C260.336 401.496 260.174 401.488 260.014 401.472C256.837 401.146 255.301 397.36 257.125 394.738L259.785 390.912" stroke="#EBC268" stroke-width="4.10288" stroke-miterlimit="10"/>
<rect x="279" y="212" width="51.6741" height="8.41206" rx="2.40345" fill="#252525" fill-opacity="0.28"/>
<rect x="279" y="222.834" width="63.7852" height="5.65185" rx="1.61481" fill="#252525" fill-opacity="0.12"/>
<rect x="284" y="391" width="51.6741" height="8.41206" rx="2.40345" fill="#252525" fill-opacity="0.28"/>
<rect x="284" y="401.834" width="63.7852" height="5.65185" rx="1.61481" fill="#252525" fill-opacity="0.12"/>
<g opacity="0.25">
<path d="M68 418C77.3888 418 85 410.389 85 401C85 391.611 77.3888 384 68 384C58.6112 384 51 391.611 51 401C51 410.389 58.6112 418 68 418Z" fill="#F2F2F2"/>
<path d="M79.5235 413.495C76.3883 410.919 72.375 409.373 68.0006 409.373C63.6258 409.373 59.6122 410.919 56.4768 413.496C56.4768 413.496 60.5924 418 68.0006 418C75.4089 418 79.5235 413.495 79.5235 413.495Z" fill="#2F3135"/>
<path d="M73.1212 393.893H62.8793V404.135H73.1212V393.893Z" stroke="#8C8C8C" stroke-width="3.5087" stroke-miterlimit="10"/>
<rect x="92" y="395.791" width="64" height="10.4186" rx="2.97674" fill="black" fill-opacity="0.2"/>
</g>
<g opacity="0.15">
<path d="M67.5 462C76.6127 462 84 454.613 84 445.5C84 436.387 76.6127 429 67.5 429C58.3873 429 51 436.387 51 445.5C51 454.613 58.3873 462 67.5 462Z" fill="#FFC7D4"/>
<path d="M62.3015 448.435C68.0436 448.435 72.6985 443.78 72.6985 438.038" stroke="#FF4D6F" stroke-width="4.10288" stroke-miterlimit="10"/>
<path d="M56.3153 457.627C59.3583 455.127 63.2535 453.626 67.4993 453.626C71.7455 453.626 75.641 455.128 78.6842 457.628C78.6842 457.628 74.6896 462 67.4993 462C60.3089 462 56.3153 457.627 56.3153 457.627Z" fill="#BC133C"/>
<rect x="91" y="435.291" width="64" height="10.4186" rx="2.97674" fill="black" fill-opacity="0.2"/>
<rect x="91" y="448.709" width="79" height="7" rx="2" fill="black" fill-opacity="0.1"/>
</g>
<rect x="51" y="91" width="33" height="33" rx="16.5" fill="url(#paint6_linear_2092_83)"/>
<path d="M59.163 99.2431C58.504 101.811 59.1971 107.009 67.2421 107.254C67.208 103.879 65.5445 97.5523 59.163 99.2431Z" fill="url(#paint7_linear_2092_83)"/>
<path d="M75.837 99.2431C76.496 101.811 75.8029 107.009 67.7579 107.254C67.792 103.879 69.4555 97.5523 75.837 99.2431Z" fill="url(#paint8_linear_2092_83)"/>
<path d="M59.1631 115.757C58.504 113.189 59.1972 107.991 67.2422 107.746C67.2081 111.121 65.5445 117.447 59.1631 115.757Z" fill="url(#paint9_linear_2092_83)"/>
<path d="M75.837 115.757C76.496 113.189 75.8029 107.991 67.7579 107.746C67.792 111.121 69.4555 117.447 75.837 115.757Z" fill="url(#paint10_linear_2092_83)"/>
<rect x="91" y="99" width="79" height="7" rx="2" fill="black" fill-opacity="0.1"/>
<rect x="91" y="109" width="43" height="7" rx="2" fill="black" fill-opacity="0.2"/>
<rect x="137" y="109" width="18" height="7" rx="2" fill="black" fill-opacity="0.05"/>
<rect x="234" y="83" width="70" height="6" rx="1.14656" fill="url(#paint11_linear_2092_83)"/>
<rect x="356" y="83" width="70" height="6" rx="1.14656" fill="#F2F2F2"/>
<rect x="787" y="84" width="70" height="6" rx="1.14656" fill="#E8EEFF"/>
<rect x="476" y="83" width="70" height="6" rx="1.14656" fill="#F2F2F2"/>
<rect x="234" y="92" width="35" height="6" rx="1.14656" fill="#FFE5C4"/>
<rect x="356" y="92" width="35" height="6" rx="1.14656" fill="#E5E5E5"/>
<rect x="212" y="116" width="108" height="18" rx="3" fill="#003AC2" fill-opacity="0.04"/>
<rect x="213" y="117" width="106" height="16" rx="2" stroke="#003AC2" stroke-opacity="0.08" stroke-width="2"/>
<rect x="219" y="122" width="50" height="6" rx="1.14656" fill="#003AC2" fill-opacity="0.28"/>
<rect x="219.048" y="122.048" width="49.9045" height="5.90445" rx="1.09878" stroke="#003AC2" stroke-opacity="0.08" stroke-width="0.0955463"/>
<rect x="272" y="122" width="19" height="6" rx="1.14656" fill="#003AC2" fill-opacity="0.09"/>
<rect x="272.048" y="122.048" width="18.9045" height="5.90445" rx="1.09878" stroke="#003AC2" stroke-opacity="0.08" stroke-width="0.0955463"/>
<rect x="328" y="116" width="108" height="18" rx="3" fill="#003AC2" fill-opacity="0.04"/>
<rect x="329" y="117" width="106" height="16" rx="2" stroke="#003AC2" stroke-opacity="0.08" stroke-width="2"/>
<rect x="335" y="122" width="50" height="6" rx="1.14656" fill="#003AC2" fill-opacity="0.28"/>
<rect x="335.048" y="122.048" width="49.9045" height="5.90445" rx="1.09878" stroke="#003AC2" stroke-opacity="0.08" stroke-width="0.0955463"/>
<rect x="444" y="116" width="108" height="18" rx="3" fill="black" fill-opacity="0.04"/>
<rect x="445" y="117" width="106" height="16" rx="2" stroke="black" stroke-opacity="0.08" stroke-width="2"/>
<rect x="451" y="122" width="50" height="6" rx="1.14656" fill="black" fill-opacity="0.28"/>
<rect x="451.048" y="122.048" width="49.9045" height="5.90445" rx="1.09878" stroke="black" stroke-opacity="0.08" stroke-width="0.0955463"/>
<rect x="560" y="116" width="108" height="18" rx="3" fill="black" fill-opacity="0.04"/>
<rect x="561" y="117" width="106" height="16" rx="2" stroke="black" stroke-opacity="0.08" stroke-width="2"/>
<rect x="567" y="122" width="50" height="6" rx="1.14656" fill="black" fill-opacity="0.28"/>
<rect x="567.048" y="122.048" width="49.9045" height="5.90445" rx="1.09878" stroke="black" stroke-opacity="0.08" stroke-width="0.0955463"/>
<rect x="620" y="122" width="19" height="6" rx="1.14656" fill="black" fill-opacity="0.09"/>
<rect x="620.048" y="122.048" width="18.9045" height="5.90445" rx="1.09878" stroke="black" stroke-opacity="0.08" stroke-width="0.0955463"/>
<rect x="676" y="116" width="108" height="18" rx="3" fill="#C27100" fill-opacity="0.04"/>
<rect x="677" y="117" width="106" height="16" rx="2" stroke="#C27100" stroke-opacity="0.08" stroke-width="2"/>
<rect x="683" y="122" width="50" height="6" rx="1.14656" fill="#C27100" fill-opacity="0.28"/>
<rect x="683.048" y="122.048" width="49.9045" height="5.90445" rx="1.09878" stroke="#C27100" stroke-opacity="0.08" stroke-width="0.0955463"/>
<rect x="736" y="122" width="19" height="6" rx="1.14656" fill="#C27100" fill-opacity="0.09"/>
<rect x="736.048" y="122.048" width="18.9045" height="5.90445" rx="1.09878" stroke="#C27100" stroke-opacity="0.08" stroke-width="0.0955463"/>
<rect x="235" y="158" width="108" height="18" rx="3" fill="#6700C2" fill-opacity="0.04"/>
<rect x="236" y="159" width="106" height="16" rx="2" stroke="#6700C2" stroke-opacity="0.08" stroke-width="2"/>
<rect x="242" y="164" width="50" height="6" rx="1.14656" fill="#6700C2" fill-opacity="0.28"/>
<rect x="242.048" y="164.048" width="49.9045" height="5.90445" rx="1.09878" stroke="#6700C2" stroke-opacity="0.08" stroke-width="0.0955463"/>
<rect x="295" y="164" width="19" height="6" rx="1.14656" fill="#6700C2" fill-opacity="0.09"/>
<rect x="295.048" y="164.048" width="18.9045" height="5.90445" rx="1.09878" stroke="#6700C2" stroke-opacity="0.08" stroke-width="0.0955463"/>
<rect x="235" y="358" width="108" height="18" rx="3" fill="#00C2B2" fill-opacity="0.04"/>
<rect x="236" y="359" width="106" height="16" rx="2" stroke="#00C2B2" stroke-opacity="0.08" stroke-width="2"/>
<rect x="242" y="364" width="50" height="6" rx="1.14656" fill="#00C2B2" fill-opacity="0.28"/>
<rect x="242.048" y="364.048" width="49.9045" height="5.90445" rx="1.09878" stroke="#00C2B2" stroke-opacity="0.08" stroke-width="0.0955463"/>
<rect x="295" y="364" width="19" height="6" rx="1.14656" fill="#00C2B2" fill-opacity="0.09"/>
<rect x="295.048" y="364.048" width="18.9045" height="5.90445" rx="1.09878" stroke="#00C2B2" stroke-opacity="0.08" stroke-width="0.0955463"/>
<rect x="352" y="358" width="108" height="18" rx="3" fill="#C2C200" fill-opacity="0.04"/>
<rect x="353" y="359" width="106" height="16" rx="2" stroke="#C2C200" stroke-opacity="0.08" stroke-width="2"/>
<rect x="359" y="364" width="50" height="6" rx="1.14656" fill="#C2C200" fill-opacity="0.28"/>
<rect x="359.048" y="364.048" width="49.9045" height="5.90445" rx="1.09878" stroke="#C2C200" stroke-opacity="0.08" stroke-width="0.0955463"/>
<rect x="412" y="364" width="19" height="6" rx="1.14656" fill="#C2C200" fill-opacity="0.09"/>
<rect x="412.048" y="364.048" width="18.9045" height="5.90445" rx="1.09878" stroke="#C2C200" stroke-opacity="0.08" stroke-width="0.0955463"/>
<rect x="272" y="240" width="452" height="18" rx="3" fill="#252525" fill-opacity="0.04"/>
<rect x="273" y="241" width="450" height="16" rx="2" stroke="#252525" stroke-opacity="0.08" stroke-width="2"/>
<rect x="279" y="246" width="209.259" height="6" rx="1.14656" fill="#252525" fill-opacity="0.28"/>
<rect x="279.048" y="246.048" width="209.164" height="5.90445" rx="1.09878" stroke="#252525" stroke-opacity="0.08" stroke-width="0.0955463"/>
<rect x="221" y="432" width="262" height="18" rx="3" fill="#252525" fill-opacity="0.04"/>
<rect x="222" y="433" width="260" height="16" rx="2" stroke="#252525" stroke-opacity="0.08" stroke-width="2"/>
<rect x="225.058" y="438" width="121.296" height="6" rx="1.14656" fill="#252525" fill-opacity="0.28"/>
<rect x="225.105" y="438.048" width="121.201" height="5.90445" rx="1.09878" stroke="#252525" stroke-opacity="0.08" stroke-width="0.0955463"/>
<rect x="349.681" y="438" width="46.0926" height="6" rx="1.14656" fill="#252525" fill-opacity="0.09"/>
<rect x="349.729" y="438.048" width="45.997" height="5.90445" rx="1.09878" stroke="#252525" stroke-opacity="0.08" stroke-width="0.0955463"/>
<g opacity="0.5">
<rect x="221" y="456" width="283" height="18" rx="3" fill="#252525" fill-opacity="0.04"/>
<rect x="222" y="457" width="281" height="16" rx="2" stroke="#252525" stroke-opacity="0.08" stroke-width="2"/>
<rect x="225.383" y="462" width="131.019" height="6" rx="1.14656" fill="#252525" fill-opacity="0.28"/>
<rect x="225.431" y="462.048" width="130.923" height="5.90445" rx="1.09878" stroke="#252525" stroke-opacity="0.08" stroke-width="0.0955463"/>
<rect x="359.996" y="462" width="49.787" height="6" rx="1.14656" fill="#252525" fill-opacity="0.09"/>
<rect x="360.043" y="462.048" width="49.6915" height="5.90445" rx="1.09878" stroke="#252525" stroke-opacity="0.08" stroke-width="0.0955463"/>
</g>
<g opacity="0.2">
<rect x="221" y="483" width="196" height="18" rx="3" fill="#252525" fill-opacity="0.04"/>
<rect x="222" y="484" width="194" height="16" rx="2" stroke="#252525" stroke-opacity="0.08" stroke-width="2"/>
<rect x="224.035" y="489" width="90.7407" height="6" rx="1.14656" fill="#252525" fill-opacity="0.28"/>
<rect x="224.083" y="489.048" width="90.6452" height="5.90445" rx="1.09878" stroke="#252525" stroke-opacity="0.08" stroke-width="0.0955463"/>
<rect x="317.265" y="489" width="34.4815" height="6" rx="1.14656" fill="#252525" fill-opacity="0.09"/>
<rect x="317.313" y="489.048" width="34.3859" height="5.90445" rx="1.09878" stroke="#252525" stroke-opacity="0.08" stroke-width="0.0955463"/>
</g>
<g opacity="0.4">
<rect x="288" y="270" width="452" height="18" rx="3" fill="#252525" fill-opacity="0.04"/>
<rect x="289" y="271" width="450" height="16" rx="2" stroke="#252525" stroke-opacity="0.08" stroke-width="2"/>
<rect x="295" y="276" width="122" height="6" rx="1.14656" fill="#252525" fill-opacity="0.28"/>
<rect x="295.048" y="276.048" width="121.904" height="5.90445" rx="1.09878" stroke="#252525" stroke-opacity="0.08" stroke-width="0.0955463"/>
</g>
<g opacity="0.4">
<g opacity="0.2">
<rect x="304" y="300" width="452" height="18" rx="3" fill="#252525" fill-opacity="0.04"/>
<rect x="305" y="301" width="450" height="16" rx="2" stroke="#252525" stroke-opacity="0.08" stroke-width="2"/>
</g>
<rect x="311" y="306" width="209.259" height="6" rx="1.14656" fill="#252525" fill-opacity="0.28"/>
<rect x="311.048" y="306.048" width="209.164" height="5.90445" rx="1.09878" stroke="#252525" stroke-opacity="0.08" stroke-width="0.0955463"/>
<rect x="526" y="306" width="79.5185" height="6" rx="1.14656" fill="#252525" fill-opacity="0.09"/>
<rect x="526.048" y="306.048" width="79.423" height="5.90445" rx="1.09878" stroke="#252525" stroke-opacity="0.08" stroke-width="0.0955463"/>
</g>
<rect x="787" y="93" width="35" height="6" rx="1.14656" fill="#CDDAFF"/>
<rect x="476" y="92" width="35" height="6" rx="1.14656" fill="#F2F2F2"/>
<circle cx="259" cy="249" r="6" stroke="#B5B5B5" stroke-width="2"/>
<circle opacity="0.4" cx="275" cy="279" r="6" stroke="#B5B5B5" stroke-width="2"/>
<circle opacity="0.2" cx="291" cy="309" r="6" stroke="#B5B5B5" stroke-width="2"/>
<defs>
<filter id="filter1_f_2092_83" x="0" y="0" width="904" height="105" filterUnits="userSpaceOnUse" color-interpolation-filters="sRGB">
<feFlood flood-opacity="0" result="BackgroundImageFix"/>
<feBlend mode="normal" in="SourceGraphic" in2="BackgroundImageFix" result="shape"/>
<feGaussianBlur stdDeviation="16" result="effect1_foregroundBlur_2092_83"/>
</filter>
<filter id="filter2_d_2092_83" x="100.893" y="36.8926" width="30.2147" height="30.2147" filterUnits="userSpaceOnUse" color-interpolation-filters="sRGB">
<feFlood flood-opacity="0" result="BackgroundImageFix"/>
<feColorMatrix in="SourceAlpha" type="matrix" values="0 0 0 0 0 0 0 0 0 0 0 0 0 0 0 0 0 0 127 0" result="hardAlpha"/>
<feOffset/>
<feGaussianBlur stdDeviation="1.05368"/>
<feComposite in2="hardAlpha" operator="out"/>
<feColorMatrix type="matrix" values="0 0 0 0 0 0 0 0 0 0 0 0 0 0 0 0 0 0 0.25 0"/>
<feBlend mode="normal" in2="BackgroundImageFix" result="effect1_dropShadow_2092_83"/>
<feBlend mode="normal" in="SourceGraphic" in2="effect1_dropShadow_2092_83" result="shape"/>
</filter>
<linearGradient id="paint0_linear_2092_83" x1="-11" y1="-41" x2="270" y2="282" gradientUnits="userSpaceOnUse">
<stop stop-color="white" stop-opacity="0.56"/>
<stop offset="1" stop-color="white" stop-opacity="0"/>
</linearGradient>
<linearGradient id="paint1_linear_2092_83" x1="93.5" y1="41" x2="4" y2="-13" gradientUnits="userSpaceOnUse">
<stop stop-opacity="0.23"/>
<stop offset="0.25" stop-color="#EE704A" stop-opacity="0.8"/>
<stop offset="0.5" stop-color="#F53A8B" stop-opacity="0.6"/>
<stop offset="0.75" stop-color="#7B40E4" stop-opacity="0.3"/>
<stop offset="1" stop-color="#3D9BFC"/>
</linearGradient>
<linearGradient id="paint2_linear_2092_83" x1="122.897" y1="41.6547" x2="108.241" y2="62.6326" gradientUnits="userSpaceOnUse">
<stop stop-color="#DDD24C"/>
<stop offset="0.25" stop-color="#EE704A"/>
<stop offset="0.5" stop-color="#F53A8B"/>
<stop offset="0.75" stop-color="#7B40E4"/>
<stop offset="1" stop-color="#3D9BFC"/>
</linearGradient>
<linearGradient id="paint3_linear_2092_83" x1="872" y1="90" x2="755" y2="90" gradientUnits="userSpaceOnUse">
<stop stop-color="#0044EB" stop-opacity="0.06"/>
<stop offset="1" stop-color="white" stop-opacity="0"/>
</linearGradient>
<linearGradient id="paint4_linear_2092_83" x1="221" y1="82" x2="221" y2="100" gradientUnits="userSpaceOnUse">
<stop stop-color="#FFE4C2"/>
<stop offset="1" stop-color="#F7EFE5"/>
</linearGradient>
<linearGradient id="paint5_linear_2092_83" x1="221" y1="84.4351" x2="221" y2="97.565" gradientUnits="userSpaceOnUse">
<stop stop-color="#CF9DFA"/>
<stop offset="1" stop-color="#674188"/>
</linearGradient>
<linearGradient id="paint6_linear_2092_83" x1="67.5" y1="91" x2="67.5" y2="124" gradientUnits="userSpaceOnUse">
<stop stop-color="#ECF3FF"/>
<stop offset="0.332182" stop-color="#E6EDF8"/>
<stop offset="1" stop-color="#DBE2EB"/>
</linearGradient>
<linearGradient id="paint7_linear_2092_83" x1="63.1078" y1="98.9612" x2="63.1078" y2="107.254" gradientUnits="userSpaceOnUse">
<stop stop-color="#9DAED7"/>
<stop offset="1" stop-color="#262B38"/>
</linearGradient>
<linearGradient id="paint8_linear_2092_83" x1="71.8922" y1="98.9612" x2="71.8922" y2="107.254" gradientUnits="userSpaceOnUse">
<stop stop-color="#9DAED7"/>
<stop offset="1" stop-color="#262B38"/>
</linearGradient>
<linearGradient id="paint9_linear_2092_83" x1="63.1078" y1="116.039" x2="63.1078" y2="107.746" gradientUnits="userSpaceOnUse">
<stop stop-color="#9DAED7"/>
<stop offset="1" stop-color="#262B38"/>
</linearGradient>
<linearGradient id="paint10_linear_2092_83" x1="71.8922" y1="116.039" x2="71.8922" y2="107.746" gradientUnits="userSpaceOnUse">
<stop stop-color="#9DAED7"/>
<stop offset="1" stop-color="#262B38"/>
</linearGradient>
<linearGradient id="paint11_linear_2092_83" x1="304" y1="86" x2="234" y2="86" gradientUnits="userSpaceOnUse">
<stop stop-color="#FFE4C2"/>
<stop offset="1" stop-color="#F7EFE5"/>
</linearGradient>
<clipPath id="clip0_2092_83">
<rect width="12" height="12" fill="white" transform="translate(840 47)"/>
</clipPath>
</defs>
</svg>
