<svg width="276" height="63" viewBox="0 0 276 63" fill="none" xmlns="http://www.w3.org/2000/svg">
<path d="M42.6221 2.71289C53.9353 7.2382 61.9266 18.2993 61.9268 31.2266L61.917 32.0186C61.4967 48.6074 47.9166 61.9266 31.2266 61.9268L30.4473 61.917C29.9972 61.9055 29.5497 61.8822 29.1045 61.8516L57.6104 25.459L57.6094 25.458C57.8605 25.1639 57.9833 24.7985 57.9834 24.4043L57.9766 24.252C57.9092 23.4971 57.3463 22.8438 56.5332 22.8438H36.9707L42.6221 2.71289ZM31.2266 0.526367C32.3044 0.526378 33.3695 0.583472 34.4189 0.692383L6.09863 35.374C5.84017 35.6728 5.71887 36.0546 5.71875 36.4482L5.72559 36.5986C5.78839 37.2943 6.28162 37.9098 7 37.9893L7.1582 37.9971H25.3809L20.3555 59.9424C8.76608 55.5526 0.526499 44.3524 0.526367 31.2266L0.537109 30.4336C0.951102 14.1086 14.1086 0.951102 30.4336 0.537109L31.2266 0.526367Z" fill="url(#paint0_linear_2008_2353)" stroke="url(#paint1_linear_2008_2353)" stroke-width="1.0536"/>
<path d="M76.1504 50.2452V44.7862L97.4778 18.5476H76.3265V11.6016H107.907V17.0606L86.5989 43.2796H108.122V50.2452H76.1504Z" fill="white"/>
<path d="M135.505 46.6653C133.744 48.1034 131.929 49.1502 130.065 49.8155C128.211 50.4661 126.142 50.7938 123.862 50.7938C121.681 50.7938 119.646 50.4074 117.758 49.6394C115.865 48.8714 114.226 47.8295 112.847 46.5088C111.462 45.1783 110.371 43.6032 109.579 41.7737C108.796 39.9491 108.405 37.9876 108.405 35.8842C108.405 33.8249 108.777 31.8878 109.52 30.073C110.274 28.2484 111.32 26.6635 112.651 25.3184C113.981 23.9781 115.552 22.9215 117.366 22.1486C119.191 21.3659 121.133 20.9746 123.197 20.9746C125.217 20.9746 127.101 21.3757 128.852 22.1682C130.598 22.9655 132.105 24.0465 133.372 25.4162C134.648 26.7761 135.646 28.4001 136.365 30.2882C137.08 32.1813 137.442 34.2309 137.442 36.4321V38.4279H116.016C116.535 40.228 117.528 41.6857 118.99 42.7912C120.463 43.9016 122.199 44.4543 124.195 44.4543C125.447 44.4543 126.621 44.2538 127.717 43.8477C128.823 43.4466 129.762 42.8694 130.535 42.1259L135.505 46.6653ZM123.021 27.2163C121.299 27.2163 119.812 27.7446 118.56 28.8012C117.308 29.848 116.437 31.2568 115.958 33.0275H130.045C129.561 31.335 128.681 29.9458 127.404 28.8599C126.137 27.7642 124.674 27.2163 123.021 27.2163Z" fill="white"/>
<path d="M139.75 50.2458V21.4832H147.322V23.7333C148.428 22.8235 149.655 22.1289 151.001 21.6593C152.341 21.1799 153.803 20.9353 155.383 20.9353C158.695 20.9353 161.415 22.0066 163.543 24.1442C165.68 26.272 166.752 29.0113 166.752 32.3621V50.2458H159.199V33.4578C159.199 31.6577 158.651 30.2098 157.555 29.1141C156.469 28.0086 155.031 27.4509 153.231 27.4509C151.979 27.4509 150.844 27.7004 149.827 28.1944C148.819 28.6934 147.987 29.3978 147.322 30.3076V50.2458H139.75Z" fill="white"/>
<path d="M172.776 41.637L175.711 27.8231H169.899L171.23 21.4836H177.022L178.567 14.1266L186.355 12.4243L184.418 21.4836H192.44L191.109 27.8231H183.107L180.387 40.4239C180.098 41.8229 180.231 42.8256 180.778 43.4371C181.336 44.0387 182.407 44.3371 183.987 44.3371C184.574 44.3371 185.142 44.3078 185.69 44.2393C186.247 44.161 186.854 44.0436 187.509 43.8871L186.198 50.031C185.533 50.1777 184.701 50.3098 183.713 50.4419C182.72 50.569 181.801 50.6375 180.954 50.6375C177.746 50.6375 175.427 49.8549 174.008 48.2896C172.6 46.7242 172.189 44.5083 172.776 41.637Z" fill="white"/>
<path d="M187.691 50.2458L193.815 21.4832H201.211L200.605 24.3007C201.671 23.1952 202.845 22.3588 204.127 21.7962C205.418 21.2239 206.778 20.9353 208.216 20.9353C208.959 20.9353 209.649 21.0038 210.29 21.131C210.941 21.2484 211.449 21.4391 211.816 21.6984L210.427 28.3314C210.06 28.0722 209.458 27.8422 208.627 27.6466C207.805 27.4411 207.042 27.3335 206.338 27.3335C204.978 27.3335 203.676 27.6661 202.424 28.3314C201.172 28.9869 200.086 29.9359 199.176 31.1881L195.146 50.2458H187.691Z" fill="white"/>
<path d="M234.617 47.2715C232.841 48.5238 231.085 49.4385 229.353 50.0108C227.632 50.5685 225.738 50.8522 223.679 50.8522C221.576 50.8522 219.629 50.5098 217.829 49.8347C216.029 49.1597 214.483 48.2107 213.191 46.9976C211.9 45.7747 210.892 44.317 210.178 42.6343C209.459 40.9418 209.102 39.0928 209.102 37.097C209.102 34.9349 209.513 32.8657 210.335 30.8944C211.166 28.928 212.282 27.2159 213.681 25.768C215.075 24.3103 216.718 23.1559 218.611 22.3048C220.514 21.4585 222.534 21.033 224.677 21.033C226.555 21.033 228.302 21.3852 229.921 22.0895C231.535 22.7842 232.914 23.7429 234.049 24.9658C235.194 26.1789 236.089 27.6415 236.73 29.3487C237.38 31.0607 237.708 32.9049 237.708 34.886C237.708 35.3067 237.689 35.742 237.65 36.1969C237.61 36.6567 237.537 37.3807 237.434 38.3688H216.44C216.777 40.208 217.653 41.7049 219.061 42.8495C220.48 43.9844 222.202 44.5518 224.227 44.5518C225.44 44.5518 226.58 44.3708 227.651 44.0039C228.717 43.642 229.657 43.1234 230.469 42.4582L234.617 47.2715ZM224.286 27.3333C222.627 27.3333 221.135 27.8616 219.805 28.9182C218.484 29.965 217.535 31.3347 216.948 33.0272H230.743C230.415 31.3347 229.671 29.965 228.512 28.9182C227.348 27.8616 225.939 27.3333 224.286 27.3333Z" fill="white"/>
<path d="M264.099 47.2715C262.323 48.5238 260.567 49.4385 258.835 50.0108C257.113 50.5685 255.22 50.8522 253.161 50.8522C251.058 50.8522 249.111 50.5098 247.311 49.8347C245.51 49.1597 243.965 48.2107 242.673 46.9976C241.382 45.7747 240.374 44.317 239.66 42.6343C238.941 40.9418 238.584 39.0928 238.584 37.097C238.584 34.9349 238.995 32.8657 239.817 30.8944C240.648 28.928 241.764 27.2159 243.163 25.768C244.557 24.3103 246.2 23.1559 248.093 22.3048C249.996 21.4585 252.016 21.033 254.159 21.033C256.037 21.033 257.784 21.3852 259.403 22.0895C261.017 22.7842 262.396 23.7429 263.531 24.9658C264.676 26.1789 265.571 27.6415 266.212 29.3487C266.862 31.0607 267.19 32.9049 267.19 34.886C267.19 35.3067 267.171 35.742 267.131 36.1969C267.092 36.6567 267.019 37.3807 266.916 38.3688H245.921C246.259 40.208 247.135 41.7049 248.543 42.8495C249.962 43.9844 251.684 44.5518 253.709 44.5518C254.922 44.5518 256.062 44.3708 257.133 44.0039C258.199 43.642 259.139 43.1234 259.951 42.4582L264.099 47.2715ZM253.768 27.3333C252.109 27.3333 250.617 27.8616 249.287 28.9182C247.966 29.965 247.017 31.3347 246.43 33.0272H260.224C259.897 31.3347 259.153 29.965 257.994 28.9182C256.83 27.8616 255.421 27.3333 253.768 27.3333Z" fill="white"/>
<path d="M271.373 41.8518C272.478 41.8518 273.393 42.2334 274.112 42.9867C274.826 43.7449 275.188 44.6694 275.188 45.7651C275.188 47.0956 274.689 48.2696 273.701 49.287C272.708 50.2898 271.568 50.7937 270.277 50.7937C269.167 50.7937 268.232 50.4219 267.479 49.6784C266.736 48.9251 266.364 47.9908 266.364 46.8804C266.364 45.5107 266.858 44.3318 267.851 43.3389C268.839 42.3507 270.013 41.8518 271.373 41.8518Z" fill="white"/>
<defs>
<linearGradient id="paint0_linear_2008_2353" x1="56.2082" y1="-6.24535" x2="-15.2772" y2="120.683" gradientUnits="userSpaceOnUse">
<stop stop-color="#DDD24C"/>
<stop offset="0.25" stop-color="#EE704A"/>
<stop offset="0.5" stop-color="#F53A8B"/>
<stop offset="0.75" stop-color="#7B40E4"/>
<stop offset="1" stop-color="#3D9BFC"/>
</linearGradient>
<linearGradient id="paint1_linear_2008_2353" x1="10.536" y1="-11.0168" x2="31.608" y2="93.2897" gradientUnits="userSpaceOnUse">
<stop stop-color="white" stop-opacity="0.52"/>
<stop offset="1" stop-color="white" stop-opacity="0"/>
</linearGradient>
</defs>
</svg>
