<svg width="82" height="82" viewBox="0 0 82 82" fill="none" xmlns="http://www.w3.org/2000/svg">
<rect x="1.48111" y="8.56448" width="72.8749" height="72.8749" rx="8.40865" fill="white" stroke="#EDEDED" stroke-width="1.12115"/>
<rect x="17.4072" y="23.6885" width="41.4827" height="41.4827" rx="7.19596" fill="#4350E2"/>
<path fill-rule="evenodd" clip-rule="evenodd" d="M26.6852 41.2634V51.4745H29.8762C30.2114 51.4745 30.5433 51.5405 30.8531 51.6688C31.1628 51.7971 31.4442 51.9851 31.6812 52.2222C31.9183 52.4592 32.1063 52.7407 32.2346 53.0504C32.3629 53.3601 32.4289 53.692 32.4289 54.0273V57.2182H40.0873L49.6602 47.6453V37.4342H46.4692C46.134 37.4342 45.8021 37.3682 45.4923 37.2399C45.1826 37.1116 44.9012 36.9235 44.6642 36.6865C44.4271 36.4495 44.2391 36.168 44.1107 35.8583C43.9825 35.5486 43.9164 35.2166 43.9164 34.8814V31.6904H36.2581L26.6852 41.2634ZM37.5345 50.8363H33.0671V43.8161L38.8109 38.0724H43.2783V45.0925L37.5345 50.8363Z" fill="white"/>
</svg>
