<svg width="436" height="260" viewBox="0 0 436 260" fill="none" xmlns="http://www.w3.org/2000/svg">
<path d="M294.497 5.00718C294.497 2.24179 296.739 0 299.504 0H430.734C433.499 0 435.741 2.24179 435.741 5.00718V33.2977C435.741 36.0631 433.499 38.3049 430.734 38.3049H299.504C296.739 38.3049 294.497 36.0631 294.497 33.2977V5.00718Z" fill="white" fill-opacity="0.97"/>
<rect x="304.511" y="7.51074" width="23.2834" height="23.2834" rx="1.48309" fill="url(#paint0_linear_2008_2333)"/>
<path d="M313.483 16.5761C314.886 15.1287 315.607 13.5785 316.123 10.905C316.182 10.5964 316.187 10.5924 316.213 10.8239C316.387 12.3562 317.087 14.2359 317.967 15.5323C318.441 16.2306 319.506 17.2763 320.198 17.7221C321.284 18.4217 322.495 18.8663 323.873 19.0715L324.555 19.173L323.825 19.279C321.887 19.5598 320.24 20.3631 318.93 21.6664C317.622 22.9679 316.626 24.991 316.281 27.0483C316.22 27.4118 316.166 27.6786 316.161 27.6409C316.157 27.6033 316.08 27.216 315.992 26.7801C315.528 24.5067 314.379 22.4171 312.93 21.2124C311.646 20.1458 309.902 19.4036 308.319 19.2504L307.751 19.1954L308.563 19.0572C310.66 18.7003 312.156 17.9458 313.483 16.5761Z" fill="url(#paint1_linear_2008_2333)"/>
<rect x="334.054" y="9.8667" width="86.6659" height="7.42851" rx="1.41953" fill="url(#paint2_linear_2008_2333)"/>
<rect x="334.054" y="21.0098" width="43.333" height="7.42851" rx="1.41953" fill="#FFE5C4"/>
<rect width="141.745" height="38.8056" rx="5.00718" fill="white" fill-opacity="0.97"/>
<rect x="10.0143" y="7.51074" width="23.7843" height="23.7841" rx="2.50359" fill="url(#paint3_linear_2008_2333)"/>
<ellipse cx="26.0258" cy="23.0111" rx="3.3361" ry="3.33612" transform="rotate(90 26.0258 23.0111)" fill="url(#paint4_linear_2008_2333)"/>
<ellipse cx="21.6658" cy="15.7948" rx="3.3361" ry="3.33612" transform="rotate(90 21.6658 15.7948)" fill="url(#paint5_linear_2008_2333)"/>
<ellipse cx="17.7867" cy="23.0111" rx="3.3361" ry="3.33612" transform="rotate(90 17.7867 23.0111)" fill="url(#paint6_linear_2008_2333)"/>
<rect x="40.0574" y="10.1169" width="86.6659" height="7.42851" rx="2.50359" fill="url(#paint7_linear_2008_2333)"/>
<rect x="40.0575" y="21.26" width="43.333" height="7.42851" rx="1.41953" fill="#B8E9DF"/>
<rect y="54" width="436" height="197" rx="5.00718" fill="white" fill-opacity="0.97"/>
<rect x="76.3762" y="71.5771" width="47.5" height="5.84615" rx="1.46154" fill="black" fill-opacity="0.1"/>
<rect x="126.799" y="71.5771" width="28.5" height="5.84615" rx="1.46154" fill="#CCCCCC"/>
<rect x="260" y="67" width="162.448" height="13.329" rx="1.66613" fill="black" fill-opacity="0.05"/>
<rect x="263.333" y="70.332" width="6.66451" height="6.66451" rx="1.66613" fill="black" fill-opacity="0.2"/>
<rect x="272.496" y="70.332" width="85.8056" height="6.66451" rx="1.66613" fill="black" fill-opacity="0.1"/>
<g filter="url(#filter0_d_2008_2333)">
<rect x="51.5299" y="65" width="18.9996" height="18.9996" rx="9.4998" fill="white" shape-rendering="crispEdges"/>
<path d="M63.2573 68.6062C65.6372 69.5061 67.3294 71.8048 67.3295 74.4998C67.3295 77.9791 64.5091 80.7996 61.0297 80.7996C60.8158 80.7996 60.6044 80.7882 60.3959 80.7673L66.269 73.2712C66.3033 73.2328 66.3217 73.1826 66.3217 73.1238C66.3217 73.0059 66.2405 72.9148 66.1352 72.9148H62.0483L63.2573 68.6062ZM61.0297 68.2C61.3175 68.2 61.6008 68.2202 61.8784 68.2576L56.0424 75.4041C56.0081 75.4426 55.9897 75.4946 55.9897 75.5535C55.9897 75.6691 56.071 75.7595 56.1743 75.7595H59.9838L58.9135 80.4343C56.4754 79.5647 54.7299 77.2365 54.7299 74.4998C54.73 71.0205 57.5505 68.2001 61.0297 68.2Z" fill="url(#paint8_linear_2008_2333)"/>
</g>
<circle cx="16.3846" cy="75.2127" r="4.20192" fill="#FF5E5D" stroke="#E14942" stroke-width="0.365385"/>
<circle cx="28.8077" cy="75.2127" r="4.20192" fill="#FFBC4F" stroke="#E1A325" stroke-width="0.365385"/>
<circle cx="41.2307" cy="75.2127" r="4.20192" fill="#22CB58" stroke="#3EAF3F" stroke-width="0.365385"/>
<line y1="95.5" x2="436" y2="95.5" stroke="#EFEFEF"/>
<rect x="12" y="112" width="156" height="148" rx="8" fill="#F3F3F3"/>
<rect x="180" y="112" width="156" height="148" rx="8" fill="#F3F3F3"/>
<rect x="18" y="147" width="138" height="33" rx="4" fill="white"/>
<rect x="186" y="147" width="138" height="99" rx="4" fill="white"/>
<path d="M186 151C186 148.791 187.791 147 190 147H320C322.209 147 324 148.791 324 151V192H186V151Z" fill="#D9FEFF"/>
<rect x="18" y="192" width="138" height="33" rx="4" fill="white"/>
<g filter="url(#filter1_d_2008_2333)">
<rect x="103.556" y="167" width="45.4444" height="16.6939" rx="5.56463" fill="white" shape-rendering="crispEdges"/>
<rect x="103.787" y="167.232" width="44.9807" height="16.2302" rx="5.33277" stroke="#E0E0E0" stroke-width="0.463719" shape-rendering="crispEdges"/>
<path d="M111.903 178.593H109.584V176.274M113.757 172.101H116.076V174.419" stroke="#888888" stroke-width="0.695578" stroke-linecap="round" stroke-linejoin="round"/>
<path d="M128.026 172.18C128.32 171.888 128.795 171.888 129.089 172.181L129.908 173.001C130.202 173.294 130.202 173.77 129.91 174.064L125.199 178.798L123.291 178.798L123.291 176.893L128.026 172.18Z" stroke="#888888" stroke-width="0.695578" stroke-linecap="round" stroke-linejoin="round"/>
<path d="M127.428 172.779L129.309 174.66" stroke="#888888" stroke-width="0.695578" stroke-linecap="round"/>
<path d="M137.871 174.489C138.107 174.489 138.308 174.573 138.476 174.741C138.645 174.91 138.729 175.111 138.728 175.347L138.724 175.434C138.706 175.633 138.624 175.805 138.476 175.952C138.308 176.121 138.107 176.205 137.871 176.204L137.784 176.2C137.585 176.182 137.412 176.1 137.264 175.952C137.096 175.784 137.012 175.583 137.013 175.347L137.016 175.26C137.035 175.061 137.118 174.888 137.265 174.74C137.413 174.593 137.585 174.51 137.784 174.492L137.871 174.489ZM140.653 174.489C140.889 174.489 141.09 174.573 141.259 174.741C141.427 174.91 141.511 175.111 141.511 175.347L141.507 175.434C141.488 175.633 141.406 175.805 141.259 175.952C141.09 176.121 140.889 176.205 140.653 176.204L140.566 176.2C140.367 176.182 140.195 176.1 140.047 175.952C139.878 175.784 139.795 175.583 139.795 175.347L139.799 175.26C139.817 175.061 139.9 174.888 140.048 174.74C140.195 174.593 140.367 174.51 140.566 174.492L140.653 174.489ZM143.435 174.489C143.672 174.489 143.872 174.573 144.041 174.741C144.21 174.91 144.293 175.111 144.293 175.347L144.289 175.434C144.271 175.633 144.188 175.805 144.041 175.952C143.872 176.121 143.671 176.205 143.435 176.204L143.348 176.2C143.149 176.182 142.977 176.1 142.829 175.952C142.66 175.784 142.577 175.583 142.577 175.347L142.581 175.26C142.599 175.061 142.682 174.888 142.83 174.74C142.978 174.593 143.15 174.51 143.348 174.492L143.435 174.489Z" fill="#888888" stroke="white" stroke-width="0.139116"/>
</g>
<g filter="url(#filter2_d_2008_2333)">
<rect x="285" y="167" width="31.5329" height="16.6939" rx="5.56463" fill="white" shape-rendering="crispEdges"/>
<rect x="285.232" y="167.232" width="31.0692" height="16.2302" rx="5.33277" stroke="#E0E0E0" stroke-width="0.463719" shape-rendering="crispEdges"/>
<path d="M295.559 172.18C295.853 171.888 296.328 171.888 296.622 172.181L297.441 173.001C297.734 173.294 297.735 173.77 297.443 174.064L292.732 178.798L290.824 178.798L290.824 176.893L295.559 172.18Z" stroke="#888888" stroke-width="0.695578" stroke-linecap="round" stroke-linejoin="round"/>
<path d="M294.961 172.779L296.842 174.66" stroke="#888888" stroke-width="0.695578" stroke-linecap="round"/>
<path d="M305.404 174.489C305.64 174.489 305.84 174.573 306.009 174.741C306.178 174.91 306.262 175.111 306.261 175.347L306.257 175.434C306.239 175.633 306.157 175.805 306.009 175.952C305.84 176.121 305.64 176.205 305.404 176.204L305.317 176.2C305.118 176.182 304.945 176.1 304.797 175.952C304.629 175.784 304.545 175.583 304.545 175.347L304.549 175.26C304.568 175.061 304.65 174.888 304.798 174.74C304.946 174.593 305.118 174.51 305.317 174.492L305.404 174.489ZM308.186 174.489C308.422 174.489 308.623 174.573 308.792 174.741C308.96 174.91 309.044 175.111 309.043 175.347L309.04 175.434C309.021 175.633 308.939 175.805 308.792 175.952C308.623 176.121 308.422 176.205 308.186 176.204L308.099 176.2C307.9 176.182 307.727 176.1 307.58 175.952C307.411 175.784 307.327 175.583 307.328 175.347L307.332 175.26C307.35 175.061 307.433 174.888 307.581 174.74C307.728 174.593 307.9 174.51 308.099 174.492L308.186 174.489ZM310.968 174.489C311.205 174.489 311.405 174.573 311.574 174.741C311.743 174.91 311.826 175.111 311.826 175.347L311.822 175.434C311.803 175.633 311.721 175.805 311.574 175.952C311.405 176.121 311.204 176.205 310.968 176.204L310.881 176.2C310.682 176.182 310.51 176.1 310.362 175.952C310.193 175.784 310.11 175.583 310.11 175.347L310.114 175.26C310.132 175.061 310.215 174.888 310.363 174.74C310.511 174.593 310.683 174.51 310.881 174.492L310.968 174.489Z" fill="#888888" stroke="white" stroke-width="0.139116"/>
</g>
<g filter="url(#filter3_d_2008_2333)">
<rect x="103.556" y="212" width="45.4444" height="16.6939" rx="5.56463" fill="white" shape-rendering="crispEdges"/>
<rect x="103.787" y="212.232" width="44.9807" height="16.2302" rx="5.33277" stroke="#E0E0E0" stroke-width="0.463719" shape-rendering="crispEdges"/>
<path d="M111.903 223.593H109.584V221.274M113.757 217.101H116.076V219.419" stroke="#888888" stroke-width="0.695578" stroke-linecap="round" stroke-linejoin="round"/>
<path d="M128.026 217.18C128.32 216.888 128.795 216.888 129.089 217.181L129.908 218.001C130.202 218.294 130.202 218.77 129.91 219.064L125.199 223.798L123.291 223.798L123.291 221.893L128.026 217.18Z" stroke="#888888" stroke-width="0.695578" stroke-linecap="round" stroke-linejoin="round"/>
<path d="M127.428 217.779L129.309 219.66" stroke="#888888" stroke-width="0.695578" stroke-linecap="round"/>
<path d="M137.871 219.489C138.107 219.489 138.308 219.573 138.476 219.741C138.645 219.91 138.729 220.111 138.728 220.347L138.724 220.434C138.706 220.633 138.624 220.805 138.476 220.952C138.308 221.121 138.107 221.205 137.871 221.204L137.784 221.2C137.585 221.182 137.412 221.1 137.264 220.952C137.096 220.784 137.012 220.583 137.013 220.347L137.016 220.26C137.035 220.061 137.118 219.888 137.265 219.74C137.413 219.593 137.585 219.51 137.784 219.492L137.871 219.489ZM140.653 219.489C140.889 219.489 141.09 219.573 141.259 219.741C141.427 219.91 141.511 220.111 141.511 220.347L141.507 220.434C141.488 220.633 141.406 220.805 141.259 220.952C141.09 221.121 140.889 221.205 140.653 221.204L140.566 221.2C140.367 221.182 140.195 221.1 140.047 220.952C139.878 220.784 139.795 220.583 139.795 220.347L139.799 220.26C139.817 220.061 139.9 219.888 140.048 219.74C140.195 219.593 140.367 219.51 140.566 219.492L140.653 219.489ZM143.435 219.489C143.672 219.489 143.872 219.573 144.041 219.741C144.21 219.91 144.293 220.111 144.293 220.347L144.289 220.434C144.271 220.633 144.188 220.805 144.041 220.952C143.872 221.121 143.671 221.205 143.435 221.204L143.348 221.2C143.149 221.182 142.977 221.1 142.829 220.952C142.66 220.784 142.577 220.583 142.577 220.347L142.581 220.26C142.599 220.061 142.682 219.888 142.83 219.74C142.978 219.593 143.15 219.51 143.348 219.492L143.435 219.489Z" fill="#888888" stroke="white" stroke-width="0.139116"/>
</g>
<rect x="25" y="154.844" width="88.4174" height="4.31304" rx="0.882437" fill="#252525" fill-opacity="0.28"/>
<rect x="25.0368" y="154.88" width="88.3438" height="4.23951" rx="0.845669" stroke="#252525" stroke-opacity="0.08" stroke-width="0.0735364"/>
<rect x="193" y="154.844" width="88.4174" height="4.31304" rx="0.882437" fill="#252525" fill-opacity="0.28"/>
<rect x="193.037" y="154.88" width="88.3438" height="4.23951" rx="0.845669" stroke="#252525" stroke-opacity="0.08" stroke-width="0.0735364"/>
<rect x="193" y="200" width="88.4174" height="4.31304" rx="0.882437" fill="#252525" fill-opacity="0.28"/>
<rect x="193.037" y="200.037" width="88.3438" height="4.23951" rx="0.845669" stroke="#252525" stroke-opacity="0.08" stroke-width="0.0735364"/>
<rect x="193" y="208.156" width="73" height="4" rx="0.882437" fill="#252525" fill-opacity="0.28"/>
<rect x="193.037" y="208.193" width="72.9265" height="3.92646" rx="0.845669" stroke="#252525" stroke-opacity="0.08" stroke-width="0.0735364"/>
<rect x="193" y="216.156" width="30" height="4" rx="0.882437" fill="#252525" fill-opacity="0.28"/>
<rect x="193.037" y="216.193" width="29.9265" height="3.92646" rx="0.845669" stroke="#252525" stroke-opacity="0.08" stroke-width="0.0735364"/>
<rect x="193" y="224.156" width="61" height="4" rx="0.882437" fill="#252525" fill-opacity="0.28"/>
<rect x="193.037" y="224.193" width="60.9265" height="3.92646" rx="0.845669" stroke="#252525" stroke-opacity="0.08" stroke-width="0.0735364"/>
<rect x="193" y="232" width="50" height="4" rx="0.882437" fill="#252525" fill-opacity="0.28"/>
<rect x="193.037" y="232.037" width="49.9265" height="3.92646" rx="0.845669" stroke="#252525" stroke-opacity="0.08" stroke-width="0.0735364"/>
<rect x="193" y="240" width="88.4174" height="4.31304" rx="0.882437" fill="#252525" fill-opacity="0.28"/>
<rect x="193.037" y="240.037" width="88.3438" height="4.23951" rx="0.845669" stroke="#252525" stroke-opacity="0.08" stroke-width="0.0735364"/>
<rect x="25" y="199.844" width="88.4174" height="4.31304" rx="0.882437" fill="#252525" fill-opacity="0.28"/>
<rect x="25.0368" y="199.88" width="88.3438" height="4.23951" rx="0.845669" stroke="#252525" stroke-opacity="0.08" stroke-width="0.0735364"/>
<rect x="115.574" y="154.844" width="33.4261" height="4.31304" rx="0.882437" fill="#252525" fill-opacity="0.09"/>
<rect x="115.611" y="154.88" width="33.3526" height="4.23951" rx="0.845669" stroke="#252525" stroke-opacity="0.08" stroke-width="0.0735364"/>
<rect x="283.574" y="154.844" width="33.4261" height="4.31304" rx="0.882437" fill="#252525" fill-opacity="0.09"/>
<rect x="283.611" y="154.88" width="33.3526" height="4.23951" rx="0.845669" stroke="#252525" stroke-opacity="0.08" stroke-width="0.0735364"/>
<rect x="283.574" y="200" width="33.4261" height="4.31304" rx="0.882437" fill="#252525" fill-opacity="0.09"/>
<rect x="283.611" y="200.037" width="33.3526" height="4.23951" rx="0.845669" stroke="#252525" stroke-opacity="0.08" stroke-width="0.0735364"/>
<rect x="268" y="208.156" width="27" height="4" rx="0.882437" fill="#252525" fill-opacity="0.09"/>
<rect x="268.037" y="208.193" width="26.9265" height="3.92646" rx="0.845669" stroke="#252525" stroke-opacity="0.08" stroke-width="0.0735364"/>
<rect x="224" y="216.156" width="11" height="4" rx="0.882437" fill="#252525" fill-opacity="0.09"/>
<rect x="224.037" y="216.193" width="10.9265" height="3.92646" rx="0.845669" stroke="#252525" stroke-opacity="0.08" stroke-width="0.0735364"/>
<rect x="237" y="216.156" width="11" height="4" rx="0.882437" fill="#252525" fill-opacity="0.09"/>
<rect x="237.037" y="216.193" width="10.9265" height="3.92646" rx="0.845669" stroke="#252525" stroke-opacity="0.08" stroke-width="0.0735364"/>
<rect x="256" y="224.156" width="23" height="4" rx="0.882437" fill="#252525" fill-opacity="0.09"/>
<rect x="256.037" y="224.193" width="22.9265" height="3.92646" rx="0.845669" stroke="#252525" stroke-opacity="0.08" stroke-width="0.0735364"/>
<rect x="245" y="232" width="69" height="4" rx="0.882437" fill="#252525" fill-opacity="0.09"/>
<rect x="245.037" y="232.037" width="68.9265" height="3.92646" rx="0.845669" stroke="#252525" stroke-opacity="0.08" stroke-width="0.0735364"/>
<rect x="283.574" y="240" width="33.4261" height="4.31304" rx="0.882437" fill="#252525" fill-opacity="0.09"/>
<rect x="283.611" y="240.037" width="33.3526" height="4.23951" rx="0.845669" stroke="#252525" stroke-opacity="0.08" stroke-width="0.0735364"/>
<rect x="115.574" y="199.844" width="33.4261" height="4.31304" rx="0.882437" fill="#252525" fill-opacity="0.09"/>
<rect x="115.611" y="199.88" width="33.3526" height="4.23951" rx="0.845669" stroke="#252525" stroke-opacity="0.08" stroke-width="0.0735364"/>
<rect x="21" y="120" width="66" height="11" rx="1.83333" fill="#6700C2" fill-opacity="0.08"/>
<rect x="21.6111" y="120.611" width="64.7778" height="9.77778" rx="1.22222" stroke="#6700C2" stroke-opacity="0.2" stroke-width="1.22222"/>
<rect x="25.2778" y="123.667" width="30.5556" height="3.66667" rx="0.700673" fill="#6700C2" fill-opacity="0.28"/>
<rect x="25.307" y="123.696" width="30.4972" height="3.60828" rx="0.671478" stroke="#6700C2" stroke-opacity="0.14" stroke-width="0.0583894"/>
<rect x="57.6667" y="123.667" width="11.6111" height="3.66667" rx="0.700673" fill="#6700C2" fill-opacity="0.09"/>
<rect x="57.6959" y="123.696" width="11.5527" height="3.60828" rx="0.671478" stroke="#6700C2" stroke-opacity="0.14" stroke-width="0.0583894"/>
<rect x="189" y="120" width="66" height="11" rx="1.83333" fill="#C20003" fill-opacity="0.08"/>
<rect x="189.611" y="120.611" width="64.7778" height="9.77778" rx="1.22222" stroke="#C20003" stroke-opacity="0.2" stroke-width="1.22222"/>
<rect x="193.278" y="123.667" width="30.5556" height="3.66667" rx="0.700673" fill="#C20003" fill-opacity="0.28"/>
<rect x="193.307" y="123.696" width="30.4972" height="3.60828" rx="0.671478" stroke="#C20003" stroke-opacity="0.14" stroke-width="0.0583894"/>
<rect x="225.667" y="123.667" width="11.6111" height="3.66667" rx="0.700673" fill="#C20003" fill-opacity="0.09"/>
<rect x="225.696" y="123.696" width="11.5527" height="3.60828" rx="0.671478" stroke="#C20003" stroke-opacity="0.14" stroke-width="0.0583894"/>
<line x1="12" y1="138.5" x2="168" y2="138.5" stroke="#E7E7E7"/>
<line x1="180" y1="138.5" x2="336" y2="138.5" stroke="#E7E7E7"/>
<line x1="186" y1="191.5" x2="324" y2="191.5" stroke="#E7E7E7"/>
<path d="M33.3881 183.776C38.0207 183.776 41.7761 180.021 41.7761 175.388C41.7761 170.755 38.0207 167 33.3881 167C28.7555 167 25 170.755 25 175.388C25 180.021 28.7555 183.776 33.3881 183.776Z" fill="#DEFFDF"/>
<path d="M39.0737 181.553C37.5267 180.282 35.5465 179.519 33.3881 179.519C31.2295 179.519 29.2491 180.282 27.7021 181.554C27.7021 181.554 29.7328 183.776 33.3881 183.776C37.0435 183.776 39.0737 181.553 39.0737 181.553Z" fill="#007203"/>
<path d="M30.4286 177.733V176.002C30.4286 174.374 31.7602 173.042 33.388 173.042C35.0155 173.042 36.3471 174.374 36.3471 176.002V177.733" stroke="#75C675" stroke-width="2.08577" stroke-miterlimit="10"/>
<path d="M44.2037 184C48.8981 184 52.7037 180.194 52.7037 175.5C52.7037 170.806 48.8981 167 44.2037 167C39.5093 167 35.7037 170.806 35.7037 175.5C35.7037 180.194 39.5093 184 44.2037 184Z" fill="#FFE3E3"/>
<path d="M49.965 181.747C48.3974 180.459 46.3908 179.686 44.2036 179.686C42.0161 179.686 40.0093 180.46 38.4417 181.748C38.4417 181.748 40.4994 184 44.2036 184C47.9077 184 49.965 181.747 49.965 181.747Z" fill="#5B0000"/>
<path d="M47.202 172.633V174.388C47.202 176.037 45.8527 177.386 44.2032 177.386C44.1002 177.386 43.9982 177.381 43.8978 177.371C41.8971 177.166 40.9304 174.782 42.0785 173.131L43.7532 170.722" stroke="#FF7373" stroke-width="2.5833" stroke-miterlimit="10"/>
<path d="M201.5 184C206.194 184 210 180.194 210 175.5C210 170.806 206.194 167 201.5 167C196.806 167 193 170.806 193 175.5C193 180.194 196.806 184 201.5 184Z" fill="#7EF6FF"/>
<path d="M207.261 181.747C205.694 180.459 203.687 179.686 201.5 179.686C199.313 179.686 197.306 180.46 195.738 181.748C195.738 181.748 197.796 184 201.5 184C205.204 184 207.261 181.747 207.261 181.747Z" fill="#003D5B"/>
<path d="M204.498 172.633V174.388C204.498 176.037 203.149 177.386 201.499 177.386C201.396 177.386 201.295 177.381 201.194 177.371C199.193 177.166 198.227 174.782 199.375 173.131L201.049 170.722" stroke="#25C9C9" stroke-width="2.5833" stroke-miterlimit="10"/>
<path d="M33.3881 228.776C38.0207 228.776 41.7761 225.021 41.7761 220.388C41.7761 215.755 38.0207 212 33.3881 212C28.7555 212 25 215.755 25 220.388C25 225.021 28.7555 228.776 33.3881 228.776Z" fill="#DEFFDF"/>
<path d="M39.0737 226.553C37.5267 225.282 35.5465 224.519 33.3881 224.519C31.2295 224.519 29.2491 225.282 27.7021 226.554C27.7021 226.554 29.7328 228.776 33.3881 228.776C37.0435 228.776 39.0737 226.553 39.0737 226.553Z" fill="#007203"/>
<path d="M30.4286 222.733V221.002C30.4286 219.374 31.7602 218.042 33.388 218.042C35.0155 218.042 36.3471 219.374 36.3471 221.002V222.733" stroke="#75C675" stroke-width="2.08577" stroke-miterlimit="10"/>
<g filter="url(#filter4_d_2008_2333)">
<path d="M148.004 5.00718C148.004 2.24179 150.246 0 153.011 0H283.49C286.255 0 288.497 2.24179 288.497 5.00718V32.5467C288.497 35.312 286.255 37.5538 283.49 37.5538H153.011C150.246 37.5538 148.004 35.312 148.004 32.5467V5.00718Z" fill="#FFF4F4" shape-rendering="crispEdges"/>
<rect x="158.018" y="7.51074" width="22.5323" height="22.5323" rx="1.43525" fill="url(#paint9_linear_2008_2333)"/>
<path d="M163.303 12.2117H175.214V25.4048V25.4048C168.636 25.4048 163.303 20.0721 163.303 13.4938V12.2117Z" fill="url(#paint10_linear_2008_2333)"/>
<rect x="186.81" y="9.49121" width="86.6659" height="7.42851" rx="1.43525" fill="url(#paint11_linear_2008_2333)"/>
<rect x="186.81" y="20.6343" width="43.333" height="7.42851" rx="1.41953" fill="#FFC7C7"/>
</g>
<defs>
<filter id="filter0_d_2008_2333" x="49.9899" y="63.46" width="22.0796" height="22.0795" filterUnits="userSpaceOnUse" color-interpolation-filters="sRGB">
<feFlood flood-opacity="0" result="BackgroundImageFix"/>
<feColorMatrix in="SourceAlpha" type="matrix" values="0 0 0 0 0 0 0 0 0 0 0 0 0 0 0 0 0 0 127 0" result="hardAlpha"/>
<feOffset/>
<feGaussianBlur stdDeviation="0.77"/>
<feComposite in2="hardAlpha" operator="out"/>
<feColorMatrix type="matrix" values="0 0 0 0 0 0 0 0 0 0 0 0 0 0 0 0 0 0 0.25 0"/>
<feBlend mode="normal" in2="BackgroundImageFix" result="effect1_dropShadow_2008_2333"/>
<feBlend mode="normal" in="SourceGraphic" in2="effect1_dropShadow_2008_2333" result="shape"/>
</filter>
<filter id="filter1_d_2008_2333" x="102.628" y="166.536" width="47.2993" height="18.5487" filterUnits="userSpaceOnUse" color-interpolation-filters="sRGB">
<feFlood flood-opacity="0" result="BackgroundImageFix"/>
<feColorMatrix in="SourceAlpha" type="matrix" values="0 0 0 0 0 0 0 0 0 0 0 0 0 0 0 0 0 0 127 0" result="hardAlpha"/>
<feOffset dy="0.463719"/>
<feGaussianBlur stdDeviation="0.463719"/>
<feComposite in2="hardAlpha" operator="out"/>
<feColorMatrix type="matrix" values="0 0 0 0 0 0 0 0 0 0 0 0 0 0 0 0 0 0 0.05 0"/>
<feBlend mode="normal" in2="BackgroundImageFix" result="effect1_dropShadow_2008_2333"/>
<feBlend mode="normal" in="SourceGraphic" in2="effect1_dropShadow_2008_2333" result="shape"/>
</filter>
<filter id="filter2_d_2008_2333" x="284.073" y="166.536" width="33.3877" height="18.5487" filterUnits="userSpaceOnUse" color-interpolation-filters="sRGB">
<feFlood flood-opacity="0" result="BackgroundImageFix"/>
<feColorMatrix in="SourceAlpha" type="matrix" values="0 0 0 0 0 0 0 0 0 0 0 0 0 0 0 0 0 0 127 0" result="hardAlpha"/>
<feOffset dy="0.463719"/>
<feGaussianBlur stdDeviation="0.463719"/>
<feComposite in2="hardAlpha" operator="out"/>
<feColorMatrix type="matrix" values="0 0 0 0 0 0 0 0 0 0 0 0 0 0 0 0 0 0 0.05 0"/>
<feBlend mode="normal" in2="BackgroundImageFix" result="effect1_dropShadow_2008_2333"/>
<feBlend mode="normal" in="SourceGraphic" in2="effect1_dropShadow_2008_2333" result="shape"/>
</filter>
<filter id="filter3_d_2008_2333" x="102.628" y="211.536" width="47.2993" height="18.5487" filterUnits="userSpaceOnUse" color-interpolation-filters="sRGB">
<feFlood flood-opacity="0" result="BackgroundImageFix"/>
<feColorMatrix in="SourceAlpha" type="matrix" values="0 0 0 0 0 0 0 0 0 0 0 0 0 0 0 0 0 0 127 0" result="hardAlpha"/>
<feOffset dy="0.463719"/>
<feGaussianBlur stdDeviation="0.463719"/>
<feComposite in2="hardAlpha" operator="out"/>
<feColorMatrix type="matrix" values="0 0 0 0 0 0 0 0 0 0 0 0 0 0 0 0 0 0 0.05 0"/>
<feBlend mode="normal" in2="BackgroundImageFix" result="effect1_dropShadow_2008_2333"/>
<feBlend mode="normal" in="SourceGraphic" in2="effect1_dropShadow_2008_2333" result="shape"/>
</filter>
<filter id="filter4_d_2008_2333" x="148.004" y="0" width="140.493" height="42.5609" filterUnits="userSpaceOnUse" color-interpolation-filters="sRGB">
<feFlood flood-opacity="0" result="BackgroundImageFix"/>
<feColorMatrix in="SourceAlpha" type="matrix" values="0 0 0 0 0 0 0 0 0 0 0 0 0 0 0 0 0 0 127 0" result="hardAlpha"/>
<feOffset dy="5.00718"/>
<feComposite in2="hardAlpha" operator="out"/>
<feColorMatrix type="matrix" values="0 0 0 0 0.971154 0 0 0 0 0.252126 0 0 0 0 0.407916 0 0 0 0.38 0"/>
<feBlend mode="normal" in2="BackgroundImageFix" result="effect1_dropShadow_2008_2333"/>
<feBlend mode="normal" in="SourceGraphic" in2="effect1_dropShadow_2008_2333" result="shape"/>
</filter>
<linearGradient id="paint0_linear_2008_2333" x1="316.153" y1="7.51074" x2="316.153" y2="30.7941" gradientUnits="userSpaceOnUse">
<stop stop-color="#FFE4C2"/>
<stop offset="1" stop-color="#F7EFE5"/>
</linearGradient>
<linearGradient id="paint1_linear_2008_2333" x1="316.153" y1="10.6606" x2="316.153" y2="27.6445" gradientUnits="userSpaceOnUse">
<stop stop-color="#CF9DFA"/>
<stop offset="1" stop-color="#674188"/>
</linearGradient>
<linearGradient id="paint2_linear_2008_2333" x1="420.72" y1="13.5809" x2="334.054" y2="13.5809" gradientUnits="userSpaceOnUse">
<stop stop-color="#FFE4C2"/>
<stop offset="1" stop-color="#F7EFE5"/>
</linearGradient>
<linearGradient id="paint3_linear_2008_2333" x1="21.9065" y1="7.51074" x2="21.9065" y2="31.2948" gradientUnits="userSpaceOnUse">
<stop stop-color="#DAFEF7"/>
<stop offset="1" stop-color="#DBF5F0"/>
</linearGradient>
<linearGradient id="paint4_linear_2008_2333" x1="26.0258" y1="19.675" x2="26.0258" y2="26.3473" gradientUnits="userSpaceOnUse">
<stop stop-color="#34A9BE"/>
<stop offset="1" stop-color="#37BEB0"/>
</linearGradient>
<linearGradient id="paint5_linear_2008_2333" x1="21.6658" y1="12.4587" x2="21.6658" y2="19.131" gradientUnits="userSpaceOnUse">
<stop stop-color="#34A9BE"/>
<stop offset="1" stop-color="#37BEB0"/>
</linearGradient>
<linearGradient id="paint6_linear_2008_2333" x1="17.7867" y1="19.675" x2="17.7867" y2="26.3473" gradientUnits="userSpaceOnUse">
<stop stop-color="#34A9BE"/>
<stop offset="1" stop-color="#37BEB0"/>
</linearGradient>
<linearGradient id="paint7_linear_2008_2333" x1="83.3904" y1="10.1169" x2="83.3904" y2="17.5454" gradientUnits="userSpaceOnUse">
<stop stop-color="#DAFEF7"/>
<stop offset="1" stop-color="#DBF5F0"/>
</linearGradient>
<linearGradient id="paint8_linear_2008_2333" x1="66.0696" y1="66.94" x2="55.3599" y2="82.2695" gradientUnits="userSpaceOnUse">
<stop stop-color="#DDD24C"/>
<stop offset="0.25" stop-color="#EE704A"/>
<stop offset="0.5" stop-color="#F53A8B"/>
<stop offset="0.75" stop-color="#7B40E4"/>
<stop offset="1" stop-color="#3D9BFC"/>
</linearGradient>
<linearGradient id="paint9_linear_2008_2333" x1="169.284" y1="7.51074" x2="169.284" y2="30.043" gradientUnits="userSpaceOnUse">
<stop stop-color="#FFF3F3"/>
<stop offset="1" stop-color="#FFD5D5"/>
</linearGradient>
<linearGradient id="paint10_linear_2008_2333" x1="173.068" y1="12.2117" x2="165.343" y2="24.5344" gradientUnits="userSpaceOnUse">
<stop stop-color="#FF98B7"/>
<stop offset="1" stop-color="#944E63"/>
</linearGradient>
<linearGradient id="paint11_linear_2008_2333" x1="230.143" y1="9.49121" x2="230.143" y2="16.9197" gradientUnits="userSpaceOnUse">
<stop stop-color="#FFEBEB"/>
<stop offset="1" stop-color="#FFD5D5"/>
</linearGradient>
</defs>
</svg>
