<svg width="125" height="125" viewBox="0 0 125 125" fill="none" xmlns="http://www.w3.org/2000/svg">
<path d="M81.2343 18.8084C81.2343 18.8084 93.3199 29.5389 93.1897 37.321C96.3559 37.04 99.6356 37.5196 102.759 38.8665C112.797 43.1947 117.425 54.8405 113.097 64.8777L98.9904 97.5909C94.6622 107.628 83.0164 112.256 72.9791 107.928C69.8553 106.581 67.2559 104.525 65.2869 102.029C59.717 107.466 51.2082 109.317 43.6176 106.044C36.0268 102.77 31.5309 95.3122 31.6617 87.5296C28.4956 87.8106 25.2162 87.3323 22.0925 85.9855C12.0553 81.6573 7.42703 70.0114 11.7552 59.9742L25.8615 27.261C30.1896 17.2238 41.8355 12.5955 51.8727 16.9237C54.9961 18.2706 57.5956 20.3264 59.5645 22.8215C65.1343 17.3848 81.2343 18.8084 81.2343 18.8084Z" fill="#3639FF"/>
<path d="M86.1037 53.7204C94.4637 57.3253 93.9987 69.9178 85.3668 73.6775L66.5646 81.8672C65.7016 82.2428 64.8836 81.3603 65.268 80.4683L70.4871 68.3649L72.6603 67.4182C74.3865 66.6662 74.4797 64.1476 72.8078 63.4266L53.8786 55.2641L70.0863 48.2056C71.1141 47.7579 72.2525 47.7476 73.248 48.1768L86.1037 53.7204ZM57.8011 41.7619C58.6642 41.386 59.4821 42.2694 59.0974 43.1615L53.8786 55.2641L51.7054 56.2109C49.9793 56.963 49.8867 59.4818 51.5587 60.2028L70.4871 68.3649L54.2795 75.4235C53.2517 75.8712 52.1139 75.8817 51.1185 75.4525L38.2621 69.9087C29.902 66.3036 30.367 53.7113 38.9989 49.9516L57.8011 41.7619Z" fill="white"/>
</svg>
