<svg width="12" height="13" viewBox="0 0 12 13" fill="none" xmlns="http://www.w3.org/2000/svg">
<path d="M0.185066 5.3638C0.439512 4.4142 1.23969 3.75675 2.15774 3.63805C2.07014 3.27029 2.07009 2.87607 2.1748 2.48527C2.51127 1.22954 3.80205 0.484308 5.05778 0.82078L9.15044 1.9174C10.4062 2.25388 11.1514 3.54466 10.8149 4.80039C10.7102 5.1912 10.513 5.53252 10.2532 5.80722C10.989 6.36904 11.3533 7.33849 11.0988 8.28813C10.8444 9.23779 10.0441 9.89532 9.126 10.014C9.21359 10.3817 9.21379 10.7759 9.10909 11.1667C8.77262 12.4224 7.48183 13.1676 6.22611 12.8312L2.13345 11.7345C0.87772 11.3981 0.132486 10.1073 0.468958 8.85155C0.57367 8.46079 0.770832 8.11948 1.03055 7.8448C0.294822 7.28298 -0.0693835 6.31342 0.185066 5.3638Z" fill="#A1D8FF"/>
</svg>
