<svg width="24" height="26" viewBox="0 0 24 26" fill="none" xmlns="http://www.w3.org/2000/svg">
<path d="M21.2662 18.0226C19.7182 16.6986 18.1472 15.8966 16.6182 17.2186L15.7052 18.0176C15.0372 18.5976 13.7952 21.3076 8.99321 15.7836C4.1922 10.2666 7.04921 9.40765 7.71821 8.83265L8.63621 8.03265C10.1572 6.70765 9.58321 5.03965 8.48621 3.32265L7.82421 2.28265C6.72221 0.569645 5.52221 -0.555354 3.99721 0.767645L3.17321 1.48765C2.49921 1.97865 0.615205 3.57465 0.158205 6.60665C-0.391795 10.2446 1.34321 14.4106 5.31821 18.9816C9.28821 23.5546 13.1752 25.8516 16.8572 25.8116C19.9172 25.7786 21.7652 24.1366 22.3432 23.5396L23.1702 22.8186C24.6912 21.4966 23.7462 20.1506 22.1972 18.8236L21.2662 18.0226Z" fill="#363470"/>
</svg>
