<svg width="20" height="20" viewBox="0 0 20 20" fill="none" xmlns="http://www.w3.org/2000/svg">
<rect width="20" height="20" rx="4.51613" fill="url(#paint0_linear_10_1225)"/>
<path d="M13.8009 9.80902C13.8078 9.2713 13.9506 8.74406 14.2161 8.27637C14.4815 7.80868 14.8609 7.41574 15.3191 7.13409C15.028 6.71845 14.6441 6.3764 14.1977 6.1351C13.7514 5.8938 13.2549 5.75989 12.7478 5.74403C11.666 5.63047 10.6172 6.39138 10.0659 6.39138C9.50392 6.39138 8.65513 5.7553 7.74113 5.77411C7.14992 5.79321 6.57375 5.96512 6.06874 6.27311C5.56374 6.58109 5.14712 7.01464 4.85949 7.53151C3.61353 9.6887 4.5429 12.859 5.73643 14.6028C6.33358 15.4566 7.03147 16.4104 7.94465 16.3765C8.83825 16.3395 9.172 15.8067 10.2506 15.8067C11.3193 15.8067 11.6324 16.3765 12.5641 16.355C13.523 16.3395 14.1271 15.4974 14.7033 14.6355C15.1324 14.0271 15.4625 13.3547 15.6816 12.6431C15.1245 12.4075 14.6491 12.0131 14.3146 11.5092C13.9802 11.0052 13.8015 10.4139 13.8009 9.80902Z" fill="white"/>
<path d="M12.0412 4.59719C12.5641 3.96956 12.8216 3.16286 12.7593 2.34839C11.9605 2.43228 11.2227 2.81403 10.6928 3.41758C10.4337 3.71242 10.2353 4.05544 10.1089 4.42702C9.98244 4.7986 9.93049 5.19145 9.95598 5.58312C10.3555 5.58724 10.7507 5.50064 11.1119 5.32986C11.4731 5.15908 11.7909 4.90857 12.0412 4.59719Z" fill="white"/>
<defs>
<linearGradient id="paint0_linear_10_1225" x1="10" y1="19.8474" x2="10" y2="0.0047143" gradientUnits="userSpaceOnUse">
<stop stop-color="#111111"/>
<stop offset="1" stop-color="#333333"/>
</linearGradient>
</defs>
</svg>
