<svg width="20" height="20" viewBox="0 0 20 20" fill="none" xmlns="http://www.w3.org/2000/svg">
<rect x="0.112903" y="0.112903" width="19.7742" height="19.7742" rx="4.40323" fill="white"/>
<rect x="0.112903" y="0.112903" width="19.7742" height="19.7742" rx="4.40323" stroke="#D6DCE5" stroke-width="0.225807"/>
<path d="M4.63571 3.06307C4.45516 3.27973 4.36402 3.55708 4.38089 3.83861V16.0921C4.36402 16.3736 4.45516 16.651 4.63571 16.8676L4.67449 16.9064L11.538 10.0484V9.88779L4.67449 3.02429L4.63571 3.06307Z" fill="url(#paint0_linear_10_1216)"/>
<path d="M13.8098 12.3362L11.5386 10.0484V9.88773L13.8098 7.59436L13.8596 7.62206L16.5796 9.16759C17.3551 9.60521 17.3551 10.3254 16.5796 10.7685L13.8707 12.3085L13.8098 12.3362Z" fill="url(#paint1_linear_10_1216)"/>
<path d="M13.8762 12.303L11.5385 9.96527L4.63623 16.8675C4.79431 17.0065 4.99596 17.0859 5.20635 17.0919C5.41673 17.098 5.62263 17.0304 5.78846 16.9008L13.8817 12.303" fill="url(#paint2_linear_10_1216)"/>
<path d="M13.8756 7.62756L5.78235 3.02974C5.61653 2.90012 5.41063 2.8325 5.20025 2.83857C4.98986 2.84464 4.7882 2.92401 4.63013 3.06298L11.5379 9.96525L13.8756 7.62756Z" fill="url(#paint3_linear_10_1216)"/>
<path opacity="0.2" d="M13.8097 12.2529L5.78292 16.8231C5.62298 16.9426 5.42865 17.0072 5.22896 17.0072C5.02927 17.0072 4.83494 16.9426 4.67501 16.8231L4.63623 16.8618L4.67501 16.9006C4.83458 17.021 5.02905 17.0862 5.22896 17.0862C5.42888 17.0862 5.62335 17.021 5.78292 16.9006L13.8762 12.3028L13.8097 12.2529Z" fill="black"/>
<path opacity="0.12" d="M4.63571 16.79C4.45516 16.5733 4.36402 16.296 4.38089 16.0145V16.0975C4.36402 16.3791 4.45516 16.6564 4.63571 16.8731L4.67449 16.8343L4.63571 16.79ZM16.579 10.6854L13.8092 12.2531L13.8591 12.303L16.579 10.763C16.7333 10.6905 16.8658 10.5785 16.963 10.4385C17.0603 10.2984 17.1189 10.1352 17.1329 9.96527C17.1018 10.1197 17.0356 10.2649 16.9396 10.3897C16.8436 10.5145 16.7202 10.6157 16.579 10.6854Z" fill="black"/>
<path opacity="0.25" d="M5.78253 3.10715L16.5791 9.24496C16.7203 9.31467 16.8437 9.41584 16.9397 9.54068C17.0358 9.66552 17.1019 9.81071 17.1331 9.9651C17.119 9.79517 17.0604 9.63194 16.9632 9.49188C16.8659 9.35183 16.7334 9.23991 16.5791 9.16741L5.78253 3.02959C5.007 2.59197 4.37549 2.95758 4.37549 3.84391V3.927C4.39211 3.03513 5.01254 2.66952 5.78253 3.10715Z" fill="white"/>
<defs>
<linearGradient id="paint0_linear_10_1216" x1="10.9286" y1="3.7112" x2="1.63328" y2="13.0066" gradientUnits="userSpaceOnUse">
<stop stop-color="#00A0FF"/>
<stop offset="0.01" stop-color="#00A1FF"/>
<stop offset="0.26" stop-color="#00BEFF"/>
<stop offset="0.51" stop-color="#00D2FF"/>
<stop offset="0.76" stop-color="#00DFFF"/>
<stop offset="1" stop-color="#00E3FF"/>
</linearGradient>
<linearGradient id="paint1_linear_10_1216" x1="17.5933" y1="9.96528" x2="4.19314" y2="9.96528" gradientUnits="userSpaceOnUse">
<stop stop-color="#FFE000"/>
<stop offset="0.41" stop-color="#FFBD00"/>
<stop offset="0.78" stop-color="#FFA500"/>
<stop offset="1" stop-color="#FF9C00"/>
</linearGradient>
<linearGradient id="paint2_linear_10_1216" x1="12.6076" y1="11.2394" x2="-0.000361426" y2="23.8418" gradientUnits="userSpaceOnUse">
<stop stop-color="#FF3A44"/>
<stop offset="1" stop-color="#C31162"/>
</linearGradient>
<linearGradient id="paint3_linear_10_1216" x1="2.89625" y1="-1.01413" x2="8.52443" y2="4.61405" gradientUnits="userSpaceOnUse">
<stop stop-color="#32A071"/>
<stop offset="0.07" stop-color="#2DA771"/>
<stop offset="0.48" stop-color="#15CF74"/>
<stop offset="0.8" stop-color="#06E775"/>
<stop offset="1" stop-color="#00F076"/>
</linearGradient>
</defs>
</svg>
