<svg width="16" height="19" viewBox="0 0 16 19" fill="none" xmlns="http://www.w3.org/2000/svg">
<path d="M12.0503 8.96668C11.9728 8.92951 11.8941 8.89375 11.8143 8.8595C11.6753 6.29948 10.2765 4.83387 7.92768 4.81887C7.91704 4.8188 7.90645 4.8188 7.89581 4.8188C6.49091 4.8188 5.32248 5.41848 4.60331 6.50971L5.89509 7.39585C6.43234 6.58074 7.27549 6.40697 7.89643 6.40697C7.9036 6.40697 7.9108 6.40697 7.9179 6.40704C8.69128 6.41197 9.27487 6.63683 9.65259 7.07534C9.92747 7.39458 10.1113 7.83574 10.2023 8.3925C9.51666 8.27596 8.77509 8.24013 7.98234 8.28558C5.74919 8.41422 4.31354 9.71664 4.40996 11.5264C4.45889 12.4444 4.91622 13.2341 5.69766 13.7501C6.35835 14.1862 7.20928 14.3995 8.09365 14.3512C9.26156 14.2871 10.1778 13.8416 10.817 13.0268C11.3024 12.408 11.6094 11.6062 11.745 10.5958C12.3016 10.9317 12.7141 11.3738 12.9419 11.9051C13.3293 12.8084 13.3519 14.2928 12.1407 15.5029C11.0796 16.563 9.804 17.0216 7.87627 17.0358C5.73789 17.02 4.12067 16.3342 3.0692 14.9975C2.08458 13.7458 1.57572 11.938 1.55674 9.62402C1.57572 7.31007 2.08458 5.50217 3.0692 4.25053C4.12067 2.91386 5.73787 2.22809 7.87624 2.2122C10.0301 2.22821 11.6755 2.91728 12.7673 4.2604C13.3026 4.91905 13.7062 5.74735 13.9722 6.71311L15.486 6.30923C15.1635 5.12048 14.656 4.09612 13.9655 3.24659C12.5659 1.52465 10.5189 0.642319 7.88152 0.624023H7.87096C5.2389 0.642255 3.21488 1.52794 1.85515 3.25646C0.645178 4.79462 0.0210375 6.93487 6.56247e-05 9.6177L0 9.62402L6.56247e-05 9.63035C0.0210375 12.3131 0.645178 14.4535 1.85515 15.9916C3.21488 17.7201 5.2389 18.6058 7.87096 18.624H7.88152C10.2216 18.6078 11.871 17.9951 13.2298 16.6376C15.0076 14.8615 14.9541 12.6352 14.3681 11.2685C13.9477 10.2884 13.1463 9.49242 12.0503 8.96668ZM8.01005 12.7653C7.0313 12.8204 6.01447 12.3811 5.96434 11.4401C5.92717 10.7425 6.46086 9.96396 8.07011 9.87122C8.25441 9.86059 8.43525 9.8554 8.61291 9.8554C9.19744 9.8554 9.74428 9.91218 10.2414 10.0209C10.056 12.3367 8.96831 12.7127 8.01005 12.7653Z" fill="white"/>
</svg>
