<svg width="572" height="431" viewBox="0 0 572 431" fill="none" xmlns="http://www.w3.org/2000/svg">
<rect x="13.5" y="13.5" width="877" height="537" rx="30.5" fill="white" fill-opacity="0.2"/>
<rect x="13.5" y="13.5" width="877" height="537" rx="30.5" stroke="url(#paint0_linear_69_2948)" stroke-width="3"/>
<rect x="32" y="32" width="840" height="500" rx="24" fill="white"/>
<g opacity="0.34" filter="url(#filter1_f_69_2948)">
<rect width="840" height="41" transform="translate(32 32)" fill="url(#paint1_linear_69_2948)"/>
</g>
<rect x="137" y="48" width="65" height="8" rx="2" fill="black" fill-opacity="0.1"/>
<rect x="206" y="48" width="39" height="8" rx="2" fill="#CCCCCC"/>
<rect x="347" y="44" width="195" height="16" rx="2" fill="black" fill-opacity="0.05"/>
<rect x="351" y="48" width="8" height="8" rx="2" fill="black" fill-opacity="0.2"/>
<rect x="362" y="48" width="103" height="8" rx="2" fill="black" fill-opacity="0.1"/>
<line x1="202.5" y1="72" x2="202.5" y2="532" stroke="black" stroke-opacity="0.1"/>
<line x1="243.5" y1="186" x2="243.5" y2="200" stroke="black" stroke-opacity="0.1"/>
<line x1="243.5" y1="258" x2="243.5" y2="279" stroke="black" stroke-opacity="0.1"/>
<line x1="259.5" y1="287" x2="259.5" y2="309" stroke="black" stroke-opacity="0.1"/>
<line x1="243" y1="278.5" x2="250" y2="278.5" stroke="black" stroke-opacity="0.1"/>
<line x1="260" y1="308.5" x2="267" y2="308.5" stroke="black" stroke-opacity="0.1"/>
<line x1="872" y1="72.5" x2="32" y2="72.5" stroke="black" stroke-opacity="0.1"/>
<g filter="url(#filter2_d_69_2948)">
<rect x="103" y="39" width="26" height="26" rx="13" fill="white" shape-rendering="crispEdges"/>
<path d="M119.049 43.9355C122.305 45.1673 124.621 48.3124 124.621 52C124.621 56.7612 120.761 60.6211 116 60.6211C115.708 60.6211 115.419 60.6056 115.134 60.5771L123.169 50.3184C123.216 50.2656 123.241 50.1969 123.241 50.1162C123.241 49.955 123.13 49.8311 122.986 49.8311H117.394L119.049 43.9355ZM116 43.3789C116.393 43.3789 116.78 43.408 117.159 43.459L109.175 53.2363C109.128 53.289 109.104 53.3608 109.104 53.4414C109.104 53.5996 109.214 53.7236 109.355 53.7236H114.568L113.104 60.1201C109.767 58.93 107.379 55.7449 107.379 52C107.379 47.2387 111.239 43.3789 116 43.3789Z" fill="url(#paint2_linear_69_2948)"/>
</g>
<circle cx="55" cy="53" r="5.75" fill="#FF5E5D" stroke="#E14942" stroke-width="0.5"/>
<circle cx="72" cy="53" r="5.75" fill="#FFBC4F" stroke="#E1A325" stroke-width="0.5"/>
<circle cx="89" cy="53" r="5.75" fill="#22CB58" stroke="#3EAF3F" stroke-width="0.5"/>
<line x1="202" y1="141.5" x2="32" y2="141.5" stroke="black" stroke-opacity="0.1"/>
<line x1="872" y1="108.5" x2="202" y2="108.5" stroke="black" stroke-opacity="0.1"/>
<line x1="318" y1="98" x2="318" y2="84" stroke="black" stroke-opacity="0.1" stroke-width="2"/>
<line x1="440" y1="98" x2="440" y2="84" stroke="black" stroke-opacity="0.1" stroke-width="2"/>
<rect x="212" y="82" width="18" height="18" rx="1.14656" fill="url(#paint3_linear_69_2948)"/>
<path d="M218.936 89.0082C220.02 87.8892 220.578 86.6908 220.976 84.624C221.022 84.3854 221.026 84.3823 221.046 84.5612C221.181 85.7459 221.722 87.199 222.402 88.2013C222.768 88.7411 223.592 89.5495 224.127 89.8941C224.966 90.435 225.903 90.7787 226.968 90.9373L227.496 91.0158L226.931 91.0977C225.433 91.3149 224.159 91.9359 223.147 92.9434C222.136 93.9496 221.366 95.5136 221.099 97.1041C221.051 97.3851 221.01 97.5914 221.006 97.5622C221.003 97.5331 220.944 97.2337 220.875 96.8967C220.517 95.1392 219.629 93.5238 218.508 92.5925C217.516 91.7679 216.168 91.1941 214.944 91.0756L214.504 91.0332L215.132 90.9263C216.753 90.6504 217.91 90.0671 218.936 89.0082Z" fill="url(#paint4_linear_69_2948)"/>
<rect x="334" y="82" width="18" height="18" rx="1.14656" fill="#E2E2E2"/>
<rect x="454" y="82" width="18" height="18" rx="1.14656" fill="#F2F2F2"/>
<line x1="872" y1="141.5" x2="202" y2="141.5" stroke="black" stroke-opacity="0.1"/>
<line x1="872" y1="341.5" x2="202" y2="341.5" stroke="black" stroke-opacity="0.1"/>
<path d="M67.5 192C76.6127 192 84 184.613 84 175.5C84 166.387 76.6127 159 67.5 159C58.3873 159 51 166.387 51 175.5C51 184.613 58.3873 192 67.5 192Z" fill="#EAD7FF"/>
<path d="M78.6845 187.627C75.6415 185.127 71.7463 183.626 67.5006 183.626C63.2544 183.626 59.3588 185.128 56.3157 187.628C56.3157 187.628 60.3102 192 67.5006 192C74.6909 192 78.6845 187.627 78.6845 187.627Z" fill="#53288C"/>
<path d="M74.1288 174.401H60.8713" stroke="#AF61F2" stroke-width="3.4055" stroke-miterlimit="10"/>
<rect x="91" y="165.291" width="64" height="10.4186" rx="2.97674" fill="#D5B6F8"/>
<rect x="91" y="178.709" width="79" height="7" rx="2" fill="#EAD7FF"/>
<g opacity="0.85">
<path d="M67.5 237C76.6127 237 84 229.613 84 220.5C84 211.387 76.6127 204 67.5 204C58.3873 204 51 211.387 51 220.5C51 229.613 58.3873 237 67.5 237Z" fill="#FFF1E6"/>
<path d="M78.6845 232.627C75.6415 230.127 71.7463 228.626 67.5006 228.626C63.2544 228.626 59.3588 230.128 56.3157 232.628C56.3157 232.628 60.3102 237 67.5006 237C74.6909 237 78.6845 232.627 78.6845 232.627Z" fill="#CC6111"/>
<path d="M63.4596 214.595C61.3982 216.656 61.3982 219.998 63.4596 222.06C65.521 224.121 68.8631 224.121 70.9245 222.06C72.9859 219.998 72.9859 216.656 70.9245 214.595" stroke="#FFAA64" stroke-width="3.4055" stroke-miterlimit="10"/>
<rect x="91" y="215.291" width="64" height="10.4186" rx="2.97674" fill="black" fill-opacity="0.2"/>
</g>
<g opacity="0.65">
<path d="M67.5 282C76.6127 282 84 274.613 84 265.5C84 256.387 76.6127 249 67.5 249C58.3873 249 51 256.387 51 265.5C51 274.613 58.3873 282 67.5 282Z" fill="#FFE3E3"/>
<path d="M78.6841 277.627C75.641 275.127 71.7458 273.626 67.5001 273.626C63.2539 273.626 59.3583 275.128 56.3152 277.628C56.3152 277.628 60.3097 282 67.5001 282C74.6904 282 78.6841 277.627 78.6841 277.627Z" fill="#5B0000"/>
<path d="M73.3203 259.935V263.341C73.3203 266.543 70.701 269.162 67.4991 269.162C67.299 269.162 67.1012 269.152 66.9062 269.132C63.0226 268.734 61.146 264.107 63.3746 260.902L66.6256 256.226" stroke="#FF7373" stroke-width="4.10288" stroke-miterlimit="10"/>
<rect x="91" y="255.291" width="64" height="10.4186" rx="2.97674" fill="black" fill-opacity="0.2"/>
<rect x="91" y="268.709" width="79" height="7" rx="2" fill="black" fill-opacity="0.1"/>
</g>
<g opacity="0.45">
<path d="M67.5 327C76.6127 327 84 319.613 84 310.5C84 301.387 76.6127 294 67.5 294C58.3873 294 51 301.387 51 310.5C51 319.613 58.3873 327 67.5 327Z" fill="#D7DFFF"/>
<path d="M78.6845 322.627C75.6415 320.127 71.7463 318.626 67.5006 318.626C63.2544 318.626 59.3588 320.128 56.3157 322.628C56.3157 322.628 60.3102 327 67.5006 327C74.6909 327 78.6845 322.627 78.6845 322.627Z" fill="#192866"/>
<path d="M56.1047 311.307H61.7259C61.7259 308.962 63.6274 307.06 65.9731 307.06H69.7715C72.1172 307.06 74.0187 308.962 74.0187 311.307H78.8949" stroke="#525FA3" stroke-width="4.10288" stroke-miterlimit="10"/>
<rect x="91" y="305.291" width="64" height="10.4186" rx="2.97674" fill="black" fill-opacity="0.2"/>
</g>
<g opacity="0.35">
<path d="M67.5 372C76.6127 372 84 364.613 84 355.5C84 346.387 76.6127 339 67.5 339C58.3873 339 51 346.387 51 355.5C51 364.613 58.3873 372 67.5 372Z" fill="#DEFFDF"/>
<path d="M78.6841 367.627C75.641 365.127 71.7458 363.626 67.5001 363.626C63.2539 363.626 59.3583 365.127 56.3152 367.628C56.3152 367.628 60.3097 372 67.5001 372C74.6904 372 78.6841 367.627 78.6841 367.627Z" fill="#007203"/>
<path d="M61.6785 360.114V356.707C61.6785 353.506 64.2978 350.887 67.4997 350.887C70.7011 350.887 73.3204 353.506 73.3204 356.707V360.114" stroke="#75C675" stroke-width="4.10288" stroke-miterlimit="10"/>
<rect x="91" y="345.291" width="64" height="10.4186" rx="2.97674" fill="black" fill-opacity="0.2"/>
<rect x="91" y="358.71" width="79" height="7" rx="2" fill="black" fill-opacity="0.1"/>
</g>
<path d="M227.846 166.087C228.208 165.487 227.911 165 227.184 165L221.817 165C221.089 165 220.793 165.487 221.154 166.087L223.845 170.55C224.207 171.15 224.793 171.15 225.155 170.55L227.846 166.087Z" fill="#B5B5B5"/>
<path d="M227.846 366.087C228.208 365.487 227.911 365 227.184 365L221.817 365C221.089 365 220.793 365.487 221.154 366.087L223.845 370.55C224.207 371.15 224.793 371.15 225.155 370.55L227.846 366.087Z" fill="#B5B5B5"/>
<path d="M241.587 245.654C240.987 245.292 240.5 245.589 240.5 246.316V251.683C240.5 252.411 240.987 252.707 241.587 252.346L246.05 249.655C246.65 249.293 246.65 248.707 246.05 248.345L241.587 245.654Z" fill="#B5B5B5"/>
<path opacity="0.4" d="M262.846 277.087C263.208 276.487 262.911 276 262.184 276L256.817 276C256.089 276 255.793 276.487 256.154 277.087L258.845 281.55C259.207 282.15 259.793 282.15 260.155 281.55L262.846 277.087Z" fill="#B5B5B5"/>
<path opacity="0.2" d="M278.846 307.087C279.208 306.487 278.911 306 278.184 306L272.817 306C272.089 306 271.793 306.487 272.154 307.087L274.845 311.55C275.207 312.15 275.793 312.15 276.155 311.55L278.846 307.087Z" fill="#B5B5B5"/>
<path d="M243.322 233.644C250.68 233.644 256.644 227.68 256.644 220.322C256.644 212.965 250.68 207 243.322 207C235.965 207 230 212.965 230 220.322C230 227.68 235.965 233.644 243.322 233.644Z" fill="#DEFFDF"/>
<path d="M252.352 230.114C249.895 228.096 246.75 226.884 243.322 226.884C239.894 226.884 236.749 228.096 234.292 230.115C234.292 230.115 237.517 233.645 243.322 233.645C249.128 233.645 252.352 230.114 252.352 230.114Z" fill="#007203"/>
<path d="M238.622 224.047V221.297C238.622 218.712 240.737 216.597 243.322 216.597C245.907 216.597 248.022 218.712 248.022 221.297V224.047" stroke="#75C675" stroke-width="3.3127" stroke-miterlimit="10"/>
<path d="M260.5 234C267.956 234 274 227.956 274 220.5C274 213.044 267.956 207 260.5 207C253.044 207 247 213.044 247 220.5C247 227.956 253.044 234 260.5 234Z" fill="#FFE3E3"/>
<path d="M269.65 230.422C267.161 228.377 263.974 227.149 260.5 227.149C257.026 227.149 253.838 228.377 251.349 230.423C251.349 230.423 254.617 234 260.5 234C266.383 234 269.65 230.422 269.65 230.422Z" fill="#5B0000"/>
<path d="M265.262 215.947V218.734C265.262 221.353 263.119 223.497 260.499 223.497C260.336 223.497 260.174 223.488 260.014 223.472C256.837 223.147 255.301 219.361 257.125 216.738L259.785 212.913" stroke="#FF7373" stroke-width="4.10288" stroke-miterlimit="10"/>
<path d="M243.322 411.644C250.68 411.644 256.644 405.68 256.644 398.322C256.644 390.965 250.68 385 243.322 385C235.965 385 230 390.965 230 398.322C230 405.68 235.965 411.644 243.322 411.644Z" fill="#E3DEFF"/>
<path d="M252.352 408.114C249.895 406.096 246.75 404.884 243.322 404.884C239.894 404.884 236.749 406.096 234.292 408.115C234.292 408.115 237.517 411.645 243.322 411.645C249.128 411.645 252.352 408.114 252.352 408.114Z" fill="#040072"/>
<path d="M238.622 402.048V399.297C238.622 396.713 240.737 394.598 243.322 394.598C245.907 394.598 248.022 396.713 248.022 399.297V402.048" stroke="#7579C6" stroke-width="3.3127" stroke-miterlimit="10"/>
<path d="M260.5 412C267.956 412 274 405.956 274 398.5C274 391.044 267.956 385 260.5 385C253.044 385 247 391.044 247 398.5C247 405.956 253.044 412 260.5 412Z" fill="#FCFFE3"/>
<path d="M269.65 408.422C267.161 406.376 263.974 405.148 260.5 405.148C257.026 405.148 253.838 406.377 251.349 408.423C251.349 408.423 254.617 412 260.5 412C266.383 412 269.65 408.422 269.65 408.422Z" fill="#5B3B00"/>
<path d="M265.262 393.947V396.734C265.262 399.353 263.119 401.496 260.499 401.496C260.336 401.496 260.174 401.488 260.014 401.471C256.837 401.146 255.301 397.36 257.125 394.738L259.785 390.912" stroke="#EBC268" stroke-width="4.10288" stroke-miterlimit="10"/>
<rect x="279" y="212" width="51.6741" height="8.41206" rx="2.40345" fill="#252525" fill-opacity="0.28"/>
<rect x="279" y="222.834" width="63.7852" height="5.65185" rx="1.61481" fill="#252525" fill-opacity="0.12"/>
<rect x="284" y="391" width="51.6741" height="8.41206" rx="2.40345" fill="#252525" fill-opacity="0.28"/>
<rect x="284" y="401.834" width="63.7852" height="5.65185" rx="1.61481" fill="#252525" fill-opacity="0.12"/>
<g opacity="0.25">
<path d="M68 418C77.3888 418 85 410.389 85 401C85 391.611 77.3888 384 68 384C58.6112 384 51 391.611 51 401C51 410.389 58.6112 418 68 418Z" fill="#F2F2F2"/>
<path d="M79.5235 413.495C76.3883 410.919 72.375 409.373 68.0006 409.373C63.6258 409.373 59.6122 410.92 56.4768 413.496C56.4768 413.496 60.5924 418 68.0006 418C75.4089 418 79.5235 413.495 79.5235 413.495Z" fill="#2F3135"/>
<path d="M73.1211 393.894H62.8792V404.135H73.1211V393.894Z" stroke="#8C8C8C" stroke-width="3.5087" stroke-miterlimit="10"/>
<rect x="92" y="395.791" width="64" height="10.4186" rx="2.97674" fill="black" fill-opacity="0.2"/>
</g>
<g opacity="0.15">
<path d="M67.5 462C76.6127 462 84 454.613 84 445.5C84 436.387 76.6127 429 67.5 429C58.3873 429 51 436.387 51 445.5C51 454.613 58.3873 462 67.5 462Z" fill="#FFC7D4"/>
</g>
<rect x="51" y="91" width="33" height="33" rx="16.5" fill="url(#paint5_linear_69_2948)"/>
<path d="M59.163 99.2433C58.504 101.811 59.1971 107.009 67.2421 107.254C67.208 103.879 65.5445 97.5525 59.163 99.2433Z" fill="url(#paint6_linear_69_2948)"/>
<path d="M75.837 99.2433C76.496 101.811 75.8029 107.009 67.7579 107.254C67.792 103.879 69.4555 97.5525 75.837 99.2433Z" fill="url(#paint7_linear_69_2948)"/>
<path d="M59.163 115.757C58.504 113.189 59.1971 107.991 67.2421 107.746C67.208 111.121 65.5445 117.447 59.163 115.757Z" fill="url(#paint8_linear_69_2948)"/>
<path d="M75.837 115.757C76.496 113.189 75.8029 107.991 67.7579 107.746C67.792 111.121 69.4555 117.447 75.837 115.757Z" fill="url(#paint9_linear_69_2948)"/>
<rect x="91" y="99" width="79" height="7" rx="2" fill="black" fill-opacity="0.1"/>
<rect x="91" y="109" width="43" height="7" rx="2" fill="black" fill-opacity="0.2"/>
<rect x="137" y="109" width="18" height="7" rx="2" fill="black" fill-opacity="0.05"/>
<rect x="234" y="83" width="70" height="6" rx="1.14656" fill="url(#paint10_linear_69_2948)"/>
<rect x="356" y="83" width="70" height="6" rx="1.14656" fill="#F2F2F2"/>
<rect x="476" y="83" width="70" height="6" rx="1.14656" fill="#F2F2F2"/>
<rect x="234" y="92" width="35" height="6" rx="1.14656" fill="#FFE5C4"/>
<rect x="356" y="92" width="35" height="6" rx="1.14656" fill="#E5E5E5"/>
<rect x="212" y="116" width="108" height="18" rx="3" fill="#003AC2" fill-opacity="0.04"/>
<rect x="213" y="117" width="106" height="16" rx="2" stroke="#003AC2" stroke-opacity="0.08" stroke-width="2"/>
<rect x="219" y="122" width="50" height="6" rx="1.14656" fill="#003AC2" fill-opacity="0.28"/>
<rect x="219.048" y="122.048" width="49.9045" height="5.90445" rx="1.09878" stroke="#003AC2" stroke-opacity="0.08" stroke-width="0.0955463"/>
<rect x="272" y="122" width="19" height="6" rx="1.14656" fill="#003AC2" fill-opacity="0.09"/>
<rect x="272.048" y="122.048" width="18.9045" height="5.90445" rx="1.09878" stroke="#003AC2" stroke-opacity="0.08" stroke-width="0.0955463"/>
<rect x="328" y="116" width="108" height="18" rx="3" fill="#003AC2" fill-opacity="0.04"/>
<rect x="329" y="117" width="106" height="16" rx="2" stroke="#003AC2" stroke-opacity="0.08" stroke-width="2"/>
<rect x="335" y="122" width="50" height="6" rx="1.14656" fill="#003AC2" fill-opacity="0.28"/>
<rect x="335.048" y="122.048" width="49.9045" height="5.90445" rx="1.09878" stroke="#003AC2" stroke-opacity="0.08" stroke-width="0.0955463"/>
<rect x="444" y="116" width="108" height="18" rx="3" fill="black" fill-opacity="0.04"/>
<rect x="445" y="117" width="106" height="16" rx="2" stroke="black" stroke-opacity="0.08" stroke-width="2"/>
<rect x="451" y="122" width="50" height="6" rx="1.14656" fill="black" fill-opacity="0.28"/>
<rect x="451.048" y="122.048" width="49.9045" height="5.90445" rx="1.09878" stroke="black" stroke-opacity="0.08" stroke-width="0.0955463"/>
<rect x="560" y="116" width="108" height="18" rx="3" fill="black" fill-opacity="0.04"/>
<rect x="561" y="117" width="106" height="16" rx="2" stroke="black" stroke-opacity="0.08" stroke-width="2"/>
<rect x="567" y="122" width="50" height="6" rx="1.14656" fill="black" fill-opacity="0.28"/>
<rect x="567.048" y="122.048" width="49.9045" height="5.90445" rx="1.09878" stroke="black" stroke-opacity="0.08" stroke-width="0.0955463"/>
<rect x="235" y="158" width="108" height="18" rx="3" fill="#6700C2" fill-opacity="0.04"/>
<rect x="236" y="159" width="106" height="16" rx="2" stroke="#6700C2" stroke-opacity="0.08" stroke-width="2"/>
<rect x="242" y="164" width="50" height="6" rx="1.14656" fill="#6700C2" fill-opacity="0.28"/>
<rect x="242.048" y="164.048" width="49.9045" height="5.90445" rx="1.09878" stroke="#6700C2" stroke-opacity="0.08" stroke-width="0.0955463"/>
<rect x="295" y="164" width="19" height="6" rx="1.14656" fill="#6700C2" fill-opacity="0.09"/>
<rect x="295.048" y="164.048" width="18.9045" height="5.90445" rx="1.09878" stroke="#6700C2" stroke-opacity="0.08" stroke-width="0.0955463"/>
<rect x="235" y="358" width="108" height="18" rx="3" fill="#00C2B2" fill-opacity="0.04"/>
<rect x="236" y="359" width="106" height="16" rx="2" stroke="#00C2B2" stroke-opacity="0.08" stroke-width="2"/>
<rect x="242" y="364" width="50" height="6" rx="1.14656" fill="#00C2B2" fill-opacity="0.28"/>
<rect x="242.048" y="364.048" width="49.9045" height="5.90445" rx="1.09878" stroke="#00C2B2" stroke-opacity="0.08" stroke-width="0.0955463"/>
<rect x="295" y="364" width="19" height="6" rx="1.14656" fill="#00C2B2" fill-opacity="0.09"/>
<rect x="295.048" y="364.048" width="18.9045" height="5.90445" rx="1.09878" stroke="#00C2B2" stroke-opacity="0.08" stroke-width="0.0955463"/>
<rect x="352" y="358" width="108" height="18" rx="3" fill="#C2C200" fill-opacity="0.04"/>
<rect x="353" y="359" width="106" height="16" rx="2" stroke="#C2C200" stroke-opacity="0.08" stroke-width="2"/>
<rect x="359" y="364" width="50" height="6" rx="1.14656" fill="#C2C200" fill-opacity="0.28"/>
<rect x="359.048" y="364.048" width="49.9045" height="5.90445" rx="1.09878" stroke="#C2C200" stroke-opacity="0.08" stroke-width="0.0955463"/>
<rect x="412" y="364" width="19" height="6" rx="1.14656" fill="#C2C200" fill-opacity="0.09"/>
<rect x="412.048" y="364.048" width="18.9045" height="5.90445" rx="1.09878" stroke="#C2C200" stroke-opacity="0.08" stroke-width="0.0955463"/>
<rect x="272" y="240" width="452" height="18" rx="3" fill="#252525" fill-opacity="0.04"/>
<rect x="273" y="241" width="450" height="16" rx="2" stroke="#252525" stroke-opacity="0.08" stroke-width="2"/>
<rect x="279" y="246" width="209.259" height="6" rx="1.14656" fill="#252525" fill-opacity="0.28"/>
<rect x="279.048" y="246.048" width="209.164" height="5.90445" rx="1.09878" stroke="#252525" stroke-opacity="0.08" stroke-width="0.0955463"/>
<g opacity="0.4">
<rect x="288" y="270" width="452" height="18" rx="3" fill="#252525" fill-opacity="0.04"/>
<rect x="289" y="271" width="450" height="16" rx="2" stroke="#252525" stroke-opacity="0.08" stroke-width="2"/>
<rect x="295" y="276" width="122" height="6" rx="1.14656" fill="#252525" fill-opacity="0.28"/>
<rect x="295.048" y="276.048" width="121.904" height="5.90445" rx="1.09878" stroke="#252525" stroke-opacity="0.08" stroke-width="0.0955463"/>
</g>
<g opacity="0.4">
<g opacity="0.2">
<rect x="304" y="300" width="452" height="18" rx="3" fill="#252525" fill-opacity="0.04"/>
<rect x="305" y="301" width="450" height="16" rx="2" stroke="#252525" stroke-opacity="0.08" stroke-width="2"/>
</g>
<rect x="311" y="306" width="209.259" height="6" rx="1.14656" fill="#252525" fill-opacity="0.28"/>
<rect x="311.048" y="306.048" width="209.164" height="5.90445" rx="1.09878" stroke="#252525" stroke-opacity="0.08" stroke-width="0.0955463"/>
<rect x="526" y="306" width="79.5185" height="6" rx="1.14656" fill="#252525" fill-opacity="0.09"/>
<rect x="526.048" y="306.048" width="79.423" height="5.90445" rx="1.09878" stroke="#252525" stroke-opacity="0.08" stroke-width="0.0955463"/>
</g>
<rect x="476" y="92" width="35" height="6" rx="1.14656" fill="#F2F2F2"/>
<circle cx="259" cy="249" r="6" stroke="#B5B5B5" stroke-width="2"/>
<circle opacity="0.4" cx="275" cy="279" r="6" stroke="#B5B5B5" stroke-width="2"/>
<circle opacity="0.2" cx="291" cy="309" r="6" stroke="#B5B5B5" stroke-width="2"/>
<defs>
<filter id="filter1_f_69_2948" x="0" y="0" width="904" height="105" filterUnits="userSpaceOnUse" color-interpolation-filters="sRGB">
<feFlood flood-opacity="0" result="BackgroundImageFix"/>
<feBlend mode="normal" in="SourceGraphic" in2="BackgroundImageFix" result="shape"/>
<feGaussianBlur stdDeviation="16" result="effect1_foregroundBlur_69_2948"/>
</filter>
<filter id="filter2_d_69_2948" x="100.893" y="36.8926" width="30.2147" height="30.2147" filterUnits="userSpaceOnUse" color-interpolation-filters="sRGB">
<feFlood flood-opacity="0" result="BackgroundImageFix"/>
<feColorMatrix in="SourceAlpha" type="matrix" values="0 0 0 0 0 0 0 0 0 0 0 0 0 0 0 0 0 0 127 0" result="hardAlpha"/>
<feOffset/>
<feGaussianBlur stdDeviation="1.05368"/>
<feComposite in2="hardAlpha" operator="out"/>
<feColorMatrix type="matrix" values="0 0 0 0 0 0 0 0 0 0 0 0 0 0 0 0 0 0 0.25 0"/>
<feBlend mode="normal" in2="BackgroundImageFix" result="effect1_dropShadow_69_2948"/>
<feBlend mode="normal" in="SourceGraphic" in2="effect1_dropShadow_69_2948" result="shape"/>
</filter>
<linearGradient id="paint0_linear_69_2948" x1="-11" y1="-41" x2="270" y2="282" gradientUnits="userSpaceOnUse">
<stop stop-color="white" stop-opacity="0.56"/>
<stop offset="1" stop-color="white" stop-opacity="0"/>
</linearGradient>
<linearGradient id="paint1_linear_69_2948" x1="93.5" y1="41" x2="4" y2="-13" gradientUnits="userSpaceOnUse">
<stop stop-opacity="0.23"/>
<stop offset="0.25" stop-color="#EE704A" stop-opacity="0.8"/>
<stop offset="0.5" stop-color="#F53A8B" stop-opacity="0.6"/>
<stop offset="0.75" stop-color="#7B40E4" stop-opacity="0.3"/>
<stop offset="1" stop-color="#3D9BFC"/>
</linearGradient>
<linearGradient id="paint2_linear_69_2948" x1="122.897" y1="41.6547" x2="108.241" y2="62.6326" gradientUnits="userSpaceOnUse">
<stop stop-color="#DDD24C"/>
<stop offset="0.25" stop-color="#EE704A"/>
<stop offset="0.5" stop-color="#F53A8B"/>
<stop offset="0.75" stop-color="#7B40E4"/>
<stop offset="1" stop-color="#3D9BFC"/>
</linearGradient>
<linearGradient id="paint3_linear_69_2948" x1="221" y1="82" x2="221" y2="100" gradientUnits="userSpaceOnUse">
<stop stop-color="#FFE4C2"/>
<stop offset="1" stop-color="#F7EFE5"/>
</linearGradient>
<linearGradient id="paint4_linear_69_2948" x1="221" y1="84.4351" x2="221" y2="97.565" gradientUnits="userSpaceOnUse">
<stop stop-color="#CF9DFA"/>
<stop offset="1" stop-color="#674188"/>
</linearGradient>
<linearGradient id="paint5_linear_69_2948" x1="67.5" y1="91" x2="67.5" y2="124" gradientUnits="userSpaceOnUse">
<stop stop-color="#ECF3FF"/>
<stop offset="0.332182" stop-color="#E6EDF8"/>
<stop offset="1" stop-color="#DBE2EB"/>
</linearGradient>
<linearGradient id="paint6_linear_69_2948" x1="63.1077" y1="98.9614" x2="63.1077" y2="107.254" gradientUnits="userSpaceOnUse">
<stop stop-color="#9DAED7"/>
<stop offset="1" stop-color="#262B38"/>
</linearGradient>
<linearGradient id="paint7_linear_69_2948" x1="71.8923" y1="98.9614" x2="71.8923" y2="107.254" gradientUnits="userSpaceOnUse">
<stop stop-color="#9DAED7"/>
<stop offset="1" stop-color="#262B38"/>
</linearGradient>
<linearGradient id="paint8_linear_69_2948" x1="63.1077" y1="116.039" x2="63.1077" y2="107.746" gradientUnits="userSpaceOnUse">
<stop stop-color="#9DAED7"/>
<stop offset="1" stop-color="#262B38"/>
</linearGradient>
<linearGradient id="paint9_linear_69_2948" x1="71.8923" y1="116.039" x2="71.8923" y2="107.746" gradientUnits="userSpaceOnUse">
<stop stop-color="#9DAED7"/>
<stop offset="1" stop-color="#262B38"/>
</linearGradient>
<linearGradient id="paint10_linear_69_2948" x1="304" y1="86" x2="234" y2="86" gradientUnits="userSpaceOnUse">
<stop stop-color="#FFE4C2"/>
<stop offset="1" stop-color="#F7EFE5"/>
</linearGradient>
</defs>
</svg>
