<svg width="18" height="19" viewBox="0 0 18 19" fill="none" xmlns="http://www.w3.org/2000/svg">
<path fill-rule="evenodd" clip-rule="evenodd" d="M9 0.624023C6.55537 0.624023 6.24938 0.635273 5.28975 0.678023C4.33125 0.723023 3.67875 0.873773 3.105 1.09652C2.51325 1.32602 2.01038 1.63427 1.51088 2.1349C1.01025 2.6344 0.700875 3.13615 0.4725 3.72902C0.24975 4.30277 0.097875 4.95527 0.054 5.91377C0.009 6.8734 0 7.1794 0 9.62402C0 12.0686 0.01125 12.3746 0.054 13.3343C0.099 14.2928 0.24975 14.9464 0.4725 15.519C0.702 16.1108 1.01025 16.6136 1.51088 17.1131C2.01038 17.6138 2.51212 17.9231 3.105 18.1515C3.67875 18.3743 4.33125 18.5261 5.28975 18.57C6.24938 18.615 6.55537 18.624 9 18.624C11.4446 18.624 11.7506 18.6128 12.7103 18.57C13.6688 18.525 14.3224 18.3743 14.895 18.1515C15.4867 17.922 15.9896 17.6138 16.4891 17.1131C16.9897 16.6136 17.2991 16.1119 17.5275 15.519C17.7502 14.9453 17.9021 14.2928 17.946 13.3343C17.991 12.3746 18 12.0686 18 9.62402C18 7.1794 17.9887 6.8734 17.946 5.91377C17.901 4.95527 17.7502 4.30165 17.5275 3.72902C17.298 3.13727 16.9897 2.6344 16.4891 2.1349C15.9896 1.63427 15.4879 1.3249 14.895 1.09652C14.3212 0.873773 13.6688 0.721898 12.7103 0.678023C11.7506 0.633023 11.4446 0.624023 9 0.624023ZM9 2.24402C11.403 2.24402 11.6887 2.25527 12.6371 2.29802C13.5146 2.33852 13.9905 2.48477 14.3078 2.60852C14.7285 2.77165 15.0277 2.96627 15.3427 3.28127C15.6577 3.59627 15.8524 3.89552 16.0155 4.31627C16.1393 4.63352 16.2855 5.1094 16.326 5.9869C16.3688 6.9364 16.3789 7.22102 16.3789 9.62402C16.3789 12.027 16.3676 12.3128 16.3249 13.2611C16.2844 14.1386 16.1381 14.6145 16.0144 14.9318C15.8512 15.3525 15.6566 15.6518 15.3416 15.9668C15.0266 16.2818 14.7274 16.4764 14.3066 16.6395C13.9894 16.7633 13.5135 16.9095 12.636 16.95C11.6865 16.9928 11.4019 17.0029 8.99888 17.0029C6.59588 17.0029 6.31012 16.9916 5.36175 16.9489C4.48425 16.9084 4.00837 16.7621 3.69112 16.6384C3.27037 16.4753 2.97113 16.2806 2.65613 15.9656C2.34113 15.6506 2.1465 15.3514 1.98338 14.9306C1.85963 14.6134 1.71337 14.1375 1.67287 13.26C1.63125 12.3128 1.62 12.027 1.62 9.62402C1.62 7.22102 1.63125 6.93527 1.674 5.9869C1.7145 5.1094 1.86075 4.63352 1.9845 4.31627C2.14763 3.89552 2.34225 3.59627 2.65725 3.28127C2.97225 2.96627 3.2715 2.77165 3.69225 2.60852C4.0095 2.48477 4.48538 2.33852 5.36288 2.29802C6.31125 2.25527 6.597 2.24402 9 2.24402ZM9 5.00252C6.44625 5.00252 4.3785 7.07252 4.3785 9.62402C4.3785 12.1778 6.4485 14.2455 9 14.2455C11.5537 14.2455 13.6215 12.1755 13.6215 9.62402C13.6215 7.07027 11.5515 5.00252 9 5.00252ZM9 12.6244C7.34287 12.6244 5.99963 11.2811 5.99963 9.62402C5.99963 7.9669 7.34287 6.62365 9 6.62365C10.6571 6.62365 12.0004 7.9669 12.0004 9.62402C12.0004 11.2811 10.6571 12.6244 9 12.6244ZM14.8837 4.82027C14.8837 5.41652 14.4 5.90027 13.8038 5.90027C13.2075 5.90027 12.7238 5.41652 12.7238 4.82027C12.7238 4.22402 13.2075 3.74027 13.8038 3.74027C14.4 3.74027 14.8837 4.22402 14.8837 4.82027Z" fill="white"/>
</svg>
